<mxfile host="app.diagrams.net" modified="2024-02-20T01:55:28.297Z" agent="Mozilla/5.0 (Windows NT 10.0; Win64; x64) AppleWebKit/537.36 (KHTML, like Gecko) Chrome/121.0.0.0 Safari/537.36" etag="WLSJIIMcjaFboUKdYGkb" version="22.1.21" type="github">
  <diagram name="第 1 页" id="gOQDqKuLnUrCpERCulOy">
    <mxGraphModel dx="1042" dy="1702" grid="1" gridSize="10" guides="1" tooltips="1" connect="1" arrows="1" fold="1" page="1" pageScale="1" pageWidth="827" pageHeight="1169" math="0" shadow="0">
      <root>
        <mxCell id="0" />
        <mxCell id="1" parent="0" />
        <mxCell id="9ZquulYYG6s8crrChnac-15" value="" style="rounded=1;whiteSpace=wrap;html=1;fillColor=none;dashed=1;" vertex="1" parent="1">
          <mxGeometry x="470" y="-47" width="330" height="330" as="geometry" />
        </mxCell>
        <mxCell id="9ZquulYYG6s8crrChnac-1" value="" style="shape=image;verticalLabelPosition=bottom;verticalAlign=top;imageAspect=0;aspect=fixed;image=data:image/png,iVBORw0KGgoAAAANSUhEUgAAARkAAADICAYAAADcBZUpAAAAAXNSR0IArs4c6QAAG6RJREFUeF7tnXmYHGW1xt9TPQkQUARlFS+iaDTIZiJhm64OsopwBUwUQtLVEQhKxIedm3QNzVQTooBXUdAEkq4JAXVAFEEhEUhXJ0BYAkjMVRYFuVw0IMuDYQkzXedaQzJkm5mu6urqr6pPPU/+mu875z2/882bmlq+IgQ4MoVrtkF1q68wtP8EsAeA7db7FyCiTBECDSHwOgjPgfEcA89p4AeHp1L3LipMfqkh2SToZgmQHy56R9cxcHkSiI4DeBs/c2WsEFCHAN3N7N7HbtvsJTMn/V0dXclUUpPJpGfMO5hImwbCycnEIFW1KIEXmfk6MZvGdn9Ik0mbtkVAvrEyJLoQaCqBF5nRUSkac5uqIqHJBzUZPV+6GkTfTmjtUpYQ2IAAM19aKeYKgiVcAgOajG7aTwPYM9x0Ek0IqE1AjCb8/mzWZHSz9A+Adgo/nUQUAjEgQDjF6TR+FgOlsZC4icnopr0QwJGxUC8ihUCjCBBPcDpzNzcqfCvF3cBk0qZ9BQHntxIAqVUIDESAmI4rF7N3CKH6CPSbTN9tak27r75wMlsIJIrA7Y5lHJ+oippQTL/J6Hn7JnkOpgkdkJRKE5Czmfrb02cyfU/yMv+u/nASQQgkjoCczdTZ0j6TSeft64nwjTpjyXQhkEgCGjBmsWUsT2RxERT13pmMPBMTAWpJEVcCzHRxpZj9blz1N1s3tRcWjNKqvSubLUTyCwGFCdztWMYRCutTWhrpHV3fBvPVDVT5DoAyQLdXUV3elhr2yhqsefWBwmmvNjCnhE4ogYPO6d5qqxFvb9/D+HBKc7dnomNAOBqMfRpZsmMZQ77n18j8cY5NumnPBnBGA4p4lhlXcdXtXnL5lJcbEF9CCoF+Aoea88amQGcDdEojsFCK9ygXcs81InbSY3om83sAh4dZKBGuqvauuWrJzKmyV0eYYCXWkATS+fknksbngfngIQf7GEDM48rFXNnHFBm6loBnMn8B8ImQiCxnF+dWLjMqIcWTMEIgEIFMh/1jZpwVaPJmJhE4V7ZydljxWimOZzIcUsFzHMuYGlIsCSME6iagd5TGg6m77kAA5O3s4BRDMRkGLaxY2aODy5CZQqAxBA65cO4H2rZIvVFvdDGZ4ATDMJlnHcsI68+t4JXITCEwAIFMvpRhosX1ABKTCU6vbpNh5mMrxZy8khC8BzIzAgLpvH0eEa4MmkpMJig5oC6T8e4ilTsN2RoiOH+ZGSEB3bQfATA6SEoxmSDU3ptTj8k861bXHCK3qYPDl5nREtBN23sezHsuzPchJuMbWf+EwCbDjGmVonFN8NQyUwhETyDo2YyYTPBeBTWZt99N9e4mrwYEBy8zm0MgbXZdTuCL/WYXk/FL7P3xAU2GbnWs7EnB08pMIdAcAkHvNInJBO9XIJMh0OllK3t98LQyUwg0j4Bu2t7rLjv7USAm44fWhmMDmUwV7oFLrSkPBk8rM4VA8wjopu09cnGMHwViMn5ohWAylEp9qlyY9EzwtDJTCDSPQDpvLyDCRD8KxGT80ArBZN5N9X5YLvoGhy4zm0sgyOeXxWSC9yzQn0uygU9w4DKz+QTS+VKBiC4ZQskqAM8T4Xl28RKDX5LvZAfrnZhMMG4yK8YENmMyv/n3n09PM7QnSauuGL51asWiCya/GeMSlZIuJqNUO0RMFATWM5k5GjBHvkTQWOpiMo3lK9EVJNBnMhpWyreuo2mOmEw0nCWLQgQyhQW7lQunvqCQpERLEZNJdHulOCHQfAJiMs3vgSgQAokmICaT6PZKcUKg+QTEZJrfA1EgBBJNQEwm0e2V4oRA8wmIyTS/B6JACCSagJhMotsrxQmB5hMQk2l+D0SBEEg0ATGZRLdXiouCgLfbXl+etr8tLRcKvVHkjFMOMZk4dUu0KkGgffrsXVLa8JFMGA/QeAA7rBX2LsGdgVSPXS5M/acSYhUQISajQBNEgnoERp8xe9gHdt1qJLnuyKqLzxBoJDQeCcZIANsOofgFAl0qW9S+R0lMRr31LYqaRKB9etc+WhtOBfPhQJ+ZjKhHimx0JSZTz/qRuQkjkM6XTiSiqwF8NMzSxGjkTCbM9SSxYkhgnDl/rEvud8A4uVHyW91o5M+lRq0sidtUAu2FBaOot2cCQRsF4lEA9mqmoFY2GjGZZq48yR06gb6Pt0H7Foi9uz5KHcy4plI0piklKgIxYjIRQJYU0RCocYPwaMQMmIXuIHavGujHLvO7baStctveXFUunLW6yWJDSS8mEwpGCdJsAnq+q1vFs5c6uSwHURdp2p1x/s6ZmEydq0CmN5+AbtovrfdAXPMFNUIBY4pTNEqNCN3omGIyjSYs8RtKIG12LSPw2IYmUSQ4QTunbE3+gSJyapYhJlMzKhmoGoF4XIMJl1oc71KJyYS7BiRaRATG5eeOdKntAYC3iyilImnob9Wetv2Xzpr4miKChpQhJjMkIhmgIgE9b18LwjdV1NZ4TXyeY+W+3/g84WQQkwmHo0SJkID38uI2O23xHIBdI0yrUqoVO+49Yv+bJ0yoqiRqIC1iMnHokmjcgEA6P/8wIveeVsbiEr66pNP4ZRwYiMnEoUuicSOTKRWI6JKWxkK43Ok0pseBgZhMHLokGjcgoJv2IwBGtziWRY5lHBUHBmIyceiSaOwn0D79hl20VPVFQYJXHMv4SBw4iMnEoUuisZ+A3lEaD6ZuQQJUUzRyaSH7lOosxGRU75Dok+sxA6wBZhxVKRqLVF8iYjKqd0j0bXg9JpkvQgbqMjOfVCnmbg00OcJJYjIRwpZU9RPQTfuPzd6Aqv4qwonAQLZiGfPDida4KGIyjWMrkRtAQDdtbkDYmIaksxwre63q4sVkVO+Q6Osn4G2pqVV7VwqSfgIXOZbxPdV5iMmo3iHR109A7ygdASblL3RG2LJLHMvojDBfoFRiMoGwyaRmEEjn7eOJcFszcquYk0D/Vbays1TUtr4mMRnVOyT6+glkzNLXGfQzQfIeAWacXykaA+4XrAonMRlVOiE6hiSQNrumEHjukANbZQDz2U4x9yPVyxWTUb1Dom+9M5muaQxW/pcqqpYR0ZnlzuzsqPIFzSMmE5SczIucgG7aFwL4buSJFU3I4G9UrNw8ReX1yxKTUb1Doq+fQCvu6TtY+wk0qWxlF6i+RMRkVO+Q6BOTGWANMPC1imUo/7KomIz8EseGgJzJbNQqohOdzuyvVG+gmIzqHRJ9ciYzwBrQCF9e3Gn8VvUlIiajeodEn5jMQGuAUkc6nZN+r/oSEZNRvUOiT0xmgDVAzOPKxVxZ9SUiJqN6h0SfmMwAa8BNpUYvKUx6VPUlIiajeodEn5jMQHeXmD9dKeaeVn2JiMmo3iHRJyYzwBpo23L4zvfMOGWV6ktETEb1Dok+MZkB1sDq1JqtlxemvqX6EhGTUb1Dok9MZoA14FgGxWF5iMnEoUuisY+APIy3wUL4l2MZH4zD0hCTiUOXRKOYzKZr4EXHMj4ah6UhJhOHLolGMZlN1gA/6Vi5z8RhaYjJxKFLolFMZuM1wHjEKRpfiMPSEJOJQ5dEIzKF+Z/jqvtz+ebSusXATxLjTHniV345hECdBNL50pc0Dccza8cDvEud4ZI3nelmAuaXi9k7VC1OzmRU7Yzogm7aJQCGoKiJwO2U4snlQu71mkZHOEhMJkLYkqp2ApnCDXtytar8I/O1V9T4kQz8oGIZ5zQ+k78MYjL+eMnoiAhkzJLBIO9MRo7aCbzDPGyfSnGiUuYsJlN7A2VkhAR0074OwGkRpkxEKma+tFLMFVQqRkxGpW6Iln4CekfXfWA+WJD4I8CMuZWioZQ5i8n466GMjoiA3mH/AYx9IkqXmDQMWlixskerVJCYjErdEC3vn8mY9l8B7CFIfBNY6VjG53zPauAEMZkGwpXQwQnopv0SgB2CR2jNmQy8UbGMbVWqXkxGpW6IlvXPZLx9UrYSJP4JqLYFhJiM/x7KjAgI6Ka9BsDwCFIlLoWYTOJaKgU1goBu2s8D+FgjYic9pphM0jss9YVCQM/bD4MwJpRgLRZETKbFGi7lBiOQNu07CDg22OzWniUm09r9l+prJJDpsK9nxjdqHC7D3ifwmGMZn1cJiFz4VakbomW9u0tdlwE8XZD4I0CEueVOeeLXHzUZ3ZIEMvl5hzNpyn/nWbXmMGNapWhco5IuOZNRqRuipZ/A+O7u1Esr3vL2RtlGsNROQENqv8XWpD/UPqPxI8VkGs9YMgQkoJulGwE6JeD0lptG4G+WrdxPVStcTEa1joiefgLp/LypRJpyvzSqtki1u0rrOInJqLpiRBcOKly//fBq2woAuwqOQQgQfuZ0Gsqe8YnJyOpVmkC6w55IjAVKi2yeuNuJaY7Km4h7aMRkmrdAJHONBNJ5+0gi+iXAchG477eW7icXl6tuLvLnUo0LXIapQSBtlvYmpnNAyKmhqFkqeB6l3vpOuXDW6mYp8JtXzmT8EpPxTSXQPr1rn5SG6Uz8taYKaU5y27GM2JmsmExzFotkrZOA3tHVCWazzjCxms6sHVspTv5drETLNZm4tUv0riOQzl+3B9GwRwF8qEWoPOxYxgFxrFXOZOLYNdHcR0A3u64C+NxWwMGMfKVoXBbHWsVk4tg10dxHYJxp7+UyHgNhWNKRUErbu1yY/Mc41ikmE8euieZ+Apl86adMNDXJSAh0W9nKfiWuNYrJxLVzoruPQKZw3W5cHX43wCOTiYR6KeW2lwu5ZXGtT0wmrp0T3f0ExnXYJ7mMW5KIhIFixTJifRdNTCaJK7MFa0qb9hUEnJ+w0h/b4oNa+6ILJr8Z57rEZOLcPdHeT2BUoTB8h+rH7wbQngwsvMpNDTtsSeHU/4l7PWIyce+g6O8n0F5YMEqr9nYD2CvuWNxU215JMBivD4FM5t/X28pxb6LojwWBfzqWMd6P0kMvvnG71LCeJXE2GjdF+y4pZJ/wU7fKY4OajMo1ibZkEbjTsYwv+S1JN23vmZLYndEQ0dfLndlf+K1X5fFiMip3R7S9R4BRcYqG7heHbtoLARzpd16zxhNgli2j2Kz8jcorJtMoshI3XAJEjzid2S/4DZrpsIvMmOF3XvTj6VrHyp4Vfd7GZxSTaTxjyRAWAcJSp9PwffdIN+0zAMwOS0b4cXieY+US+yE7MZnwV4xEbCyBF9qqw8fcM/OUVX7S6B32yWDc5GdONGP5JsfKTYwmV3OyiMk0h/vmsv4FQA+Az6gjSWElRIc5ndnFfhSmzdKbBBrhZ06jx6r6hYEw6xaTCZOmz1jMfClp2h/c3neWLZk59e/e9Eyh9CG3lz8PaPsT8QUA7eQzbMsM9/u1RN20XwKwg0qAxGRU6kaCtDDoQcA9vWLlvM99DHgcNqPro1WN58XpDknEbepxLGN4rTl1s/QcQLvXOj6KcWIyUVBusRzMVKgUs5f6KVuf0XUCNL7Vz5wWGbvKsYyda61V77BXgjGq1vFRjBOTiYJyS+WgJx0rG+iai27aPwRwdkvhGrrYPzmWUbNp6Hn7YRDGDB02shG9jmUkf8Mt3bQ5MqQtnqgK98Cl1pQHg2DIFK7Zhnu3fh6E7YLMT+IcBu6rWMahtdamm7Z3oThT6/gIxr3sWMaOEeRpagq58BsVfuYLnWLuinrSZczSmQz6ST0xEjb3145lnFBrTQqazFOOZSR0s633uyImU+sKrXMcszaqUpz8p3rCHFq48ROpao93q1sOjwDRdU5n1nvQrqZDNZNh8IMVK3dgTeJjPEhMJprm9a5etWbE8jlTvedg6jp0034GwCfrCpKYyTzTsXI1vzKgmsl4uxk4ljEuMe0YoBAxmWg6HNppcdq0byHgpGhkq53FdWnsksuyD9WqUkymVlLhjvNM5lkAHw83rETbgABhmdNpHBQGlVb61tDgvHiJY+XSfpiKyfihFd5Yz2RUu+IeXnXqRPqHYxm7hCFH77AdMHz9coWRV7UYTDit0mnM9aMrbdprCKj54T0/sQOObZk/l0oAjICQZFqNBKo9w7ZfOmviazUOH3BY2rRfIWD7euPEeT4RppU7jWv81JDJlzJM5OtdJz/xA459xrGMTwWcG5tplM6XCkR0SWwUx1SoBoxZbBnL65E/zrxhXxfVx+uJEfO5q+DSN53Lsr/yW4eet/8LhJl+5zV6/OrUmq2XF6a+1eg8zYxPmcL8MVx1H26miNbITfMcK1vXniGZjtIsZrqoNXhtXCUvoVTq3HJh8iNB6s+Y9i2s4AVzBn2+YmUfC1JTXOaQJ1Q37ecBfCwuouOq03vrulLMFYLo180FXwB6a76TEiSHwnO+t3rVmnzQRwB0s+sggO9Xsb561oSK9WxO01qT6ZoL8JS4iI6zTrea2nXJzEl92zr4OVrxWgwB97iMqytF4zd+WG08NtNhL2CGqhtDvehWU2OCrIl6mEQ5t89kMvmuLzPx7VEmbuVc7EKvXGZUamHQPqPrAE1zf9NC+8o8B8YDRHRv2cpeXwujwcakL7GPJBfehuLKHkk/m+kzGe/QTdv73+I4ZTuRMGFE/EO3yldVLpvyvwOVltBPr25YLuMJEB4i8H29Ke3+pYXsU2G1evQZs4dts9MWv4zBun7RTbUdkZSPuW3cv36TkbOZsJa2nzi0GoQnmPkJIr6fGD0utH0JvB8A71/Ne6X4ydrEsU+DaBkxP1ElPLbVW9qyRVc25jvP7dNv2EVLVecDOLyJ9fpJvdJNtU1IotH0m8zasxlvY6Sa32r1Q1DGtiyBlQAtZOaFlaKxKAoKabNrfyLMAbNKe8fUUnoijWYDkzn04mu3Sw0b4d3OlhfwalkSMmbzBBiPk8YLoeGuciEX2SeNvf2R4dL5zDgPwJYxbc//EfjHSL3143LhrNUxrWED2RuYjPeTcfm5I11K/TkJxUkNURLgh0HaXRrzwsWWcV+UmQ+bcf3urjbsOAZ/C8Bno8zdwFwrPbNZk6p2P1A47dUG5ml46E1M5r0/m0rtANV096PhCiWBygReZaCbiLr9fp6k3qIyhdLO3IMjQNpxIPZuWMT1zGVQFAy8Csad0HBnj9Z7ZxwNZ7Mm41V9+EWzt+0ZvsUNMbgyX+96lfn+CTxA4O5qte0XUT3fcdA53VttsfWbY10gQ0Ted7FV2kbTP8EgMxj/Yu9OnPfP5YfQhnK5kHs9SKgo5wxoMutEpM2uywl8cZSiJJeyBGy8d9ZyZ6MVZgrzP+e67lhyaSzAY0HYp9E5Yxmf8BAz7teYHVVNZ0iT6btO0zH/KJddz2ha73+PWK680EXP0YA59b7gOZCq9umzd2lr2/IA1zMTxmig79+HQ6+iNQL+lUArXLD3Ta8VYG1Fvdu+1outJpNZlyRj2ucz4L3kF+izHvWKlfkRE2C6QSP+YZjm8t4DcluOIWA0g9cZyt4RV9Zi6agXa02HGQ9pbT23lQunvxAVBF8m028200v7IYUMo+9vY++7N58A0BaVaMnTaAL0Ow3cEZa5ZAo37MmuewyYjwFwgJylNLp/NcV/gIBbq1X33iUzpzxa04yAgwKZzOZyHXJJ138Mq7qe2cgRcwLlYv3PtmxkLJ65yKEqAcLjzLhbY76nXMzdFbbM0EwmbGESL54EMmbXaQw+EYAYSzxbeDsxzSkXs3eEJV9MJiySLR5H7yiNB2ia7D+cmIUQmtmIySRmTTSnkHTePtLbc1eep2oO/wiy1m02YjIRdCmJKdoLXQdoLqaBeVIS65OaNiRAoNuQcmeVC7llftmIyfglJuMhm8+36iKgXgbP2vKD2qxFF9S+RYeYTKuulwB1r/2siPdlC3koMwC/BE15jJg7y8Xcr2upSUymFkoyBn0Xdpm6BYUQWEeAgSsrlnHBUETEZIYiVMPP1/754D2YqMQR9kfcxWCUaKuqIhY5lnHUYOLEZEJonWKf+n3bsYwRIZTVF0LVj6KFVZ/ECYEA47+donHuQJHEZEJgrJu291by0SGECiPEy45l7BhGoLRpTyagK4xYEiPZBAb74oKYTAi9101bpb2Rn3Uso+7XO9Z+Evceec8ohAXSOiGmOpYxZ+NyxWRCWAB63r4JhJNDCFV/CMITTqexb72BdLPrZoC/Wm8cmd9SBF7TgCM2frFWTCaENaCbCn2Bk+h+pzN7SD1l6R2l08G0yf9I9cSUuS1D4G7HMo5Yv1oxmRB6r5ulawDyNrFu/kF41Ok0vH1aAh19e+dWtWUA7x4ogExqeQIEd1LZmrJgHQgxmRCWRKbDvnLtZzhCiFZ3iLou/GbM0sUMurxuFRKglQnc5VhG/1v4YjIhLIVMh11kxowQQoUSYsTrb2x554/OXuM3WKZQ2pKr9JjsfOiXnIzfhADRYeu+YCEmE8L60E17NoAzQggVSogUY897i8Zf/AbLmKUzGfQTv/NkvBDYlADPc6yct1UvxGRCWB9p015KQF0XW0OQ0R+CmMcF2d1Oz3d1g3h8mFokVssSeMqxjJFiMiH1Xze7Xgb4IyGFCyPM9xzLuMhvoLRpv0LA9n7nyXghsDkC1Z5h2y+dNfE1OZOpc33opu39meT9uaTOEeBZGd3sOgjg+9UpQpTEnwAd7FhZb8NyOeohoJv2I2u/E1RPmNDnVuEeuNSa8mCtgWWPmFpJybiaCRCmOJ1GSUymZmKbDtQ77HPA+H4dIRo3legR0t49odbv6yj1QGHjqEjkKAkwX+EUcxeKyQSEns7P/xKR+9uA06Oadjel3jyhXDhr9VAJdbPr9wAfPtQ4+bkQ8EHgdscyjheT8UFs3dCY/Wlxi2MZQ94x0jvsJ8H4dAAcMkUIDETgGccyPiUm42OBHGrOG5uC5u2bMcHHtGYP7XYs42tDidBN+20AWw41Tn4uBPwQoNTuw8RkaiD2xek37dTb1nMemD2DSdUwRZkhDPygYhnnDCZodGH2iG2qW7ypjGgRkhgCDN5HTGaQdh5UuH77Yb1tJxPBM5e692hpysphutApZq8YLPeRhfk7rqm6q5qiT5ImmwBpE8RkNmpxn7G4bcfAxTEgHBP3h9OIcGq507hxsJV8WN7+ZJXwTLJXu1TXJAKXiMmsJZ/usCcmxVjWX0zM7hcrxSn3DrbAMtNL+3Gq78VIOYRA2AR+3vIm4z3pSuAZDBwbNl0V4lGKP1su5P48mBbdLLUDVFFBr2hIGAHC4y1tMmtvRXtbNLQlrLX95byTatv2wcKpbwx6JpMvZZhocVIZSF1NJMC8pmVNJmbPugRdJTVtYLX2y5BiMkEpy7xBCbSsyeim/SsAX0n0+mA84RSH3lRcTCbRq6DpxbWsybTCNpMMXlixckN+D0pMpum/h4kW0LomU1iwG/f2ngvCoA+qxbz7tmMZuaFqEJMZipD8vB4CLWsy66C1FxaMot6eCUR0JICPAdhtc0AZeBeA96LhagL+xaDVBPYexVf3IDzgdBrThxIoJjMUIfl5PQT+H4EH8jAH4p3YAAAAAElFTkSuQmCC" vertex="1" parent="1">
          <mxGeometry x="103" y="78" width="84.3" height="60" as="geometry" />
        </mxCell>
        <mxCell id="9ZquulYYG6s8crrChnac-2" value="" style="shape=image;verticalLabelPosition=bottom;verticalAlign=top;imageAspect=0;aspect=fixed;image=data:image/png,iVBORw0KGgoAAAANSUhEUgAAAMgAAADICAYAAACtWK6eAAAAAXNSR0IArs4c6QAACslJREFUeF7tnV+IHWcZh99vmhgRCVJSL2yQKIGQ5kYQrKVJ5gT0QppEijRXxnO2Sv0DKVRUhGZnJ7MakII1QpRQzZk1jUgKAZPSgiXdM5vUKPVKqgjJRcA2uWj9B1ox7plPd5OmyW52c3Z29j3zzjx72c437+97ft/D5uzZOeuELwhAYEECDjYQgMDCBBCE0wGBRQggCMcDAgjCGYBAMQJ8BynGjVUNIYAgDSmabRYjgCDFuLGqIQQQpCFFs81iBBCkGDdWNYQAgjSkaLZZjACCFOPGqoYQQJCGFM02ixFAkGLcWNUQAncUpBV3N4gEO30/3yzi1ovI2oawYZt1JeDkihO57MWdyZL2i4ttc0FBWvHETp/7x0RkV105sS8IiMhFL/64X7PqyNkn916ZS+S2goTRxAkR/wj4INAgApedyMFe0jl8857nCRJG6WsisqVBYNgqBG4Q8OIPTCUj8Tv/4RZBwih9XUTuhRcEmk3A78mSkedmGNwQJIzSkyLycLPBsHsIXCPgArerF7efnxXk+gvy08CBAARuEDidJZ3ds4KEUXqKn1ZxNCBwK4FAZKdrxcc2+rx/ATgQgMAcAs793G2PurETNwYcCEBgPgEXjqVHxMvMG4J8QQACc7+J8PqDMwGBhQm4cDSdFCctIEEAArf7JxaCcC4gsCABvoNwOCCwCAEE4XhAYCUFyZLOHZ8poQEIDItAa3+35QM3WXT+sr+DIEhR9KzTIIAgGpSZYZYAgpitjuAaBBBEgzIzzBJAELPVEVyDAIJoUGaGWQIIYrY6gmsQQBANyswwSwBBzFZHcA0CCKJBmRlmCSCI2eoIrkEAQTQoM8MsAQQxWx3BNQggiAZlZpglgCBmqyO4BgEE0aDMDLMEEMRsdQTXIIAgGpSZYZYAgpitjuAaBBBEgzIzzBJAELPVEVyDAIJoUGaGWQIIYrY6gmsQQBANyswwSwBBzFZHcA0CCKJBmRlmCSCI2eoIrkEAQTQoM8MsAQQxWx3BNQggiAZlZpglgCBmqyO4BgEE0aDMDLMEEMRsdQTXIIAgGpSZYZYAgpitjuAaBBBEgzIzzBJAELPVEVyDAIJoUGaGWQIIYrY6gmsQQBANyswwSwBBzFZHcA0CCKJBmRlmCSCI2eoIrkEAQTQoM8MsAQQxWx3BNQggiAZlZpglgCBmqyO4BgEE0aDMDLMEEMRsdQTXIIAgGpSZYZYAgpitjuAaBBBEgzIzzBJAELPVEVyDAIJoUGaGWQIIYrY6gmsQQBANyswwSwBBzFZHcA0CCKJBmRlmCSCI2eoIrkEAQTQoM8MsAQQxWx3BNQggiAZlZpglgCBmqyO4BgEE0aDMDLMEEMRsdQTXIIAgGpSZYZYAgpitjuAaBBBEgzIzzBJAELPVEVyDAIJoUGaGWQIIYrY6gmsQQBANyswwSwBBzFZHcA0CCKJBmRlmCSCI2eoIrkEAQTQoM8MsAQQxWx3BNQggiAZlZpglgCBmqyO4BgEE0aDMDLMEEMRsdQTXIIAgGpSZYZYAgpitjuAaBBBEgzIzzBJAELPVEVyDAIJoUGaGWQIIYrY6gmsQQBANyswwSwBBzFZHcA0CCKJBeYVntOIj61x/zaa+uE2B+Lu9c39wQXChF++9uMKja397BDFecRhN7BPxP7zdNrzIK867b2bj7fPGtzm0+AgyNPTLHxyOppPipDXAnb6eJZ2nB7iOS+YQQBCjRyKMun8ScZsGjd/3+SfPjT/620Gv57prBBDE4EkIx9LviZdvLTH6pavB9MfPx1/66xLXNfpyBDFW/wPxT+5+T77qL8Viu6eypL1UsYqNqskqBDFW5NbRo/ff5YLfFIrt/QvZ+MhDhdY2dBGCGCs+jLp7RdzPCsa+lCWdjxRc28hlCGKs9tZo+g3v5KmCsf+VJZ33F1zbyGUIYqz2MJr4jIh/oWDsV7Ok84mCaxu5DEGM1d6Kj230ef9CodhO0uxAZ6TQ2oYuQhCDxW+P0nNO5MGlRvcin59KOseXuq7J1yOIwfbD0YkHxPlfLyW6F39gKhmJl7KGa3mj0OwZCKP0CRH5/qAbyJKOG/RarnuXAN9BDJ+G6++J/EJENiy4DS+nsvHOZw1vc6jREWSo+Jc//No766u/LT7fIs7dJ+LWicjvxfs/enHnp8bbR5c/pbl3QJDmds/OByCAIANA4pLmEhi6IM1Fz86bQMAt4aGdJvBgjxC4hQCCcCAgsAgBBOF4QOAOgvxSnOyGEgQgMJ+AC0e7h8W5rwEHAhC4jSCt0e5XvHM/Bg4EIDCPwFuuFT+z3uer/wwcCEBgLgH3zOwvwIVRekpEdgEIAhB4l4DP/UOzgrTiiZ0+96eBAwEI3CBwOks6u2/8CnUYpSdF5GEAQQACIi5wu3px+/lbnjEIo/R1EbkXQBBoNgG/J0tGnpthMO8hnDBKXxORLc0GxO6bSmDuk5u3fUotjCZOiPhHmgqJfTeSwGUncrCXdA7fvPsFH+O8/sL9MX661cjD0qRNX/Tij/s1q46cfXLvlXk/6L0TiVbc3SAS7PT9fLOIW///56jX3mlNY/+/k4+JyAcK7v/vc9YVvc/MbS6Jl0sFc9R/mZMrTuSyF3cmS9ovLrZhPgigxOOwrEcHvPSy8c6O2R+77++2fOAmi0bjE1CKkpu/DkHKYykIUiLMitwKQUosAkFKhFmRWyFIiUUgSIkwK3IrBCmxCAQpEWZFboUgJRaBICXCrMitEKTEIhCkRJgVuRWClFgEgpQIsyK3QpASi0CQEmFW5FYIUmIRCFIizIrcCkFKLAJBSoRZkVshSIlFIEiJMCtyKwQpsQgEKRFmRW7VCEF27D+2qe/yB8XlH15J7k5ce9E/hrP48Ft/A9dJq3BWLz3vfFZ4/SAL++7l/779vlfPP73n34NcbvWaWgsSRt19Iu6rIrLZakHVzu3+KeInA5FDk0nnTLWzFktXS0G2xc/eF+TTJ3h0uNihKLTKuaPZgfYXC62t8KLaCXJ//Oza9+bT/6gw89pGc94/0Rsf+UGdNlg7QcIo/ZWIfLpOJVnai8v9jt53RnqWMi+WtVaC8AF4wz+WXuSVqaSzdfhJyklQK0HCOH1ccjlUDhruUoyAeytL2vcUW1u9VfUShD/lUIkTdlffrX/5u+03KhFmmSFqJkg6Kct5/2CZMFl+jUCdXofUS5Cx9JB4eZyDOlwC+fR/PnT24JfnfcbUcFMVm14vQaJ05k3BHxVDwaqSCLyRJZ2Zz0+rxVetBGnFE5/yuX+pFs1Y3YR3J7Px9uesxp+bu1aCzGwuHOv+VLx7tC4FWdtHnV6gz76eslbAIHnDaOJNEb9ukGu5pjwCdXpx/g6VWgoys7ntUTd24sbKq587LULgsg+CfVPxF2b+CFOtvmoryOw/t0aPbRPXHxFx20T8xlo1N/zNXHUiL+XifzeVjMTDj7MyCWotyM3ItsbHP7pq+uqKPg8yaEU+kHu8uA8G3q8edE3ugr9J4N4MpvtvD7pmRa9bteFcL94xvaIzKnDzxghSAdZEMEgAQQyWRmQ9Agiix5pJBgkgiMHSiKxHAEH0WDPJIAEEMVgakfUIIIgeayYZJIAgBksjsh4BBNFjzSSDBBDEYGlE1iOAIHqsmWSQAIIYLI3IegQQRI81kwwSQBCDpRFZjwCC6LFmkkECCGKwNCLrEfgfcmSLIWcJihYAAAAASUVORK5CYII=" vertex="1" parent="1">
          <mxGeometry x="300" y="73" width="70" height="70" as="geometry" />
        </mxCell>
        <mxCell id="9ZquulYYG6s8crrChnac-3" value="" style="shape=image;verticalLabelPosition=bottom;verticalAlign=top;imageAspect=0;aspect=fixed;image=data:image/png,iVBORw0KGgoAAAANSUhEUgAAAMgAAADICAYAAACtWK6eAAAAAXNSR0IArs4c6QAAHtpJREFUeF7tXXucHFWVPqd7QiAsCsvyUlRUfBHfsisI6eqAT8QXkFkQSN+egCw+F10VTFdT9u0EZEHR9YmQro7AutFdXZFVEZi+PUFEFlER1BUUFRRBQSUGSabrrDVkdDLMzD23+lZXTebW7zd/1XfP47v3m6o+dR8I7nIMOAZmZQAdN44Bx8DsDDiBuNHhGJiDAScQNzwcA04gbgw4BpIx4J4gyXhzrRYIA04gC6SjXZrJGHACScaba7VAGHACWSAd7dJMxoATSDLeXKsFwoATyALpaJdmMgacQJLx5lotEAZyI5BSbf0xCNHhALg/ID0FAOK/PRZIPyz0NB8AgJ8A4U8A6C6CwsZuc+V/5YGUTAXy8mD93lt68EaC6I0A8Pd5IMTFkBsGbkQoXL5TES6/Klh5b1ZRZSaQUj08EQkkADw5q+Sd33nBwB2A+G7VqHwhi2gzEUjJDz+EAP+cRcLO5zxlAOHNqiE+MejoBy4Qzw+vAoCXDTpR52/+M0BE7+82q8EgMxmoQEq1VoCIZw8yQedrB2MAaVg1qp8bVFYDE0jJb48g0CWDSsz52XEZIILXdZviS4PIcCACKdVaRyHilYNIyPnY8RlAgGs6Urx0EJkORCDlengxEawaRELOx8JgAAFP7cjKxWlnOxCBeH4YfwjaPe1knP0FxUBHSbE87YxTF4hXb60Awg2MRH4JiOdiFN3CwDrIDswAIb4TAF6jSxGJlnea1Y4O18/91AVSrrcvJKJ3MIIcyH8ERhwOkjED5Vr7aEK6QhcGIn2406im+j0tdYF4fhhXG7T/DQDACUQ3IhbQfc8Pvw4Ac/8QJ/i+aornpEnLIATyfQBYykjiYiXFqQycgywABkp+6xMI+E+6VLFIT+4E1Tt1uKT3ByCQ9mYA2kUXICKe2WlUPqDDufsLgwHPb78TgC7QZYuEKzrNyud1uKT3UxVIOWgdQD38KSc4pGhFpzmSWqKcGBwmPwyUauFrEeG/GRGdraRoMHCJIKkKpFRbfxRixPpAiD16QWdt9TuJsnCNdjgGlgXrDir0CrcyEvuskuIEBi4RJFWBeLXWuwHxPE5kWPzjbp3gLZs4WIfZ8Rk4KNiw017jm+8HhF3nzpa+q2T1+Wkxkq5A/LAFAIIR/D1Kiv0YOAdZQAx4tfBmQNAN/i1KisVp0ZK2QL7FWimIsFE1xLK0kuTaXRZcetBYcNJtXLzDpcuAV29vAKIVOi9FggOvbYo7dLgk99MWSPzKpHlEToQdKimqSRKw1SYWR3F8695pf5m1Fe8g7Cyvh8eONsR/DsLXTD68ergWCM7S+UfC13SalS/rcEnupyYQkwoWEdS6TbEmSQI22sTiKPTGNyDRW51A/sqo54eERG/oNKtftMGzqY2S3xpBQM4SifcqKVi/dU1jSE0gRhUsxOM7jcp/mAZvAz8pjvhj5iDm9tiIeVA2YoEAQI8IjhnU+oupuZVWhyUsgGLkm9obSGoCMalgFQAOHpXiJgYRViFTxREbdgLZnt5tAomZ2RIhHTPWEKySva1OOiy45HFDveLdOnsEeENXVg7R4ZLcT08g/AoWLNp1ye5Xnzn8+yQJJG0zXRxOII9m8q8Cmbj3p22vW19NynmSdp4f3gUAj9e0/YOS4rFJ7OvapCkQXgUL4H4lxZ66QG3en0kcTiBagcSAP2573Yo33hjI5fnhtQCgXfdRjHD/a9dUtE8b06DTFAivgkXwTdUUh5oGnhQ/mzicQFgCiUF/QIqO7TRHrk7aBybtvFr7IkDST2JFerlqVOMZwFavVARiUsECgEuVFCdbzWoWY3OJwwmELZD4N8kDgHCsalRG0+43zw/fAwCcSazvUFJ8xHY8qQjEpIJFhEG3WXm/7cSm29OJY1IgacQx6NLxYWe3n7ioF8V7G/d1EeLsAiD4bQGjY0flCKfKlDiOUq11DCJqv8UQwCe7Upye2NEsDVMRiEkFixBO6jbEZbYTm2qPI44U/f9uvNhbel2w6pcp+oByrfVKKOBLifClAPS8NH1NsX0vAB2nZHUsLX8lv/UcBPyezj4Bqq6slHU40/vpCMSgglWA6JBROXKDaeBcfMbimAzzi0qKN3BjNsGVg9buUQ/PznAr119RsXhcNzj5GyZxc7GHfnDDLjs9sHkzA3+vkmIfBs4IkpZAuBUsGBrHv7vmnMpvjaJmgnMijslorb8jl2ut11MBzwbSTuhjMpYUhndhFK3orKl+M6mFudp5fhhPez9IZxuLD+/VCU77jQ5ncj8tgfAqWACblRScuVomOU1gcyaOiZiiIj5vLKhoXxc4yZb9liDAeLZ0Li4C+DlFuGJsTSX+52j18vwwPiuE8QSmku3XPesCMaxg3aSkONgqmzkVx0SOlmYtl/32Wwno32zzZsHeTwsAK2zPivBqrfPiIxAY8Z2mpLiIgWNDrAvEpIIFCP+uGiI+PMfalccnx9TkCKDZlcJPmnDZb51JgOckbT+AdrcT4HBXVm625currz8VKNIOfAK4sCvFGbb8PvI/zfJlUsECRKkalbqtEPIujsk8qVg4shusjL8QG10lP5QIUDNqlA34/wrQGx6Vq75rw71Xby8HIi1fCPi1jqy80obPSRv2BWJQwaIoEt01I20bCc0XcWzL9YfLi3cuDYIg4uZeqrUuRETOBnxck2njfoDFwnAnWBlv+9TXVVq97glYKPycYeQXSoonMnBsSBoCYVewIoDDx6S4jh3tHECvFp4BCB+0YWsQNkw+bHl++xIAGhlEXHZ94LuUrFjpE88PHwSAv9HFZ3tvgzQEwq1gwVBv677XrD3117qkufeX++tfHEEU7wNs9b8I178pjqLo+O6akVnXwbzoTZ9a9Df7LL4cAI4ztZ0tnn5NEQ5314iurTg8P4y/szDm7NE/KFm90ZZfqwIxrGD1lBRDthKZtBMEQWG0d0D8Zf5427bt28PfLC7i0plOcT38zMv2KC7a+lkAeLl9v6la/PKWPZYMX//O4YdseuE+RQmg0pVivS3fVgViVsHC76tGJbV9Vb16+21AZH3ymi3ip9j5vJJiu40JJt65sbABEFJZBJRCDhMm05xX59XCswBhrS52Ajy3Kyvadew6O5P3rQrEqIJF+DnVrAxzA02C2/bK9e/co6bjQyKT+JnaJskZjETw1m5TfCy2Y6nYcCsR9b1LJT8XfIAIT+o2V/5Pv/zN1t7gGI0vKSleZysOuwIxqGABwjmqId5nK5HZ7MTv8bvuvbiFCCfqfNlYcpv0iOuoOLR0csuhPkVya1QcGraxfdG0FYWz0EfXbi0WT/hGsPJeHb/93C/57Rcg0LcZNn6spHg6A8eC2BYIu4JFgKu6srKOFaUFkFdrvQ0Q53zlsiGQOFTPD7k72k/NbLvjHxKKxJo4tuURb9ow60UA53el4Hzh7rsHD3vPJbsNLS7+gWMIi3cu6gTBOAerw9gWCLuCRUXwuoG9Kocu0fh+KVj3EuwVQgB42kx4awJhftiaHsP0d3hDkVgVh0YgmymKRuaqwHH6wxTj+e1fAND+unYE9NyurFo5qcyaQAwrWLBTcfHjvx6ckOoaiZmILAetnWm8EC/jfNQqRlsCmRhczE3PpscYQVQem7IIiSkS6+KYVSCIG3uFXmVjMPIT3UC1fd/zw/g3zqt0dgngH7tScI7905myN9XEqIL151X4Sgpr4tRmOQOgXG+/g4gunHrLpkAeEUn7RiAym4yJj67uaUSSijhmFAjRv6lm9e1J+LbRxvNbFwBMnF845xUXW7rNaqDDce5bG6RGFSyA25UUM77mcIK2hfH81jIAjCfBPTO2aV0g/iWHAhSNFxIRwEe7Urxtap6ziCQ1cWwnEIIeIp3SkdX49TSzy6uFpwPCxxkBbFBS/CMDp4XYE4hJBQvoCiWrr9VGNwDAy/9l/a4P79K7CADfaFsg2wZZPBnTuHwcIRw3Nm1f3GkiSVUcUwRyY1TEU2ytY+mnS71662VAyNly6BYlxXP78TXZ1qZA2BUsQPpX1ajGu1Xk5oqP/EKKvp3GBgtePRwDgsMNk71naByfPX215aRIbJVy54qpXG9/stOoaM8JNMwrMZz/OxfHlawsSuxoSkObAmFXsADA+sIWG2SUa61yGgIxqOFPT2PG05MW8jENvG8z8Vd9enq3Wf1xv+PCikD4yn4kXKLoyG5zRDu/v9/k8tTeq7XfDUjGO5AT4T91m5VP5SmXLGPhfmMigtfZ2HDbikBMK1jjBXzSde+vcOb3Z9kX1n17fhi/P7/MyDBBrwC9paPNVT8yareDgj0/jKcOaSeiItBZHVk9t18arAjEsIKVeYm3X9KSti8H659NvSjBByy8WsmKmbCSBpnzdl6t5QMi51Tb9UqKSr/p2BGIUQULrK/66peEQbbnTHmZKZ6sDxkaJEdzFg781vEEGD9FdNeNSop/0IF0920JhF/BArhKSfEKXWA78n3PD78EAK8xzbEAcPiopRWYpr7zgi8H6w+mXsRYEIWblKzs1m/ctgTCrmAh0oc7jeo/9xv4fG6/vPaZZ0TYi8+E39koD4TvqIZ4gVGbHQwc7yRJPXyAkxZF0RO7a0Z+wcHOhulbIKYVLAB6i5JVztfQfvLKfVuv3joVaOIrvtGVxtY2RgHkAOz5YTyrV/t0iDB65Vhj5Gv9hNy3QEwrWETwim5TcL6G9pNXbtqWaq1gtnlBXq21ARC1xxxPT6aA+PrRRuW/c5PkgAPxaq3rAPElOrcIdEZHVrebb6drM/1+3wIxrWD1itFTs5gJakqMDbznhx8GgLfPNnnu8GDdU4q9Qnw24+6G/u5etOXhpVd/4LSBHltnGGNq8FKt9UlEPI3h4CIlBQc3q6n+BWJWwVowJd5ty33/spnzbCJJvscuXqpkZSAHDzEG4kAhBluvjikpSv0EZ0MgJhWs+5QUe/cT8Hxp69XDO4Bgu0NsZhOJ54fx5nkrTXMjhFO6DcE5R9zUdK7x8VkohPgVfZD4GyUre+lxsyNsCIRdwQKCrmoKr5+A50Pbkt8+B4HOnCnWmUSybefA+IyU/YzyI3q4CLj02qa4w6jdPAeXg4sPpN4Qa57V1mJhn37Wy/clENMKlslugvO1DzknIs0oknp4IhJcapo3AX2tK6tW96M1jSELPHfSYgGicj/HxPUlENMKFgBYP0Qmi86Zy6fnh/8LAC/SxTWTSDw/jCclvknXdvp9Ijyz26xwDro0NZ1bvOeH8fcN7fp0BDq9I6ufTJpIXwIxrWAB4lGqUWG8OyZNJ9t2pVq4GhGa3Cimi6QctPalHsYrEJ/MtTGJK0DhkFG5MrWj7EzjSRvv+e0rAegohp+PKCkSb/rdn0AMK1i25ugzSBk45Iha+NQewu2mjqeLpOSHwwgw6369c9hP5TAi03wGhS/X2+cS0XsZ/r6upEi8fWu/AjGpYIFqVAqAOOdeS4yEcwnx/NZVAGg84xYJV3Sale12QSzVwo8iwltMEyXA87uyMpB9qkxjs40v++2TCOgzDLt3Kym0r2Kz2elXICYVrAdVUzyGkdC8g3j18HQg1mYC2+WGCBd0GuJfpid85FntPccXURdIf3Dl9LYFhKNHG+LKeUeiYcDl1a1DqIDXc5r9qTj02BuCk1ibzk23l1gg5hUsvKErK/NqM2YO+cve96n9CsXFPwWAxRz8XzCIG6PxwvDY2pN/NVM7r95+AxDFh1caXvSzxQ8Vl151/so/GjacV/Aj17b3HH+IWCfa9nPUeGKBJKhghUqK6rzqBUawpVrrs4hovsUM4jGqUfnCXC6S7vNLRO1usyoY4c9rCLfUi0DVpFsWJRaIcQUL4L1KCuM12bZ7cNuuIPF7ehkADrBtn2MPET/QaVRm/JA4tf2Lg0sfs/P4+CggvJBjN20MAd6ACJepRiUXJ+x69fYtQPRsRt7nKSk4P+gfZSq5QAwrWID0WtWoXsFIJjUIcxvP1Pw/Yhiv31rE13O/7pZr7aMJKVPeHkXIAI6u4HSCVwsvB4QTGNgrlBSJ9mHrRyBGFSyiwkHd5sofMJJJDRJPPeefeZFOGEl22zA4JzydoGeySvAh1RTabUDTDIh7qA4A3KGkODBJLP0IhF/BAoBN+z+8002nnbY1SZC22nh+eBcAPN6WvQR2Ej3qDz1jwy477bb5WqBcnTh1vZJCuyYjAUfsJiZP1/uKSxbfFgxvYRvfBkwkENMKFgBsUVKYVXlMM9Hgl521bq/CUCHVQ140Idw4NI6vmr5TIjfNZfV1ryhQ4atc/CBwWW9Avm3p8g85uRag+PxRebLxue2JBGJewaLvKll9PieRtDDL3rfuhYXixOKkTC4kfE2nWflyP849v7UGAFM/lYsbY9QrPm62MjXXRj+4FRs2FO+9ZTProBwEOqEjq/GhqEZXIoEkqGDNuIWmUaR9grMVCH1Qyeq7+kwBykEwRL0D4h0pl/Vry0b7AsDBo1Jk9k8nzsHzw3hVJecDdENJcbZp3skEYlrBIqyrZkWaBmcTn+Er1s1YpCM6QfV3NvIp1dYdgVi4xoatfm30iviMjUHl//q100/7kh9uRIDDGDYedZowo02yA3Q8PzSqYM0034gTnG2M54fxV+t9bdudyx4SvaHTrH7Rps88VOMA4C4lxRNs5pXEVskPP4EAnB3ob1VScL6ZbBdG0ieIUQXL5plxSUicbFPyw39FgEfNferHpqZtoqoVJ56S3/4qAmW4AR99XMmq8YRKTm4mGM9vvRkAJ47Q1lyRkqKoA02/byyQBBUs2LJpyZLrPzT8kGlwtvH8tcw2PNPYpl9vOfKmi9IpbZdXrz84KkTXIO/920ZCU23cVyQ4NA9LfbedEtblJFig4jNHmycbbQJuLBDzClb25xFOJS8+KAeALuAQ2gcm9dOf4ti8emsFEFo5rJKdK8J3MKIz0jhHhR3DFOCR7/v0PuPFRfdw2iZ53TUWiHEFC+GHqiGexUlgUJj4oBxCWAGAB9n2SUSKhhZtGAtOus227ZnsTXwsi3dEQepr9w5drAQTwvj2+Nboi9edt+pBHX6Q97mTFgFotZLVtSaxmQvEtIIF8AUlxTEmQTmsY8CEAc8P47NmOAWDS5UURnuJJRGIUQULgNYqWV1tkrDDOgZMGPD81pUAyFmfbrwsOYlAjCpYCHhyR1aMt7MxIchhFzYDpVrrXETkTGffrKTY1YQtI4EkqWBFxeKLxoKTv20SlMM6BkwYKK0OT8QCb0+xYrTogGvXnPgzrn0jgSSpYGFxyW6dYDh+6rjLMZAKAyX/0ucgjH+PZdxw6ykjgRhXsCBfJV4WgQ407xhYEWzY6d7e5od5gdO7lKx+kIcFs6kmnnkF604lhfEmaNzgHc4xMMkAv9QLFyspTuUyZ/YEMZyDBQBfUVJwqgvceB3OMTAjA54fxq9Yz9HRQwDXdaU4XIebvG8qEKMKFoCdad7cZBxu4TLg+e3LAOiNDAbuV1LsycBNQNgCSVLBQoRTOgvw/Aou+Q5nj4Gy3zqTAM/hWMQi7dcJqrzpKRyDMSZJBYui6LDumpF4M2Z3OQZSZWB5PXx1RMBbsYl4hGpURjkBsZ8gSSpYva2L/nbjuSeyjuzlBOswjoHZGDjs7PYThyJift/gn7TMF4h5BWvBnEfohm0+GOBWsgjgo10p3saJ2kQghnOw4B4lhdmRYpyIHcYxMAsDnh/Gy5ofqyMIAa7pSPFSHc7oR7rnh4YVLLxWycqRnCAcxjFggwGvHo4BAaeE+0slBWt/NNYTJGEF62NQoPNhPJv9b20Q7mzMIwaG4E6K8D1AcDonaizSHpyNNFgCSVLB4gTpMI6B7BjAlyhZ0Z4vwhJIkgpWdok7z44BPQMEuKorK+t0SJ5AElSwdI7dfcdAlgwQwPldKbTH1XEFYlrByjJ359sxoGUAAa7sSHG0DsgViGEFS+fW3XcMZM7AT5UUT9FFoRVIkgqWzqm77xjIAwNYpF06QfVPc8WiFYirYOWhK10MaTBAgC/sysrNfQnEVbDS6BpnMw8MEBRO7MqVl/cnEFfBykNfuhhSYIAAml0p/H4F4ipYKXSOM5kHBui/lKwe269ATCpYXyGEywoR3Z2H9F0MC4wBhAOICkcB0gpm5j9QUsy5/eycP9KPWN1+fK9A8cGX2ouI3t9tVgMt0AEcAykz4NXaG7gi0Z2zOKdAHtnkGVkrr3SOUubEmXcM/IWBcvCZA6nX+zGHEiRaPtdO9VYEQkCqK6tlTkAO4xgYBAPcxVMDEQgAjSlZLQ0icefDMcBhIF8CQdioGiIXJ69yyHOYHZ+BfAmE6BuqWeWcNLrj94zLMBcM5EsgANcrKV6SC2ZcEI6BR85PJw4RA/kNQkA3dGX1EE5ADuMYGAQDuRIIIHxLNcSLB5G48+EY4DCQL4EQ/K9qir/nBO4wjoFBMJAvgQAYn/02CJKcj4XLQN4EcrOS4oV57o5SrRUg4tk2YjSdNZCl78l8uQNGx0+SKUVZ+Ob6HMiPdED4jmqIF+jIzfJ+loM0S99OIHOPusEIhOB7qimel6UAdL6zHKRZ+nYCyYNAAG5RUjxXN0izvJ/lIM3StxNIPgRyq5Li2TYEsGLFhuK9z3qoBED7AhQ2YaFwcyc4iTXlfi7/WQ7SLH07geRDILcpKZb2K5ByvRUQ4TsBYLftbeHncevWszrnnnJ7Uh9ZDtIsfTuB5EMgP1RSPCvp4I3beX74BQB4/Rw27seIXt1ZU/1mEj9ZDtIsfTuB5EIg+CMlK89MMnAnxFFrfQQQOQea3I/FJ+3TCZaPm/rKcpBm6dsJJBcCgR8rKZ5uOmhj/OFntZ9eHKIfcdsS4ZndZuUDXPwkLstBmqVvJ5BcCARvV7LyNNNBG+NLtdY7EPFCblvTc66nCoTrQ4czXXsfC0Rnk3vf1PdCzT9fHwqBfqJk9ancTp6K8/zwwwDwdoO2v1FS7GWAd9AFyEDOBAKsjYBn6ifPb10AMFG54l5OIFymFjAuZwKhnylZPSBJf5Tq4SokuJjbloC+1pXVV3LxDrcwGciZQODnSoonJemKVwQX/+2fekO/5bYlglO6TXEJF+9wC5OBvAnkLiXFE5J2hcEG2VcrKV6WxE+WP5Sz9O1+pM89WgYzWRHgbiXF/kkG7mQbr946DwhnPxIL4VvR1ujosXNG7kviJ8tSa5a+/8Ivc422jls33X0KQwY7K/5KSfE4Hbm6++Va+zhCiitaU7YQop8B4DolRUPXfq77WQ7SLH07geTjCXKPkmK/fgbw1LavCi59zIMP9/bdZfFOm74enPBLG3azHKRZ+nYCyYdA7lVS7GNjIKdlI8tBmqVvJ5B8COQ+JcXeaQ1uG3azHKRZ+nYCyYdAfquk+DsbAzktG1kO0ix9O4HkQyD3Kyn2TGtw27Cb5SDN0rcTSD4E8jslxR42BnJaNrIcpFn6dgLJh0B+r6TYPa3BbcNuloM0S99OIPkQyINKisfYGMjOhmPABgM5m2qCm5SsTFtHbiNNZ8MxkIyBXAmEADZ3pdg1WSqulWPAPgO5EggAPqRkZYn9NJ1Fx0AyBvIlEKKHVbO6c7JUXCvHgH0G8iUQgC1KisX203QWHQPJGMibQMaVFIuSpeJaOQbsM5A3gfSUFEP203QWHQPJGOAKJOrh88bWVr43mxecy305aO1MPXxIGyIBqaYoaHEO4BgYEANcgWzZtGTJ9R8annWMzymQOBev3r4RiA7W5YVF2q8TVO/R4dx9x0DaDCyvh0dGBFcz/GhXwuoF4rc/BkBv1jlDoLM6snquDufuOwbSZsDz25cA0AjDT0dJsXwunFYgpXq7gkQhw9nvAfA6hOhzQHAnA+8gjgG7DCAcQDBxzB53C6r3KinO608gtfXPQoxus5uJs+YYyJ4B3Q/0OELtEyQGlfzw8whwbPYpuQgcA3YYIMAburJyiM4aSyCe31oGgF2dMXffMTBfGECgakdWtT8dWAKJk/Zq4ccB4fT5QoCL0zEwBwPsDQjZAlleu+QZEQ5dD0C5XjnohoVjQMsAFl6rGiuv0OK4v0EmDdlcGccJzmEcA9YZQHqTalQ/zbXLfoJMGjTYR5cbg8M5BgbEQLxDZ2WViTNjgUxUtWrhWxDhoyaOHNYxkDED2o+CM8WXSCCxobLfEgTYyjhp594xwGHgYiXFqRzgdExigcSGltXDVxcIhgFgZRLnro1jIGUGbgKAi/68sfpFSf30JZBJp+XgMwdCr3c8AbwLAHK9/U9Soly7+cMAAd2Aj5wIkFgYk9laEchU6kq1cBUAPQEL+DogeP78odVFOg8Z2PrnA2Dvj/8I4H4E+p8CRFeOylXftZWLdYHYCszZcQzkgQEnkDz0goshtww4geS2a1xgeWDACSQPveBiyC0DTiC57RoXWB4YcALJQy+4GHLLgBNIbrvGBZYHBpxA8tALLobcMuAEktuucYHlgQEnkDz0goshtww4geS2a1xgeWDACSQPveBiyC0DTiC57RoXWB4YcALJQy+4GHLLgBNIbrvGBZYHBpxA8tALLobcMuAEktuucYHlgQEnkDz0goshtwz8P0D8PpuQP7koAAAAAElFTkSuQmCC" vertex="1" parent="1">
          <mxGeometry x="472" y="73" width="70" height="70" as="geometry" />
        </mxCell>
        <mxCell id="9ZquulYYG6s8crrChnac-4" value="" style="shape=image;verticalLabelPosition=bottom;verticalAlign=top;imageAspect=0;aspect=fixed;image=data:image/png,iVBORw0KGgoAAAANSUhEUgAAAMgAAADICAYAAACtWK6eAAAAAXNSR0IArs4c6QAAEa1JREFUeF7tnX+QJGV5x79P33qgqZwhYUuTgB4FKfQ0Jxi9vYvezqz8EonEqggqOdiek4QCDULUoOFmrrf3wCNqIFdqBOFm9rjTBMsqDZhDPOqm5zzgjsiRVATCkcqJVCUgQY4gCOz2E2ddwgVntt9+e7Z33u3vVO1f8zzv8z6fpz813bMzPYIMj5M33vTqyZ89u1qn4tMhsgLAa2b+FmdYlqkkYEvgeQCPTv+p7pVF3vaBw1+5a8enzj5ou6DYJparEx9V6F9AcLTtGswjgTknoPiRQP6qOT76BZtaqQVZXWuc5AGXATjFpiBzSGCeCHw3Bq7aFfq3p6mfSpBS0LgYMf4mTQHGkkBfEfDwsSjwN5nuyViQcjDxBxrrzaYLM44E+pWAePLeZjB6i8n+jARZHUys8GLdY7IgY0jABQKxJ0O7gtG9SXtNFGRZECwejJfeCeCtSYvxeRJwiMC94ulIM6g8OdueEwUpB41PaIzPOtQ4t0oCRgRUcE1rzL/UWpDVn9486L1i0T2AHmVUkUEk4BgB8fT0ZlC5tdu2Z30FKVUnLoLoFx3rmdslAWMCqvhca9z/pKUgjZ0QlI2rMZAE3CNwTxT6v5dakGXBTYsH42eec69f7pgE0hEQ76e/2gw+8nSnrK6nWMOXbz5aFnkPpyvFaBJwj4B68Ttawdo7UglSDra8TeP4bvfa5Y5JIB0B8fTCZlD5cjpB1tXL6snOdKUYTQLuEVDoWCusBBTEvdlxxzkQoCA5QGYJdwlQEHdnx53nQICC5ACZJdwlQEHcnR13ngOBvhdEYh1pbqg0c2DR0xJlN9/pu1k8uS5eNPBvv/LqIx5++oknjpV4chWAVaI4B4JX9gqSQr8j6rWAeFc0XtlVqk6sguhKQFYBelav6mRdh4JkJdgl3zFB/jsGLtgV+t/ohmOmn/Y3RpdnRTbbQddeu1RrfAjARgCvy1oraz4FyUrQcUEU2N0K/XeaYhiu1QOBrDeNf1ncfkA/EoWV75rkZ6xlUiIxhoIkIrILcOMVRB7/mbfo2D3BmqfSdDlcm7hVoKelyWnHimqlOV5ppMmzrZWmxmyxFKRXJF+2jguCKOSSVjia+kYbI+tuPH7Km9orwBJjfIod0bif+m43VrWMN5UcSEGSGVlFuCCIeHpMM6gcsGmwVK1/ESIXmed6Z0bheVY39khfy3xXSZEUJImQ5fN9L4iiGY37I5btYaTWOCMGjO7+AWBSPB1M+o53t72krGXbUsc8CtJTnC8t1veCCBrRmF/J0n6p2ngMgsHkNfTuKKy0bz9r/TCvZV2CgvQW3eyr9bsgSW+1mrAq1Rr/bPK2r8kNEJLqlWqN/QCOS4rr9fN8Bek10Zn1+l8Q+U4rHH13lvZL1cYzJv88VOAbrdB/v22tcrD1KI0nf2SbnyWPgmShN0tu/wuCp17wJo+5Mzj/CRsE7XeXYm/qAbNc+c8oHP0ts9hfjirV6mcBcpNtfpY8CpKFnsOCtLeuwJpW6G+zQVCqNS4E8CXTXPF0VTOo3GUaf2hcqdbYDCDT9ZJN3V8w6vMvTPGzWLajTc5TYFsr9NckR/7/iKFg65LD48n2wf5G41xB68dy4JT7gqD9Ox3Gj3K1/kEV+ZpxQo8DKUiPgb64XL+fYr24T5t/Fg7XGpcLsCEtOoFMNMNR3zRvVXD9ry+OByIAbzbN6XUcBek10Zn1XBFkZrtro9Cvm6D4+YV5+4eRrjKJ7Rgj2PSCeFfcEZz32GxrvOvy618/5Q1cB8Gp1rV6kEhBegCx0xKOCdL+pNTXp3Tq898bX9vxTv3loL5SVS6D4n09QPaAeHJFMxjd2mmtkdqW02LE7bt2HtuDWpmWcEKQTB3OY7KLd35RyB5P8U0Aj0DjR1RwFkTeBeANc4ByPxT7fv7BxztVvB9CcDJU3w6g/dcXj74XpC8ocROFJUBBCjt6Nm5CgIKYUGJMYQlQkMKOno2bEKAgJpQYU1gCFKSwo2fjJgQoiAklxhSWAAUp7OjZuAkBCmJCiTGFJUBBCjt6Nm5CgIKYUGJMYQlQkMKOno2bEKAgJpQYU1gCFKSwo2fjJgQoiAklxhSWAAUp7OjZuAkBCmJCiTGFJUBBCjt6Nm5CgIKYUGJMYQnYCyLWvzJUWNhs3D0CKhq1wkrQaefiXjvcMQnkR4CC5MealRwkQEEcHBq3nB8BCpIfa1ZykAAFcXBo3HJ+BChIfqxZyUECFMTBoXHL+RGgIPmxZiUHCVAQB4fGLedHgILkx5qVHCRAQRwcGrecHwEKkh9rVnKQAAVxcGjccn4EKEh+rFnJQQIUxMGhccv5EaAg+bFmJQcJdBVkuDaxXlTLDvbELZNAKgKiOtbcUGl2SppFkHog4DcKU5FmsJMEJNYRCuLk6LjpPAhYCjKxXqAdv6ebx6ZZgwTyIkBB8iLNOk4SsBSE1yBOTpubTk2AgqRGxoQiEbAUhNcgRTpIityrpSA8xSryQVOk3ilIkabNXlMToCCpkTGhSAQsBeE1SJEOkiL3aikIr0GKfNAUqXcKUqRps9fUBChIamRMKBIBClKkabPX1AQsBeFFemrSTHCSgKUgvEh3ctrcdGoCFCQ1MiYUiQAFKdK02WtqApaC5HcN0t5g6q76JEE92dknWzHehgK7RbBbBbsRYxCKE0SwEsDbjBcxCzwIkd2qeocX624VWQHIEKBDEPy22RJzH2UpSH7XILNtcO7x2Fcor6uXHRPkIUAujsLR7Z26Hq5NfADQcwU4w57KTKbiNlX9aGtDZX+ntcq1+kaFXJa5Tg8WoCA9gNhxyC4JImhEY37FBEWp1vgSgAtNYrvE/G0U+hcl5b9j/cTrBlRvAfC7SbFz+bylIPmeYnW7q8Rcgsm6tkOvIF+LQv+cNP2WavVNgPxZmpzpWMXWaNw/N03ecK1xUIAlaXJ6GUtBeknzkLUcEeTB5//nVSfcefXZz6bBUA7qr9VYdgE4LkXeY+JpqRlUHkiRg1Ktfgogt6XJ6WWspSC8BkkagguCeJD37QxHv5XUS8dTyGr9EhW52jhX8bFo3N9kHH9IYKnW+CqAD9nkZs2hIFkJdsl3QJBJ8XSwGVSetEGwOti6zIsnf2CaK54e0wwqB0zjD40brtbXisgNNrlZcywF4TVIEvj+F0TvjsLKiqQ+Znu+VGv8K4A3GaxxfxT6ywziOoYsC25aPBg/81MAA7Zr2OZZCsJTrCTg/S6ICq5pjfmXJvXRE0FSvEvWrV6p1vg+gLdm2a9NLgWxoWaQ0++CAEj97tXL2zZ9h0mBba3QX2OArWPIULB1yeHx5EHb/Cx5FCQLvVlyHRDkwSj0j7dtvxzU36Cx3G+Sr8ATrdD/DZPYTjGra5tP8+DdapufJY+CZKHntiDQGKe1NvhWb6GWao1PA7jSHJ+8p9t/6ZPWGK7ld0r/8r1QkKTpWD7vwCsIALkxCkfPS9tiObj2SI0Pa3/O7M2mubanWaXqxCqItubjAr3dGwUxnXDKODcEaTelZ0dh5etp2ivXGjsUOClNznQl6FgrrKT6VYByrXGL9uLzX2k3OxNPQSzBJaW5I0g6SbJ+kDAKfeOf9ivXJjYqdF4/tEhBko50y+fdEmS6yc+I96orm8HZT3dqeaS6ZSgW/TigZ1ki+b80Bda0Qn9bt3VWX3Hjb3rPx5ug+v6stbLmU5CsBLvkOyhI+4x7H4B/guLeWKb+XeAdBejRAvmjNNcbhki3w8OtCu8hD1P3TR62+KD37OSpIvr7ULR//3K54TpzGtb3gsxp91ycBBIIUBAeIiQwCwEKwsODBCgIjwESsCPAVxA7bswqCAEKUpBBs007AhTEjhuzCkKAghRk0GzTjgAFsePGrIIQoCAFGTTbtCNAQey4MasgBChIQQbNNu0IUBA7bswqCAEKUpBBs007AhTEjhuzCkKAghRk0GzTjgAFsePGrIIQoCAFGTTbtCNAQey4MasgBChIQQbNNu0IWAliV4pZJLCwCBjfv2hhtc1uSMCMAAUx48SoghKgIAUdPNs2I0BBzDgxqqAEKEhBB8+2zQhQEDNOjCooAQpS0MGzbTMCFMSME6MKSoCCFHTwbNuMAAUx48SoghKgIAUdPNs2I0BBzDgxqqAEugoyXJtYL6rtXwHigwQWNAFRHWtuqDQ7NTmLIPP3u9ULehpsru8IWH3cfT5/2L3vCHJDC5qApSAT6wWa6veuFzRFNrdgCVCQBTtaNtYLApaC8BqkF/C5Rv8ToCD9PyPucB4JWArCa5B5nBlL50jAUhCeYuU4I5aaRwIUZB7hs3T/E6Ag/T8j7nAeCVgKwmuQeZwZS+dIgILkCJul3CNgKQgv0t0bNXdsQ4CC2FBjTmEIUJDCjJqN2hCwFIQX6TawmeMeAUtBeA3i3qi5YxsCFMSGGnMKQ8BSEJ5iFeYIKXijfS9Ie4Ouzkg92eng3u+HYA8UewHvEUE8pIohCFYAWNLDfp5q1xDBHoW3B4iPmq7RrgW8sYd1Mi1lKUh+1yCzbTBT53OcXF5XLzsmyE+g+FQ07l/XCU05uPE4jac2ATi9B+i2i7fo4mZw7kOd1ipVG38KwUYAR/SgVqYlKEgmfN2TnRJE5KvR2Ogfm6AoV+uXqMjVJrGdYkT10uZ45RqT/NL6iW1QPcckdq5iKMgckXVFEAVub4X+yWkwlKoTfw7Rz6fJmY5V+Xg0PvrXafKGa40dApyUJqeXsRSklzQPWcsVQcRb9DvdTnVmQ1OqNXYBeGcKfN+LQn91ivjp0JlTu/1p83oVT0F6RfJl67ggiEKCVjg6ZoOgVNvyXiD+B/Nc78woPO9m8/iXIufzNlMUxGZiBjlOCOLhD1uBn+Igf6nxclD/NY3lxwAGDHBMiqeDzaDypEHsL4UMB40zJca3bHKz5lCQrAS75LsgiHh6hO1B2267VKvvBeTtyQj17iistN8mtnrMyPgTq+SMSRQkI8Bu6Q4Icm8U+idmaX94feNqUVyStIYKrmmN+Zcmxc32fKnW2AfghCxr2ORSEBtqBjkOCPJoFPqvNWila0i5NvF3Cv1A0hoC+ftmOPrBpLgEQf4LwGuyrGGTS0FsqBnkOCAIYm/gTbuCNfcZtNMxpFRr/AeApQb5B6LQP8YgrmPI6mDrMi+e/IFtfpY8CpKF3iy5LgiiwPmt0L/BBkHagzaLjMO1xocFuN5mn1lzKEhWgl3y3RBE9rTC0ZU2CErVxlcgON84V3F9NO7/iXH8IYHDtYm7BNr+jFbuDwoyR8hdEKTdugLbWqG/Jg2GcrXuq0g9TU47VlQrzfFKI03ecK2xVQCjj8GkWdc0loKYkkoZ54og05LEekZrQ+UfTVosB9ceqfFh7f9/WD3Ee26wGVzwuEny8Lr6e8STb5vEzlUMBZkjsi4J8gsE8hXx4iubQeVANyTD1Ym1Imp1zXLomqry4db46OZudcpBfanG3l8CanVK1suRUpBe0jxkLfcEmd784wL5dgzs87w4AnAAkyjDw0pVORGCU3uGS3GbiO5DjLswgPZvAC6NY6/kAScq9AwAR/asVoaF+l6QDL0xlQQyE6AgmRFygYVMgIIs5Omyt8wEKEhmhFxgIROgIAt5uuwtMwEKkhkhF1jIBCjIQp4ue8tMgIJkRsgFFjIBCrKQp8veMhOgIJkRcoGFTMBKkJk73127kMGwNxJoE5gUef3usdGHO9GQbohGqluGYonvIkISWOAEHoxC//huPXYVZCjYuuTwePLgAofD9gpOQAVfbo35F6YWpJ0wX3eZKPjM2H6+BNZGod/1i2FdX0HaeyxXG59QwWfz3S+rkUBeBOSHA5OvGLr9ynMetXoFmX4VqTZ2QlDOa8usQwJ5ERDFJ5vj/udmqzfrK0g7cVkQLB6Mlz6X16ZZhwRyIvAvUei/JalWoiDtBUaqN7wllkU7+uUbYElN8XkSSCBwcxT6Z5pQMhLkxYXm8w7cJs0whgQSCHwfkGoUjm43JZVKkPaiw+sap3qC5SqyHND2S9Ry02KMI4GcCTwNwT2iui+G7lv83Avf3HHVBan+dfG/4n+AUPnsl1QAAAAASUVORK5CYII=" vertex="1" parent="1">
          <mxGeometry x="670" y="-34" width="75" height="75" as="geometry" />
        </mxCell>
        <mxCell id="9ZquulYYG6s8crrChnac-5" value="" style="shape=image;verticalLabelPosition=bottom;verticalAlign=top;imageAspect=0;aspect=fixed;image=data:image/png,iVBORw0KGgoAAAANSUhEUgAAAMgAAADICAYAAACtWK6eAAAAAXNSR0IArs4c6QAAEa1JREFUeF7tnX+QJGV5x79P33qgqZwhYUuTgB4FKfQ0Jxi9vYvezqz8EonEqggqOdiek4QCDULUoOFmrrf3wCNqIFdqBOFm9rjTBMsqDZhDPOqm5zzgjsiRVATCkcqJVCUgQY4gCOz2E2ddwgVntt9+e7Z33u3vVO1f8zzv8z6fpz813bMzPYIMj5M33vTqyZ89u1qn4tMhsgLAa2b+FmdYlqkkYEvgeQCPTv+p7pVF3vaBw1+5a8enzj5ou6DYJparEx9V6F9AcLTtGswjgTknoPiRQP6qOT76BZtaqQVZXWuc5AGXATjFpiBzSGCeCHw3Bq7aFfq3p6mfSpBS0LgYMf4mTQHGkkBfEfDwsSjwN5nuyViQcjDxBxrrzaYLM44E+pWAePLeZjB6i8n+jARZHUys8GLdY7IgY0jABQKxJ0O7gtG9SXtNFGRZECwejJfeCeCtSYvxeRJwiMC94ulIM6g8OdueEwUpB41PaIzPOtQ4t0oCRgRUcE1rzL/UWpDVn9486L1i0T2AHmVUkUEk4BgB8fT0ZlC5tdu2Z30FKVUnLoLoFx3rmdslAWMCqvhca9z/pKUgjZ0QlI2rMZAE3CNwTxT6v5dakGXBTYsH42eec69f7pgE0hEQ76e/2gw+8nSnrK6nWMOXbz5aFnkPpyvFaBJwj4B68Ttawdo7UglSDra8TeP4bvfa5Y5JIB0B8fTCZlD5cjpB1tXL6snOdKUYTQLuEVDoWCusBBTEvdlxxzkQoCA5QGYJdwlQEHdnx53nQICC5ACZJdwlQEHcnR13ngOBvhdEYh1pbqg0c2DR0xJlN9/pu1k8uS5eNPBvv/LqIx5++oknjpV4chWAVaI4B4JX9gqSQr8j6rWAeFc0XtlVqk6sguhKQFYBelav6mRdh4JkJdgl3zFB/jsGLtgV+t/ohmOmn/Y3RpdnRTbbQddeu1RrfAjARgCvy1oraz4FyUrQcUEU2N0K/XeaYhiu1QOBrDeNf1ncfkA/EoWV75rkZ6xlUiIxhoIkIrILcOMVRB7/mbfo2D3BmqfSdDlcm7hVoKelyWnHimqlOV5ppMmzrZWmxmyxFKRXJF+2jguCKOSSVjia+kYbI+tuPH7Km9orwBJjfIod0bif+m43VrWMN5UcSEGSGVlFuCCIeHpMM6gcsGmwVK1/ESIXmed6Z0bheVY39khfy3xXSZEUJImQ5fN9L4iiGY37I5btYaTWOCMGjO7+AWBSPB1M+o53t72krGXbUsc8CtJTnC8t1veCCBrRmF/J0n6p2ngMgsHkNfTuKKy0bz9r/TCvZV2CgvQW3eyr9bsgSW+1mrAq1Rr/bPK2r8kNEJLqlWqN/QCOS4rr9fN8Bek10Zn1+l8Q+U4rHH13lvZL1cYzJv88VOAbrdB/v22tcrD1KI0nf2SbnyWPgmShN0tu/wuCp17wJo+5Mzj/CRsE7XeXYm/qAbNc+c8oHP0ts9hfjirV6mcBcpNtfpY8CpKFnsOCtLeuwJpW6G+zQVCqNS4E8CXTXPF0VTOo3GUaf2hcqdbYDCDT9ZJN3V8w6vMvTPGzWLajTc5TYFsr9NckR/7/iKFg65LD48n2wf5G41xB68dy4JT7gqD9Ox3Gj3K1/kEV+ZpxQo8DKUiPgb64XL+fYr24T5t/Fg7XGpcLsCEtOoFMNMNR3zRvVXD9ry+OByIAbzbN6XUcBek10Zn1XBFkZrtro9Cvm6D4+YV5+4eRrjKJ7Rgj2PSCeFfcEZz32GxrvOvy618/5Q1cB8Gp1rV6kEhBegCx0xKOCdL+pNTXp3Tq898bX9vxTv3loL5SVS6D4n09QPaAeHJFMxjd2mmtkdqW02LE7bt2HtuDWpmWcEKQTB3OY7KLd35RyB5P8U0Aj0DjR1RwFkTeBeANc4ByPxT7fv7BxztVvB9CcDJU3w6g/dcXj74XpC8ocROFJUBBCjt6Nm5CgIKYUGJMYQlQkMKOno2bEKAgJpQYU1gCFKSwo2fjJgQoiAklxhSWAAUp7OjZuAkBCmJCiTGFJUBBCjt6Nm5CgIKYUGJMYQlQkMKOno2bEKAgJpQYU1gCFKSwo2fjJgQoiAklxhSWAAUp7OjZuAkBCmJCiTGFJUBBCjt6Nm5CgIKYUGJMYQnYCyLWvzJUWNhs3D0CKhq1wkrQaefiXjvcMQnkR4CC5MealRwkQEEcHBq3nB8BCpIfa1ZykAAFcXBo3HJ+BChIfqxZyUECFMTBoXHL+RGgIPmxZiUHCVAQB4fGLedHgILkx5qVHCRAQRwcGrecHwEKkh9rVnKQAAVxcGjccn4EKEh+rFnJQQIUxMGhccv5EaAg+bFmJQcJdBVkuDaxXlTLDvbELZNAKgKiOtbcUGl2SppFkHog4DcKU5FmsJMEJNYRCuLk6LjpPAhYCjKxXqAdv6ebx6ZZgwTyIkBB8iLNOk4SsBSE1yBOTpubTk2AgqRGxoQiEbAUhNcgRTpIityrpSA8xSryQVOk3ilIkabNXlMToCCpkTGhSAQsBeE1SJEOkiL3aikIr0GKfNAUqXcKUqRps9fUBChIamRMKBIBClKkabPX1AQsBeFFemrSTHCSgKUgvEh3ctrcdGoCFCQ1MiYUiQAFKdK02WtqApaC5HcN0t5g6q76JEE92dknWzHehgK7RbBbBbsRYxCKE0SwEsDbjBcxCzwIkd2qeocX624VWQHIEKBDEPy22RJzH2UpSH7XILNtcO7x2Fcor6uXHRPkIUAujsLR7Z26Hq5NfADQcwU4w57KTKbiNlX9aGtDZX+ntcq1+kaFXJa5Tg8WoCA9gNhxyC4JImhEY37FBEWp1vgSgAtNYrvE/G0U+hcl5b9j/cTrBlRvAfC7SbFz+bylIPmeYnW7q8Rcgsm6tkOvIF+LQv+cNP2WavVNgPxZmpzpWMXWaNw/N03ecK1xUIAlaXJ6GUtBeknzkLUcEeTB5//nVSfcefXZz6bBUA7qr9VYdgE4LkXeY+JpqRlUHkiRg1Ktfgogt6XJ6WWspSC8BkkagguCeJD37QxHv5XUS8dTyGr9EhW52jhX8bFo3N9kHH9IYKnW+CqAD9nkZs2hIFkJdsl3QJBJ8XSwGVSetEGwOti6zIsnf2CaK54e0wwqB0zjD40brtbXisgNNrlZcywF4TVIEvj+F0TvjsLKiqQ+Znu+VGv8K4A3GaxxfxT6ywziOoYsC25aPBg/81MAA7Zr2OZZCsJTrCTg/S6ICq5pjfmXJvXRE0FSvEvWrV6p1vg+gLdm2a9NLgWxoWaQ0++CAEj97tXL2zZ9h0mBba3QX2OArWPIULB1yeHx5EHb/Cx5FCQLvVlyHRDkwSj0j7dtvxzU36Cx3G+Sr8ATrdD/DZPYTjGra5tP8+DdapufJY+CZKHntiDQGKe1NvhWb6GWao1PA7jSHJ+8p9t/6ZPWGK7ld0r/8r1QkKTpWD7vwCsIALkxCkfPS9tiObj2SI0Pa3/O7M2mubanWaXqxCqItubjAr3dGwUxnXDKODcEaTelZ0dh5etp2ivXGjsUOClNznQl6FgrrKT6VYByrXGL9uLzX2k3OxNPQSzBJaW5I0g6SbJ+kDAKfeOf9ivXJjYqdF4/tEhBko50y+fdEmS6yc+I96orm8HZT3dqeaS6ZSgW/TigZ1ki+b80Bda0Qn9bt3VWX3Hjb3rPx5ug+v6stbLmU5CsBLvkOyhI+4x7H4B/guLeWKb+XeAdBejRAvmjNNcbhki3w8OtCu8hD1P3TR62+KD37OSpIvr7ULR//3K54TpzGtb3gsxp91ycBBIIUBAeIiQwCwEKwsODBCgIjwESsCPAVxA7bswqCAEKUpBBs007AhTEjhuzCkKAghRk0GzTjgAFsePGrIIQoCAFGTTbtCNAQey4MasgBChIQQbNNu0IUBA7bswqCAEKUpBBs007AhTEjhuzCkKAghRk0GzTjgAFsePGrIIQoCAFGTTbtCNAQey4MasgBChIQQbNNu0IWAliV4pZJLCwCBjfv2hhtc1uSMCMAAUx48SoghKgIAUdPNs2I0BBzDgxqqAEKEhBB8+2zQhQEDNOjCooAQpS0MGzbTMCFMSME6MKSoCCFHTwbNuMAAUx48SoghKgIAUdPNs2I0BBzDgxqqAEugoyXJtYL6rtXwHigwQWNAFRHWtuqDQ7NTmLIPP3u9ULehpsru8IWH3cfT5/2L3vCHJDC5qApSAT6wWa6veuFzRFNrdgCVCQBTtaNtYLApaC8BqkF/C5Rv8ToCD9PyPucB4JWArCa5B5nBlL50jAUhCeYuU4I5aaRwIUZB7hs3T/E6Ag/T8j7nAeCVgKwmuQeZwZS+dIgILkCJul3CNgKQgv0t0bNXdsQ4CC2FBjTmEIUJDCjJqN2hCwFIQX6TawmeMeAUtBeA3i3qi5YxsCFMSGGnMKQ8BSEJ5iFeYIKXijfS9Ie4Ouzkg92eng3u+HYA8UewHvEUE8pIohCFYAWNLDfp5q1xDBHoW3B4iPmq7RrgW8sYd1Mi1lKUh+1yCzbTBT53OcXF5XLzsmyE+g+FQ07l/XCU05uPE4jac2ATi9B+i2i7fo4mZw7kOd1ipVG38KwUYAR/SgVqYlKEgmfN2TnRJE5KvR2Ogfm6AoV+uXqMjVJrGdYkT10uZ45RqT/NL6iW1QPcckdq5iKMgckXVFEAVub4X+yWkwlKoTfw7Rz6fJmY5V+Xg0PvrXafKGa40dApyUJqeXsRSklzQPWcsVQcRb9DvdTnVmQ1OqNXYBeGcKfN+LQn91ivjp0JlTu/1p83oVT0F6RfJl67ggiEKCVjg6ZoOgVNvyXiD+B/Nc78woPO9m8/iXIufzNlMUxGZiBjlOCOLhD1uBn+Igf6nxclD/NY3lxwAGDHBMiqeDzaDypEHsL4UMB40zJca3bHKz5lCQrAS75LsgiHh6hO1B2267VKvvBeTtyQj17iistN8mtnrMyPgTq+SMSRQkI8Bu6Q4Icm8U+idmaX94feNqUVyStIYKrmmN+Zcmxc32fKnW2AfghCxr2ORSEBtqBjkOCPJoFPqvNWila0i5NvF3Cv1A0hoC+ftmOPrBpLgEQf4LwGuyrGGTS0FsqBnkOCAIYm/gTbuCNfcZtNMxpFRr/AeApQb5B6LQP8YgrmPI6mDrMi+e/IFtfpY8CpKF3iy5LgiiwPmt0L/BBkHagzaLjMO1xocFuN5mn1lzKEhWgl3y3RBE9rTC0ZU2CErVxlcgON84V3F9NO7/iXH8IYHDtYm7BNr+jFbuDwoyR8hdEKTdugLbWqG/Jg2GcrXuq0g9TU47VlQrzfFKI03ecK2xVQCjj8GkWdc0loKYkkoZ54og05LEekZrQ+UfTVosB9ceqfFh7f9/WD3Ee26wGVzwuEny8Lr6e8STb5vEzlUMBZkjsi4J8gsE8hXx4iubQeVANyTD1Ym1Imp1zXLomqry4db46OZudcpBfanG3l8CanVK1suRUpBe0jxkLfcEmd784wL5dgzs87w4AnAAkyjDw0pVORGCU3uGS3GbiO5DjLswgPZvAC6NY6/kAScq9AwAR/asVoaF+l6QDL0xlQQyE6AgmRFygYVMgIIs5Omyt8wEKEhmhFxgIROgIAt5uuwtMwEKkhkhF1jIBCjIQp4ue8tMgIJkRsgFFjIBCrKQp8veMhOgIJkRcoGFTMBKkJk73127kMGwNxJoE5gUef3usdGHO9GQbohGqluGYonvIkISWOAEHoxC//huPXYVZCjYuuTwePLgAofD9gpOQAVfbo35F6YWpJ0wX3eZKPjM2H6+BNZGod/1i2FdX0HaeyxXG59QwWfz3S+rkUBeBOSHA5OvGLr9ynMetXoFmX4VqTZ2QlDOa8usQwJ5ERDFJ5vj/udmqzfrK0g7cVkQLB6Mlz6X16ZZhwRyIvAvUei/JalWoiDtBUaqN7wllkU7+uUbYElN8XkSSCBwcxT6Z5pQMhLkxYXm8w7cJs0whgQSCHwfkGoUjm43JZVKkPaiw+sap3qC5SqyHND2S9Ry02KMI4GcCTwNwT2iui+G7lv83Avf3HHVBan+dfG/4n+AUPnsl1QAAAAASUVORK5CYII=" vertex="1" parent="1">
          <mxGeometry x="670" y="71" width="75" height="75" as="geometry" />
        </mxCell>
        <mxCell id="9ZquulYYG6s8crrChnac-6" value="" style="shape=image;verticalLabelPosition=bottom;verticalAlign=top;imageAspect=0;aspect=fixed;image=data:image/png,iVBORw0KGgoAAAANSUhEUgAAAMgAAADICAYAAACtWK6eAAAAAXNSR0IArs4c6QAAEa1JREFUeF7tnX+QJGV5x79P33qgqZwhYUuTgB4FKfQ0Jxi9vYvezqz8EonEqggqOdiek4QCDULUoOFmrrf3wCNqIFdqBOFm9rjTBMsqDZhDPOqm5zzgjsiRVATCkcqJVCUgQY4gCOz2E2ddwgVntt9+e7Z33u3vVO1f8zzv8z6fpz813bMzPYIMj5M33vTqyZ89u1qn4tMhsgLAa2b+FmdYlqkkYEvgeQCPTv+p7pVF3vaBw1+5a8enzj5ou6DYJparEx9V6F9AcLTtGswjgTknoPiRQP6qOT76BZtaqQVZXWuc5AGXATjFpiBzSGCeCHw3Bq7aFfq3p6mfSpBS0LgYMf4mTQHGkkBfEfDwsSjwN5nuyViQcjDxBxrrzaYLM44E+pWAePLeZjB6i8n+jARZHUys8GLdY7IgY0jABQKxJ0O7gtG9SXtNFGRZECwejJfeCeCtSYvxeRJwiMC94ulIM6g8OdueEwUpB41PaIzPOtQ4t0oCRgRUcE1rzL/UWpDVn9486L1i0T2AHmVUkUEk4BgB8fT0ZlC5tdu2Z30FKVUnLoLoFx3rmdslAWMCqvhca9z/pKUgjZ0QlI2rMZAE3CNwTxT6v5dakGXBTYsH42eec69f7pgE0hEQ76e/2gw+8nSnrK6nWMOXbz5aFnkPpyvFaBJwj4B68Ttawdo7UglSDra8TeP4bvfa5Y5JIB0B8fTCZlD5cjpB1tXL6snOdKUYTQLuEVDoWCusBBTEvdlxxzkQoCA5QGYJdwlQEHdnx53nQICC5ACZJdwlQEHcnR13ngOBvhdEYh1pbqg0c2DR0xJlN9/pu1k8uS5eNPBvv/LqIx5++oknjpV4chWAVaI4B4JX9gqSQr8j6rWAeFc0XtlVqk6sguhKQFYBelav6mRdh4JkJdgl3zFB/jsGLtgV+t/ohmOmn/Y3RpdnRTbbQddeu1RrfAjARgCvy1oraz4FyUrQcUEU2N0K/XeaYhiu1QOBrDeNf1ncfkA/EoWV75rkZ6xlUiIxhoIkIrILcOMVRB7/mbfo2D3BmqfSdDlcm7hVoKelyWnHimqlOV5ppMmzrZWmxmyxFKRXJF+2jguCKOSSVjia+kYbI+tuPH7Km9orwBJjfIod0bif+m43VrWMN5UcSEGSGVlFuCCIeHpMM6gcsGmwVK1/ESIXmed6Z0bheVY39khfy3xXSZEUJImQ5fN9L4iiGY37I5btYaTWOCMGjO7+AWBSPB1M+o53t72krGXbUsc8CtJTnC8t1veCCBrRmF/J0n6p2ngMgsHkNfTuKKy0bz9r/TCvZV2CgvQW3eyr9bsgSW+1mrAq1Rr/bPK2r8kNEJLqlWqN/QCOS4rr9fN8Bek10Zn1+l8Q+U4rHH13lvZL1cYzJv88VOAbrdB/v22tcrD1KI0nf2SbnyWPgmShN0tu/wuCp17wJo+5Mzj/CRsE7XeXYm/qAbNc+c8oHP0ts9hfjirV6mcBcpNtfpY8CpKFnsOCtLeuwJpW6G+zQVCqNS4E8CXTXPF0VTOo3GUaf2hcqdbYDCDT9ZJN3V8w6vMvTPGzWLajTc5TYFsr9NckR/7/iKFg65LD48n2wf5G41xB68dy4JT7gqD9Ox3Gj3K1/kEV+ZpxQo8DKUiPgb64XL+fYr24T5t/Fg7XGpcLsCEtOoFMNMNR3zRvVXD9ry+OByIAbzbN6XUcBek10Zn1XBFkZrtro9Cvm6D4+YV5+4eRrjKJ7Rgj2PSCeFfcEZz32GxrvOvy618/5Q1cB8Gp1rV6kEhBegCx0xKOCdL+pNTXp3Tq898bX9vxTv3loL5SVS6D4n09QPaAeHJFMxjd2mmtkdqW02LE7bt2HtuDWpmWcEKQTB3OY7KLd35RyB5P8U0Aj0DjR1RwFkTeBeANc4ByPxT7fv7BxztVvB9CcDJU3w6g/dcXj74XpC8ocROFJUBBCjt6Nm5CgIKYUGJMYQlQkMKOno2bEKAgJpQYU1gCFKSwo2fjJgQoiAklxhSWAAUp7OjZuAkBCmJCiTGFJUBBCjt6Nm5CgIKYUGJMYQlQkMKOno2bEKAgJpQYU1gCFKSwo2fjJgQoiAklxhSWAAUp7OjZuAkBCmJCiTGFJUBBCjt6Nm5CgIKYUGJMYQnYCyLWvzJUWNhs3D0CKhq1wkrQaefiXjvcMQnkR4CC5MealRwkQEEcHBq3nB8BCpIfa1ZykAAFcXBo3HJ+BChIfqxZyUECFMTBoXHL+RGgIPmxZiUHCVAQB4fGLedHgILkx5qVHCRAQRwcGrecHwEKkh9rVnKQAAVxcGjccn4EKEh+rFnJQQIUxMGhccv5EaAg+bFmJQcJdBVkuDaxXlTLDvbELZNAKgKiOtbcUGl2SppFkHog4DcKU5FmsJMEJNYRCuLk6LjpPAhYCjKxXqAdv6ebx6ZZgwTyIkBB8iLNOk4SsBSE1yBOTpubTk2AgqRGxoQiEbAUhNcgRTpIityrpSA8xSryQVOk3ilIkabNXlMToCCpkTGhSAQsBeE1SJEOkiL3aikIr0GKfNAUqXcKUqRps9fUBChIamRMKBIBClKkabPX1AQsBeFFemrSTHCSgKUgvEh3ctrcdGoCFCQ1MiYUiQAFKdK02WtqApaC5HcN0t5g6q76JEE92dknWzHehgK7RbBbBbsRYxCKE0SwEsDbjBcxCzwIkd2qeocX624VWQHIEKBDEPy22RJzH2UpSH7XILNtcO7x2Fcor6uXHRPkIUAujsLR7Z26Hq5NfADQcwU4w57KTKbiNlX9aGtDZX+ntcq1+kaFXJa5Tg8WoCA9gNhxyC4JImhEY37FBEWp1vgSgAtNYrvE/G0U+hcl5b9j/cTrBlRvAfC7SbFz+bylIPmeYnW7q8Rcgsm6tkOvIF+LQv+cNP2WavVNgPxZmpzpWMXWaNw/N03ecK1xUIAlaXJ6GUtBeknzkLUcEeTB5//nVSfcefXZz6bBUA7qr9VYdgE4LkXeY+JpqRlUHkiRg1Ktfgogt6XJ6WWspSC8BkkagguCeJD37QxHv5XUS8dTyGr9EhW52jhX8bFo3N9kHH9IYKnW+CqAD9nkZs2hIFkJdsl3QJBJ8XSwGVSetEGwOti6zIsnf2CaK54e0wwqB0zjD40brtbXisgNNrlZcywF4TVIEvj+F0TvjsLKiqQ+Znu+VGv8K4A3GaxxfxT6ywziOoYsC25aPBg/81MAA7Zr2OZZCsJTrCTg/S6ICq5pjfmXJvXRE0FSvEvWrV6p1vg+gLdm2a9NLgWxoWaQ0++CAEj97tXL2zZ9h0mBba3QX2OArWPIULB1yeHx5EHb/Cx5FCQLvVlyHRDkwSj0j7dtvxzU36Cx3G+Sr8ATrdD/DZPYTjGra5tP8+DdapufJY+CZKHntiDQGKe1NvhWb6GWao1PA7jSHJ+8p9t/6ZPWGK7ld0r/8r1QkKTpWD7vwCsIALkxCkfPS9tiObj2SI0Pa3/O7M2mubanWaXqxCqItubjAr3dGwUxnXDKODcEaTelZ0dh5etp2ivXGjsUOClNznQl6FgrrKT6VYByrXGL9uLzX2k3OxNPQSzBJaW5I0g6SbJ+kDAKfeOf9ivXJjYqdF4/tEhBko50y+fdEmS6yc+I96orm8HZT3dqeaS6ZSgW/TigZ1ki+b80Bda0Qn9bt3VWX3Hjb3rPx5ug+v6stbLmU5CsBLvkOyhI+4x7H4B/guLeWKb+XeAdBejRAvmjNNcbhki3w8OtCu8hD1P3TR62+KD37OSpIvr7ULR//3K54TpzGtb3gsxp91ycBBIIUBAeIiQwCwEKwsODBCgIjwESsCPAVxA7bswqCAEKUpBBs007AhTEjhuzCkKAghRk0GzTjgAFsePGrIIQoCAFGTTbtCNAQey4MasgBChIQQbNNu0IUBA7bswqCAEKUpBBs007AhTEjhuzCkKAghRk0GzTjgAFsePGrIIQoCAFGTTbtCNAQey4MasgBChIQQbNNu0IWAliV4pZJLCwCBjfv2hhtc1uSMCMAAUx48SoghKgIAUdPNs2I0BBzDgxqqAEKEhBB8+2zQhQEDNOjCooAQpS0MGzbTMCFMSME6MKSoCCFHTwbNuMAAUx48SoghKgIAUdPNs2I0BBzDgxqqAEugoyXJtYL6rtXwHigwQWNAFRHWtuqDQ7NTmLIPP3u9ULehpsru8IWH3cfT5/2L3vCHJDC5qApSAT6wWa6veuFzRFNrdgCVCQBTtaNtYLApaC8BqkF/C5Rv8ToCD9PyPucB4JWArCa5B5nBlL50jAUhCeYuU4I5aaRwIUZB7hs3T/E6Ag/T8j7nAeCVgKwmuQeZwZS+dIgILkCJul3CNgKQgv0t0bNXdsQ4CC2FBjTmEIUJDCjJqN2hCwFIQX6TawmeMeAUtBeA3i3qi5YxsCFMSGGnMKQ8BSEJ5iFeYIKXijfS9Ie4Ouzkg92eng3u+HYA8UewHvEUE8pIohCFYAWNLDfp5q1xDBHoW3B4iPmq7RrgW8sYd1Mi1lKUh+1yCzbTBT53OcXF5XLzsmyE+g+FQ07l/XCU05uPE4jac2ATi9B+i2i7fo4mZw7kOd1ipVG38KwUYAR/SgVqYlKEgmfN2TnRJE5KvR2Ogfm6AoV+uXqMjVJrGdYkT10uZ45RqT/NL6iW1QPcckdq5iKMgckXVFEAVub4X+yWkwlKoTfw7Rz6fJmY5V+Xg0PvrXafKGa40dApyUJqeXsRSklzQPWcsVQcRb9DvdTnVmQ1OqNXYBeGcKfN+LQn91ivjp0JlTu/1p83oVT0F6RfJl67ggiEKCVjg6ZoOgVNvyXiD+B/Nc78woPO9m8/iXIufzNlMUxGZiBjlOCOLhD1uBn+Igf6nxclD/NY3lxwAGDHBMiqeDzaDypEHsL4UMB40zJca3bHKz5lCQrAS75LsgiHh6hO1B2267VKvvBeTtyQj17iistN8mtnrMyPgTq+SMSRQkI8Bu6Q4Icm8U+idmaX94feNqUVyStIYKrmmN+Zcmxc32fKnW2AfghCxr2ORSEBtqBjkOCPJoFPqvNWila0i5NvF3Cv1A0hoC+ftmOPrBpLgEQf4LwGuyrGGTS0FsqBnkOCAIYm/gTbuCNfcZtNMxpFRr/AeApQb5B6LQP8YgrmPI6mDrMi+e/IFtfpY8CpKF3iy5LgiiwPmt0L/BBkHagzaLjMO1xocFuN5mn1lzKEhWgl3y3RBE9rTC0ZU2CErVxlcgON84V3F9NO7/iXH8IYHDtYm7BNr+jFbuDwoyR8hdEKTdugLbWqG/Jg2GcrXuq0g9TU47VlQrzfFKI03ecK2xVQCjj8GkWdc0loKYkkoZ54og05LEekZrQ+UfTVosB9ceqfFh7f9/WD3Ee26wGVzwuEny8Lr6e8STb5vEzlUMBZkjsi4J8gsE8hXx4iubQeVANyTD1Ym1Imp1zXLomqry4db46OZudcpBfanG3l8CanVK1suRUpBe0jxkLfcEmd784wL5dgzs87w4AnAAkyjDw0pVORGCU3uGS3GbiO5DjLswgPZvAC6NY6/kAScq9AwAR/asVoaF+l6QDL0xlQQyE6AgmRFygYVMgIIs5Omyt8wEKEhmhFxgIROgIAt5uuwtMwEKkhkhF1jIBCjIQp4ue8tMgIJkRsgFFjIBCrKQp8veMhOgIJkRcoGFTMBKkJk73127kMGwNxJoE5gUef3usdGHO9GQbohGqluGYonvIkISWOAEHoxC//huPXYVZCjYuuTwePLgAofD9gpOQAVfbo35F6YWpJ0wX3eZKPjM2H6+BNZGod/1i2FdX0HaeyxXG59QwWfz3S+rkUBeBOSHA5OvGLr9ynMetXoFmX4VqTZ2QlDOa8usQwJ5ERDFJ5vj/udmqzfrK0g7cVkQLB6Mlz6X16ZZhwRyIvAvUei/JalWoiDtBUaqN7wllkU7+uUbYElN8XkSSCBwcxT6Z5pQMhLkxYXm8w7cJs0whgQSCHwfkGoUjm43JZVKkPaiw+sap3qC5SqyHND2S9Ry02KMI4GcCTwNwT2iui+G7lv83Avf3HHVBan+dfG/4n+AUPnsl1QAAAAASUVORK5CYII=" vertex="1" parent="1">
          <mxGeometry x="670" y="181" width="75" height="75" as="geometry" />
        </mxCell>
        <mxCell id="9ZquulYYG6s8crrChnac-8" value="" style="shape=image;verticalLabelPosition=bottom;verticalAlign=top;imageAspect=0;aspect=fixed;image=data:image/png,iVBORw0KGgoAAAANSUhEUgAAARkAAADICAYAAADcBZUpAAAAAXNSR0IArs4c6QAAG6RJREFUeF7tnXmYHGW1xt9TPQkQUARlFS+iaDTIZiJhm64OsopwBUwUQtLVEQhKxIedm3QNzVQTooBXUdAEkq4JAXVAFEEhEUhXJ0BYAkjMVRYFuVw0IMuDYQkzXedaQzJkm5mu6urqr6pPPU/+mu875z2/882bmlq+IgQ4MoVrtkF1q68wtP8EsAeA7db7FyCiTBECDSHwOgjPgfEcA89p4AeHp1L3LipMfqkh2SToZgmQHy56R9cxcHkSiI4DeBs/c2WsEFCHAN3N7N7HbtvsJTMn/V0dXclUUpPJpGfMO5hImwbCycnEIFW1KIEXmfk6MZvGdn9Ik0mbtkVAvrEyJLoQaCqBF5nRUSkac5uqIqHJBzUZPV+6GkTfTmjtUpYQ2IAAM19aKeYKgiVcAgOajG7aTwPYM9x0Ek0IqE1AjCb8/mzWZHSz9A+Adgo/nUQUAjEgQDjF6TR+FgOlsZC4icnopr0QwJGxUC8ihUCjCBBPcDpzNzcqfCvF3cBk0qZ9BQHntxIAqVUIDESAmI4rF7N3CKH6CPSbTN9tak27r75wMlsIJIrA7Y5lHJ+oippQTL/J6Hn7JnkOpgkdkJRKE5Czmfrb02cyfU/yMv+u/nASQQgkjoCczdTZ0j6TSeft64nwjTpjyXQhkEgCGjBmsWUsT2RxERT13pmMPBMTAWpJEVcCzHRxpZj9blz1N1s3tRcWjNKqvSubLUTyCwGFCdztWMYRCutTWhrpHV3fBvPVDVT5DoAyQLdXUV3elhr2yhqsefWBwmmvNjCnhE4ogYPO6d5qqxFvb9/D+HBKc7dnomNAOBqMfRpZsmMZQ77n18j8cY5NumnPBnBGA4p4lhlXcdXtXnL5lJcbEF9CCoF+Aoea88amQGcDdEojsFCK9ygXcs81InbSY3om83sAh4dZKBGuqvauuWrJzKmyV0eYYCXWkATS+fknksbngfngIQf7GEDM48rFXNnHFBm6loBnMn8B8ImQiCxnF+dWLjMqIcWTMEIgEIFMh/1jZpwVaPJmJhE4V7ZydljxWimOZzIcUsFzHMuYGlIsCSME6iagd5TGg6m77kAA5O3s4BRDMRkGLaxY2aODy5CZQqAxBA65cO4H2rZIvVFvdDGZ4ATDMJlnHcsI68+t4JXITCEwAIFMvpRhosX1ABKTCU6vbpNh5mMrxZy8khC8BzIzAgLpvH0eEa4MmkpMJig5oC6T8e4ilTsN2RoiOH+ZGSEB3bQfATA6SEoxmSDU3ptTj8k861bXHCK3qYPDl5nREtBN23sezHsuzPchJuMbWf+EwCbDjGmVonFN8NQyUwhETyDo2YyYTPBeBTWZt99N9e4mrwYEBy8zm0MgbXZdTuCL/WYXk/FL7P3xAU2GbnWs7EnB08pMIdAcAkHvNInJBO9XIJMh0OllK3t98LQyUwg0j4Bu2t7rLjv7USAm44fWhmMDmUwV7oFLrSkPBk8rM4VA8wjopu09cnGMHwViMn5ohWAylEp9qlyY9EzwtDJTCDSPQDpvLyDCRD8KxGT80ArBZN5N9X5YLvoGhy4zm0sgyOeXxWSC9yzQn0uygU9w4DKz+QTS+VKBiC4ZQskqAM8T4Xl28RKDX5LvZAfrnZhMMG4yK8YENmMyv/n3n09PM7QnSauuGL51asWiCya/GeMSlZIuJqNUO0RMFATWM5k5GjBHvkTQWOpiMo3lK9EVJNBnMhpWyreuo2mOmEw0nCWLQgQyhQW7lQunvqCQpERLEZNJdHulOCHQfAJiMs3vgSgQAokmICaT6PZKcUKg+QTEZJrfA1EgBBJNQEwm0e2V4oRA8wmIyTS/B6JACCSagJhMotsrxQmB5hMQk2l+D0SBEEg0ATGZRLdXiouCgLfbXl+etr8tLRcKvVHkjFMOMZk4dUu0KkGgffrsXVLa8JFMGA/QeAA7rBX2LsGdgVSPXS5M/acSYhUQISajQBNEgnoERp8xe9gHdt1qJLnuyKqLzxBoJDQeCcZIANsOofgFAl0qW9S+R0lMRr31LYqaRKB9etc+WhtOBfPhQJ+ZjKhHimx0JSZTz/qRuQkjkM6XTiSiqwF8NMzSxGjkTCbM9SSxYkhgnDl/rEvud8A4uVHyW91o5M+lRq0sidtUAu2FBaOot2cCQRsF4lEA9mqmoFY2GjGZZq48yR06gb6Pt0H7Foi9uz5KHcy4plI0piklKgIxYjIRQJYU0RCocYPwaMQMmIXuIHavGujHLvO7baStctveXFUunLW6yWJDSS8mEwpGCdJsAnq+q1vFs5c6uSwHURdp2p1x/s6ZmEydq0CmN5+AbtovrfdAXPMFNUIBY4pTNEqNCN3omGIyjSYs8RtKIG12LSPw2IYmUSQ4QTunbE3+gSJyapYhJlMzKhmoGoF4XIMJl1oc71KJyYS7BiRaRATG5eeOdKntAYC3iyilImnob9Wetv2Xzpr4miKChpQhJjMkIhmgIgE9b18LwjdV1NZ4TXyeY+W+3/g84WQQkwmHo0SJkID38uI2O23xHIBdI0yrUqoVO+49Yv+bJ0yoqiRqIC1iMnHokmjcgEA6P/8wIveeVsbiEr66pNP4ZRwYiMnEoUuicSOTKRWI6JKWxkK43Ok0pseBgZhMHLokGjcgoJv2IwBGtziWRY5lHBUHBmIyceiSaOwn0D79hl20VPVFQYJXHMv4SBw4iMnEoUuisZ+A3lEaD6ZuQQJUUzRyaSH7lOosxGRU75Dok+sxA6wBZhxVKRqLVF8iYjKqd0j0bXg9JpkvQgbqMjOfVCnmbg00OcJJYjIRwpZU9RPQTfuPzd6Aqv4qwonAQLZiGfPDida4KGIyjWMrkRtAQDdtbkDYmIaksxwre63q4sVkVO+Q6Osn4G2pqVV7VwqSfgIXOZbxPdV5iMmo3iHR109A7ygdASblL3RG2LJLHMvojDBfoFRiMoGwyaRmEEjn7eOJcFszcquYk0D/Vbays1TUtr4mMRnVOyT6+glkzNLXGfQzQfIeAWacXykaA+4XrAonMRlVOiE6hiSQNrumEHjukANbZQDz2U4x9yPVyxWTUb1Dom+9M5muaQxW/pcqqpYR0ZnlzuzsqPIFzSMmE5SczIucgG7aFwL4buSJFU3I4G9UrNw8ReX1yxKTUb1Doq+fQCvu6TtY+wk0qWxlF6i+RMRkVO+Q6BOTGWANMPC1imUo/7KomIz8EseGgJzJbNQqohOdzuyvVG+gmIzqHRJ9ciYzwBrQCF9e3Gn8VvUlIiajeodEn5jMQGuAUkc6nZN+r/oSEZNRvUOiT0xmgDVAzOPKxVxZ9SUiJqN6h0SfmMwAa8BNpUYvKUx6VPUlIiajeodEn5jMQHeXmD9dKeaeVn2JiMmo3iHRJyYzwBpo23L4zvfMOGWV6ktETEb1Dok+MZkB1sDq1JqtlxemvqX6EhGTUb1Dok9MZoA14FgGxWF5iMnEoUuisY+APIy3wUL4l2MZH4zD0hCTiUOXRKOYzKZr4EXHMj4ah6UhJhOHLolGMZlN1gA/6Vi5z8RhaYjJxKFLolFMZuM1wHjEKRpfiMPSEJOJQ5dEIzKF+Z/jqvtz+ebSusXATxLjTHniV345hECdBNL50pc0Dccza8cDvEud4ZI3nelmAuaXi9k7VC1OzmRU7Yzogm7aJQCGoKiJwO2U4snlQu71mkZHOEhMJkLYkqp2ApnCDXtytar8I/O1V9T4kQz8oGIZ5zQ+k78MYjL+eMnoiAhkzJLBIO9MRo7aCbzDPGyfSnGiUuYsJlN7A2VkhAR0074OwGkRpkxEKma+tFLMFVQqRkxGpW6Iln4CekfXfWA+WJD4I8CMuZWioZQ5i8n466GMjoiA3mH/AYx9IkqXmDQMWlixskerVJCYjErdEC3vn8mY9l8B7CFIfBNY6VjG53zPauAEMZkGwpXQwQnopv0SgB2CR2jNmQy8UbGMbVWqXkxGpW6IlvXPZLx9UrYSJP4JqLYFhJiM/x7KjAgI6Ka9BsDwCFIlLoWYTOJaKgU1goBu2s8D+FgjYic9pphM0jss9YVCQM/bD4MwJpRgLRZETKbFGi7lBiOQNu07CDg22OzWniUm09r9l+prJJDpsK9nxjdqHC7D3ifwmGMZn1cJiFz4VakbomW9u0tdlwE8XZD4I0CEueVOeeLXHzUZ3ZIEMvl5hzNpyn/nWbXmMGNapWhco5IuOZNRqRuipZ/A+O7u1Esr3vL2RtlGsNROQENqv8XWpD/UPqPxI8VkGs9YMgQkoJulGwE6JeD0lptG4G+WrdxPVStcTEa1joiefgLp/LypRJpyvzSqtki1u0rrOInJqLpiRBcOKly//fBq2woAuwqOQQgQfuZ0Gsqe8YnJyOpVmkC6w55IjAVKi2yeuNuJaY7Km4h7aMRkmrdAJHONBNJ5+0gi+iXAchG477eW7icXl6tuLvLnUo0LXIapQSBtlvYmpnNAyKmhqFkqeB6l3vpOuXDW6mYp8JtXzmT8EpPxTSXQPr1rn5SG6Uz8taYKaU5y27GM2JmsmExzFotkrZOA3tHVCWazzjCxms6sHVspTv5drETLNZm4tUv0riOQzl+3B9GwRwF8qEWoPOxYxgFxrFXOZOLYNdHcR0A3u64C+NxWwMGMfKVoXBbHWsVk4tg10dxHYJxp7+UyHgNhWNKRUErbu1yY/Mc41ikmE8euieZ+Apl86adMNDXJSAh0W9nKfiWuNYrJxLVzoruPQKZw3W5cHX43wCOTiYR6KeW2lwu5ZXGtT0wmrp0T3f0ExnXYJ7mMW5KIhIFixTJifRdNTCaJK7MFa0qb9hUEnJ+w0h/b4oNa+6ILJr8Z57rEZOLcPdHeT2BUoTB8h+rH7wbQngwsvMpNDTtsSeHU/4l7PWIyce+g6O8n0F5YMEqr9nYD2CvuWNxU215JMBivD4FM5t/X28pxb6LojwWBfzqWMd6P0kMvvnG71LCeJXE2GjdF+y4pZJ/wU7fKY4OajMo1ibZkEbjTsYwv+S1JN23vmZLYndEQ0dfLndlf+K1X5fFiMip3R7S9R4BRcYqG7heHbtoLARzpd16zxhNgli2j2Kz8jcorJtMoshI3XAJEjzid2S/4DZrpsIvMmOF3XvTj6VrHyp4Vfd7GZxSTaTxjyRAWAcJSp9PwffdIN+0zAMwOS0b4cXieY+US+yE7MZnwV4xEbCyBF9qqw8fcM/OUVX7S6B32yWDc5GdONGP5JsfKTYwmV3OyiMk0h/vmsv4FQA+Az6gjSWElRIc5ndnFfhSmzdKbBBrhZ06jx6r6hYEw6xaTCZOmz1jMfClp2h/c3neWLZk59e/e9Eyh9CG3lz8PaPsT8QUA7eQzbMsM9/u1RN20XwKwg0qAxGRU6kaCtDDoQcA9vWLlvM99DHgcNqPro1WN58XpDknEbepxLGN4rTl1s/QcQLvXOj6KcWIyUVBusRzMVKgUs5f6KVuf0XUCNL7Vz5wWGbvKsYyda61V77BXgjGq1vFRjBOTiYJyS+WgJx0rG+iai27aPwRwdkvhGrrYPzmWUbNp6Hn7YRDGDB02shG9jmUkf8Mt3bQ5MqQtnqgK98Cl1pQHg2DIFK7Zhnu3fh6E7YLMT+IcBu6rWMahtdamm7Z3oThT6/gIxr3sWMaOEeRpagq58BsVfuYLnWLuinrSZczSmQz6ST0xEjb3145lnFBrTQqazFOOZSR0s633uyImU+sKrXMcszaqUpz8p3rCHFq48ROpao93q1sOjwDRdU5n1nvQrqZDNZNh8IMVK3dgTeJjPEhMJprm9a5etWbE8jlTvedg6jp0034GwCfrCpKYyTzTsXI1vzKgmsl4uxk4ljEuMe0YoBAxmWg6HNppcdq0byHgpGhkq53FdWnsksuyD9WqUkymVlLhjvNM5lkAHw83rETbgABhmdNpHBQGlVb61tDgvHiJY+XSfpiKyfihFd5Yz2RUu+IeXnXqRPqHYxm7hCFH77AdMHz9coWRV7UYTDit0mnM9aMrbdprCKj54T0/sQOObZk/l0oAjICQZFqNBKo9w7ZfOmviazUOH3BY2rRfIWD7euPEeT4RppU7jWv81JDJlzJM5OtdJz/xA459xrGMTwWcG5tplM6XCkR0SWwUx1SoBoxZbBnL65E/zrxhXxfVx+uJEfO5q+DSN53Lsr/yW4eet/8LhJl+5zV6/OrUmq2XF6a+1eg8zYxPmcL8MVx1H26miNbITfMcK1vXniGZjtIsZrqoNXhtXCUvoVTq3HJh8iNB6s+Y9i2s4AVzBn2+YmUfC1JTXOaQJ1Q37ecBfCwuouOq03vrulLMFYLo180FXwB6a76TEiSHwnO+t3rVmnzQRwB0s+sggO9Xsb561oSK9WxO01qT6ZoL8JS4iI6zTrea2nXJzEl92zr4OVrxWgwB97iMqytF4zd+WG08NtNhL2CGqhtDvehWU2OCrIl6mEQ5t89kMvmuLzPx7VEmbuVc7EKvXGZUamHQPqPrAE1zf9NC+8o8B8YDRHRv2cpeXwujwcakL7GPJBfehuLKHkk/m+kzGe/QTdv73+I4ZTuRMGFE/EO3yldVLpvyvwOVltBPr25YLuMJEB4i8H29Ke3+pYXsU2G1evQZs4dts9MWv4zBun7RTbUdkZSPuW3cv36TkbOZsJa2nzi0GoQnmPkJIr6fGD0utH0JvB8A71/Ne6X4ydrEsU+DaBkxP1ElPLbVW9qyRVc25jvP7dNv2EVLVecDOLyJ9fpJvdJNtU1IotH0m8zasxlvY6Sa32r1Q1DGtiyBlQAtZOaFlaKxKAoKabNrfyLMAbNKe8fUUnoijWYDkzn04mu3Sw0b4d3OlhfwalkSMmbzBBiPk8YLoeGuciEX2SeNvf2R4dL5zDgPwJYxbc//EfjHSL3143LhrNUxrWED2RuYjPeTcfm5I11K/TkJxUkNURLgh0HaXRrzwsWWcV+UmQ+bcf3urjbsOAZ/C8Bno8zdwFwrPbNZk6p2P1A47dUG5ml46E1M5r0/m0rtANV096PhCiWBygReZaCbiLr9fp6k3qIyhdLO3IMjQNpxIPZuWMT1zGVQFAy8Csad0HBnj9Z7ZxwNZ7Mm41V9+EWzt+0ZvsUNMbgyX+96lfn+CTxA4O5qte0XUT3fcdA53VttsfWbY10gQ0Ted7FV2kbTP8EgMxj/Yu9OnPfP5YfQhnK5kHs9SKgo5wxoMutEpM2uywl8cZSiJJeyBGy8d9ZyZ6MVZgrzP+e67lhyaSzAY0HYp9E5Yxmf8BAz7teYHVVNZ0iT6btO0zH/KJddz2ha73+PWK680EXP0YA59b7gOZCq9umzd2lr2/IA1zMTxmig79+HQ6+iNQL+lUArXLD3Ta8VYG1Fvdu+1outJpNZlyRj2ucz4L3kF+izHvWKlfkRE2C6QSP+YZjm8t4DcluOIWA0g9cZyt4RV9Zi6agXa02HGQ9pbT23lQunvxAVBF8m028200v7IYUMo+9vY++7N58A0BaVaMnTaAL0Ow3cEZa5ZAo37MmuewyYjwFwgJylNLp/NcV/gIBbq1X33iUzpzxa04yAgwKZzOZyHXJJ138Mq7qe2cgRcwLlYv3PtmxkLJ65yKEqAcLjzLhbY76nXMzdFbbM0EwmbGESL54EMmbXaQw+EYAYSzxbeDsxzSkXs3eEJV9MJiySLR5H7yiNB2ia7D+cmIUQmtmIySRmTTSnkHTePtLbc1eep2oO/wiy1m02YjIRdCmJKdoLXQdoLqaBeVIS65OaNiRAoNuQcmeVC7llftmIyfglJuMhm8+36iKgXgbP2vKD2qxFF9S+RYeYTKuulwB1r/2siPdlC3koMwC/BE15jJg7y8Xcr2upSUymFkoyBn0Xdpm6BYUQWEeAgSsrlnHBUETEZIYiVMPP1/754D2YqMQR9kfcxWCUaKuqIhY5lnHUYOLEZEJonWKf+n3bsYwRIZTVF0LVj6KFVZ/ECYEA47+donHuQJHEZEJgrJu291by0SGECiPEy45l7BhGoLRpTyagK4xYEiPZBAb74oKYTAi9101bpb2Rn3Uso+7XO9Z+Evceec8ohAXSOiGmOpYxZ+NyxWRCWAB63r4JhJNDCFV/CMITTqexb72BdLPrZoC/Wm8cmd9SBF7TgCM2frFWTCaENaCbCn2Bk+h+pzN7SD1l6R2l08G0yf9I9cSUuS1D4G7HMo5Yv1oxmRB6r5ulawDyNrFu/kF41Ok0vH1aAh19e+dWtWUA7x4ogExqeQIEd1LZmrJgHQgxmRCWRKbDvnLtZzhCiFZ3iLou/GbM0sUMurxuFRKglQnc5VhG/1v4YjIhLIVMh11kxowQQoUSYsTrb2x554/OXuM3WKZQ2pKr9JjsfOiXnIzfhADRYeu+YCEmE8L60E17NoAzQggVSogUY897i8Zf/AbLmKUzGfQTv/NkvBDYlADPc6yct1UvxGRCWB9p015KQF0XW0OQ0R+CmMcF2d1Oz3d1g3h8mFokVssSeMqxjJFiMiH1Xze7Xgb4IyGFCyPM9xzLuMhvoLRpv0LA9n7nyXghsDkC1Z5h2y+dNfE1OZOpc33opu39meT9uaTOEeBZGd3sOgjg+9UpQpTEnwAd7FhZb8NyOeohoJv2I2u/E1RPmNDnVuEeuNSa8mCtgWWPmFpJybiaCRCmOJ1GSUymZmKbDtQ77HPA+H4dIRo3legR0t49odbv6yj1QGHjqEjkKAkwX+EUcxeKyQSEns7P/xKR+9uA06Oadjel3jyhXDhr9VAJdbPr9wAfPtQ4+bkQ8EHgdscyjheT8UFs3dCY/Wlxi2MZQ94x0jvsJ8H4dAAcMkUIDETgGccyPiUm42OBHGrOG5uC5u2bMcHHtGYP7XYs42tDidBN+20AWw41Tn4uBPwQoNTuw8RkaiD2xek37dTb1nMemD2DSdUwRZkhDPygYhnnDCZodGH2iG2qW7ypjGgRkhgCDN5HTGaQdh5UuH77Yb1tJxPBM5e692hpysphutApZq8YLPeRhfk7rqm6q5qiT5ImmwBpE8RkNmpxn7G4bcfAxTEgHBP3h9OIcGq507hxsJV8WN7+ZJXwTLJXu1TXJAKXiMmsJZ/usCcmxVjWX0zM7hcrxSn3DrbAMtNL+3Gq78VIOYRA2AR+3vIm4z3pSuAZDBwbNl0V4lGKP1su5P48mBbdLLUDVFFBr2hIGAHC4y1tMmtvRXtbNLQlrLX95byTatv2wcKpbwx6JpMvZZhocVIZSF1NJMC8pmVNJmbPugRdJTVtYLX2y5BiMkEpy7xBCbSsyeim/SsAX0n0+mA84RSH3lRcTCbRq6DpxbWsybTCNpMMXlixckN+D0pMpum/h4kW0LomU1iwG/f2ngvCoA+qxbz7tmMZuaFqEJMZipD8vB4CLWsy66C1FxaMot6eCUR0JICPAdhtc0AZeBeA96LhagL+xaDVBPYexVf3IDzgdBrThxIoJjMUIfl5PQT+H4EH8jAH4p3YAAAAAElFTkSuQmCC" vertex="1" parent="1">
          <mxGeometry x="41.65" y="459" width="84.3" height="60" as="geometry" />
        </mxCell>
        <mxCell id="9ZquulYYG6s8crrChnac-9" value="" style="shape=image;verticalLabelPosition=bottom;verticalAlign=top;imageAspect=0;aspect=fixed;image=data:image/png,iVBORw0KGgoAAAANSUhEUgAAAMgAAADICAYAAACtWK6eAAAAAXNSR0IArs4c6QAACslJREFUeF7tnV+IHWcZh99vmhgRCVJSL2yQKIGQ5kYQrKVJ5gT0QppEijRXxnO2Sv0DKVRUhGZnJ7MakII1QpRQzZk1jUgKAZPSgiXdM5vUKPVKqgjJRcA2uWj9B1ox7plPd5OmyW52c3Z29j3zzjx72c437+97ft/D5uzZOeuELwhAYEECDjYQgMDCBBCE0wGBRQggCMcDAgjCGYBAMQJ8BynGjVUNIYAgDSmabRYjgCDFuLGqIQQQpCFFs81iBBCkGDdWNYQAgjSkaLZZjACCFOPGqoYQQJCGFM02ixFAkGLcWNUQAncUpBV3N4gEO30/3yzi1ovI2oawYZt1JeDkihO57MWdyZL2i4ttc0FBWvHETp/7x0RkV105sS8IiMhFL/64X7PqyNkn916ZS+S2goTRxAkR/wj4INAgApedyMFe0jl8857nCRJG6WsisqVBYNgqBG4Q8OIPTCUj8Tv/4RZBwih9XUTuhRcEmk3A78mSkedmGNwQJIzSkyLycLPBsHsIXCPgArerF7efnxXk+gvy08CBAARuEDidJZ3ds4KEUXqKn1ZxNCBwK4FAZKdrxcc2+rx/ATgQgMAcAs793G2PurETNwYcCEBgPgEXjqVHxMvMG4J8QQACc7+J8PqDMwGBhQm4cDSdFCctIEEAArf7JxaCcC4gsCABvoNwOCCwCAEE4XhAYCUFyZLOHZ8poQEIDItAa3+35QM3WXT+sr+DIEhR9KzTIIAgGpSZYZYAgpitjuAaBBBEgzIzzBJAELPVEVyDAIJoUGaGWQIIYrY6gmsQQBANyswwSwBBzFZHcA0CCKJBmRlmCSCI2eoIrkEAQTQoM8MsAQQxWx3BNQggiAZlZpglgCBmqyO4BgEE0aDMDLMEEMRsdQTXIIAgGpSZYZYAgpitjuAaBBBEgzIzzBJAELPVEVyDAIJoUGaGWQIIYrY6gmsQQBANyswwSwBBzFZHcA0CCKJBmRlmCSCI2eoIrkEAQTQoM8MsAQQxWx3BNQggiAZlZpglgCBmqyO4BgEE0aDMDLMEEMRsdQTXIIAgGpSZYZYAgpitjuAaBBBEgzIzzBJAELPVEVyDAIJoUGaGWQIIYrY6gmsQQBANyswwSwBBzFZHcA0CCKJBmRlmCSCI2eoIrkEAQTQoM8MsAQQxWx3BNQggiAZlZpglgCBmqyO4BgEE0aDMDLMEEMRsdQTXIIAgGpSZYZYAgpitjuAaBBBEgzIzzBJAELPVEVyDAIJoUGaGWQIIYrY6gmsQQBANyswwSwBBzFZHcA0CCKJBmRlmCSCI2eoIrkEAQTQoM8MsAQQxWx3BNQggiAZlZpglgCBmqyO4BgEE0aDMDLMEEMRsdQTXIIAgGpSZYZYAgpitjuAaBBBEgzIzzBJAELPVEVyDAIJoUGaGWQIIYrY6gmsQQBANyswwSwBBzFZHcA0CCKJBmRlmCSCI2eoIrkEAQTQoM8MsAQQxWx3BNQggiAZlZpglgCBmqyO4BgEE0aDMDLMEEMRsdQTXIIAgGpSZYZYAgpitjuAaBBBEgzIzzBJAELPVEVyDAIJoUGaGWQIIYrY6gmsQQBANyswwSwBBzFZHcA0CCKJBeYVntOIj61x/zaa+uE2B+Lu9c39wQXChF++9uMKja397BDFecRhN7BPxP7zdNrzIK867b2bj7fPGtzm0+AgyNPTLHxyOppPipDXAnb6eJZ2nB7iOS+YQQBCjRyKMun8ScZsGjd/3+SfPjT/620Gv57prBBDE4EkIx9LviZdvLTH6pavB9MfPx1/66xLXNfpyBDFW/wPxT+5+T77qL8Viu6eypL1UsYqNqskqBDFW5NbRo/ff5YLfFIrt/QvZ+MhDhdY2dBGCGCs+jLp7RdzPCsa+lCWdjxRc28hlCGKs9tZo+g3v5KmCsf+VJZ33F1zbyGUIYqz2MJr4jIh/oWDsV7Ok84mCaxu5DEGM1d6Kj230ef9CodhO0uxAZ6TQ2oYuQhCDxW+P0nNO5MGlRvcin59KOseXuq7J1yOIwfbD0YkHxPlfLyW6F39gKhmJl7KGa3mj0OwZCKP0CRH5/qAbyJKOG/RarnuXAN9BDJ+G6++J/EJENiy4DS+nsvHOZw1vc6jREWSo+Jc//No766u/LT7fIs7dJ+LWicjvxfs/enHnp8bbR5c/pbl3QJDmds/OByCAIANA4pLmEhi6IM1Fz86bQMAt4aGdJvBgjxC4hQCCcCAgsAgBBOF4QOAOgvxSnOyGEgQgMJ+AC0e7h8W5rwEHAhC4jSCt0e5XvHM/Bg4EIDCPwFuuFT+z3uer/wwcCEBgLgH3zOwvwIVRekpEdgEIAhB4l4DP/UOzgrTiiZ0+96eBAwEI3CBwOks6u2/8CnUYpSdF5GEAQQACIi5wu3px+/lbnjEIo/R1EbkXQBBoNgG/J0tGnpthMO8hnDBKXxORLc0GxO6bSmDuk5u3fUotjCZOiPhHmgqJfTeSwGUncrCXdA7fvPsFH+O8/sL9MX661cjD0qRNX/Tij/s1q46cfXLvlXk/6L0TiVbc3SAS7PT9fLOIW///56jX3mlNY/+/k4+JyAcK7v/vc9YVvc/MbS6Jl0sFc9R/mZMrTuSyF3cmS9ovLrZhPgigxOOwrEcHvPSy8c6O2R+77++2fOAmi0bjE1CKkpu/DkHKYykIUiLMitwKQUosAkFKhFmRWyFIiUUgSIkwK3IrBCmxCAQpEWZFboUgJRaBICXCrMitEKTEIhCkRJgVuRWClFgEgpQIsyK3QpASi0CQEmFW5FYIUmIRCFIizIrcCkFKLAJBSoRZkVshSIlFIEiJMCtyKwQpsQgEKRFmRW7VCEF27D+2qe/yB8XlH15J7k5ce9E/hrP48Ft/A9dJq3BWLz3vfFZ4/SAL++7l/779vlfPP73n34NcbvWaWgsSRt19Iu6rIrLZakHVzu3+KeInA5FDk0nnTLWzFktXS0G2xc/eF+TTJ3h0uNihKLTKuaPZgfYXC62t8KLaCXJ//Oza9+bT/6gw89pGc94/0Rsf+UGdNlg7QcIo/ZWIfLpOJVnai8v9jt53RnqWMi+WtVaC8AF4wz+WXuSVqaSzdfhJyklQK0HCOH1ccjlUDhruUoyAeytL2vcUW1u9VfUShD/lUIkTdlffrX/5u+03KhFmmSFqJkg6Kct5/2CZMFl+jUCdXofUS5Cx9JB4eZyDOlwC+fR/PnT24JfnfcbUcFMVm14vQaJ05k3BHxVDwaqSCLyRJZ2Zz0+rxVetBGnFE5/yuX+pFs1Y3YR3J7Px9uesxp+bu1aCzGwuHOv+VLx7tC4FWdtHnV6gz76eslbAIHnDaOJNEb9ukGu5pjwCdXpx/g6VWgoys7ntUTd24sbKq587LULgsg+CfVPxF2b+CFOtvmoryOw/t0aPbRPXHxFx20T8xlo1N/zNXHUiL+XifzeVjMTDj7MyCWotyM3ItsbHP7pq+uqKPg8yaEU+kHu8uA8G3q8edE3ugr9J4N4MpvtvD7pmRa9bteFcL94xvaIzKnDzxghSAdZEMEgAQQyWRmQ9Agiix5pJBgkgiMHSiKxHAEH0WDPJIAEEMVgakfUIIIgeayYZJIAgBksjsh4BBNFjzSSDBBDEYGlE1iOAIHqsmWSQAIIYLI3IegQQRI81kwwSQBCDpRFZjwCC6LFmkkECCGKwNCLrEfgfcmSLIWcJihYAAAAASUVORK5CYII=" vertex="1" parent="1">
          <mxGeometry x="275" y="535" width="70" height="70" as="geometry" />
        </mxCell>
        <mxCell id="9ZquulYYG6s8crrChnac-11" value="" style="shape=image;verticalLabelPosition=bottom;verticalAlign=top;imageAspect=0;aspect=fixed;image=data:image/png,iVBORw0KGgoAAAANSUhEUgAAAMgAAADICAYAAACtWK6eAAAAAXNSR0IArs4c6QAAEa1JREFUeF7tnX+QJGV5x79P33qgqZwhYUuTgB4FKfQ0Jxi9vYvezqz8EonEqggqOdiek4QCDULUoOFmrrf3wCNqIFdqBOFm9rjTBMsqDZhDPOqm5zzgjsiRVATCkcqJVCUgQY4gCOz2E2ddwgVntt9+e7Z33u3vVO1f8zzv8z6fpz813bMzPYIMj5M33vTqyZ89u1qn4tMhsgLAa2b+FmdYlqkkYEvgeQCPTv+p7pVF3vaBw1+5a8enzj5ou6DYJparEx9V6F9AcLTtGswjgTknoPiRQP6qOT76BZtaqQVZXWuc5AGXATjFpiBzSGCeCHw3Bq7aFfq3p6mfSpBS0LgYMf4mTQHGkkBfEfDwsSjwN5nuyViQcjDxBxrrzaYLM44E+pWAePLeZjB6i8n+jARZHUys8GLdY7IgY0jABQKxJ0O7gtG9SXtNFGRZECwejJfeCeCtSYvxeRJwiMC94ulIM6g8OdueEwUpB41PaIzPOtQ4t0oCRgRUcE1rzL/UWpDVn9486L1i0T2AHmVUkUEk4BgB8fT0ZlC5tdu2Z30FKVUnLoLoFx3rmdslAWMCqvhca9z/pKUgjZ0QlI2rMZAE3CNwTxT6v5dakGXBTYsH42eec69f7pgE0hEQ76e/2gw+8nSnrK6nWMOXbz5aFnkPpyvFaBJwj4B68Ttawdo7UglSDra8TeP4bvfa5Y5JIB0B8fTCZlD5cjpB1tXL6snOdKUYTQLuEVDoWCusBBTEvdlxxzkQoCA5QGYJdwlQEHdnx53nQICC5ACZJdwlQEHcnR13ngOBvhdEYh1pbqg0c2DR0xJlN9/pu1k8uS5eNPBvv/LqIx5++oknjpV4chWAVaI4B4JX9gqSQr8j6rWAeFc0XtlVqk6sguhKQFYBelav6mRdh4JkJdgl3zFB/jsGLtgV+t/ohmOmn/Y3RpdnRTbbQddeu1RrfAjARgCvy1oraz4FyUrQcUEU2N0K/XeaYhiu1QOBrDeNf1ncfkA/EoWV75rkZ6xlUiIxhoIkIrILcOMVRB7/mbfo2D3BmqfSdDlcm7hVoKelyWnHimqlOV5ppMmzrZWmxmyxFKRXJF+2jguCKOSSVjia+kYbI+tuPH7Km9orwBJjfIod0bif+m43VrWMN5UcSEGSGVlFuCCIeHpMM6gcsGmwVK1/ESIXmed6Z0bheVY39khfy3xXSZEUJImQ5fN9L4iiGY37I5btYaTWOCMGjO7+AWBSPB1M+o53t72krGXbUsc8CtJTnC8t1veCCBrRmF/J0n6p2ngMgsHkNfTuKKy0bz9r/TCvZV2CgvQW3eyr9bsgSW+1mrAq1Rr/bPK2r8kNEJLqlWqN/QCOS4rr9fN8Bek10Zn1+l8Q+U4rHH13lvZL1cYzJv88VOAbrdB/v22tcrD1KI0nf2SbnyWPgmShN0tu/wuCp17wJo+5Mzj/CRsE7XeXYm/qAbNc+c8oHP0ts9hfjirV6mcBcpNtfpY8CpKFnsOCtLeuwJpW6G+zQVCqNS4E8CXTXPF0VTOo3GUaf2hcqdbYDCDT9ZJN3V8w6vMvTPGzWLajTc5TYFsr9NckR/7/iKFg65LD48n2wf5G41xB68dy4JT7gqD9Ox3Gj3K1/kEV+ZpxQo8DKUiPgb64XL+fYr24T5t/Fg7XGpcLsCEtOoFMNMNR3zRvVXD9ry+OByIAbzbN6XUcBek10Zn1XBFkZrtro9Cvm6D4+YV5+4eRrjKJ7Rgj2PSCeFfcEZz32GxrvOvy618/5Q1cB8Gp1rV6kEhBegCx0xKOCdL+pNTXp3Tq898bX9vxTv3loL5SVS6D4n09QPaAeHJFMxjd2mmtkdqW02LE7bt2HtuDWpmWcEKQTB3OY7KLd35RyB5P8U0Aj0DjR1RwFkTeBeANc4ByPxT7fv7BxztVvB9CcDJU3w6g/dcXj74XpC8ocROFJUBBCjt6Nm5CgIKYUGJMYQlQkMKOno2bEKAgJpQYU1gCFKSwo2fjJgQoiAklxhSWAAUp7OjZuAkBCmJCiTGFJUBBCjt6Nm5CgIKYUGJMYQlQkMKOno2bEKAgJpQYU1gCFKSwo2fjJgQoiAklxhSWAAUp7OjZuAkBCmJCiTGFJUBBCjt6Nm5CgIKYUGJMYQnYCyLWvzJUWNhs3D0CKhq1wkrQaefiXjvcMQnkR4CC5MealRwkQEEcHBq3nB8BCpIfa1ZykAAFcXBo3HJ+BChIfqxZyUECFMTBoXHL+RGgIPmxZiUHCVAQB4fGLedHgILkx5qVHCRAQRwcGrecHwEKkh9rVnKQAAVxcGjccn4EKEh+rFnJQQIUxMGhccv5EaAg+bFmJQcJdBVkuDaxXlTLDvbELZNAKgKiOtbcUGl2SppFkHog4DcKU5FmsJMEJNYRCuLk6LjpPAhYCjKxXqAdv6ebx6ZZgwTyIkBB8iLNOk4SsBSE1yBOTpubTk2AgqRGxoQiEbAUhNcgRTpIityrpSA8xSryQVOk3ilIkabNXlMToCCpkTGhSAQsBeE1SJEOkiL3aikIr0GKfNAUqXcKUqRps9fUBChIamRMKBIBClKkabPX1AQsBeFFemrSTHCSgKUgvEh3ctrcdGoCFCQ1MiYUiQAFKdK02WtqApaC5HcN0t5g6q76JEE92dknWzHehgK7RbBbBbsRYxCKE0SwEsDbjBcxCzwIkd2qeocX624VWQHIEKBDEPy22RJzH2UpSH7XILNtcO7x2Fcor6uXHRPkIUAujsLR7Z26Hq5NfADQcwU4w57KTKbiNlX9aGtDZX+ntcq1+kaFXJa5Tg8WoCA9gNhxyC4JImhEY37FBEWp1vgSgAtNYrvE/G0U+hcl5b9j/cTrBlRvAfC7SbFz+bylIPmeYnW7q8Rcgsm6tkOvIF+LQv+cNP2WavVNgPxZmpzpWMXWaNw/N03ecK1xUIAlaXJ6GUtBeknzkLUcEeTB5//nVSfcefXZz6bBUA7qr9VYdgE4LkXeY+JpqRlUHkiRg1Ktfgogt6XJ6WWspSC8BkkagguCeJD37QxHv5XUS8dTyGr9EhW52jhX8bFo3N9kHH9IYKnW+CqAD9nkZs2hIFkJdsl3QJBJ8XSwGVSetEGwOti6zIsnf2CaK54e0wwqB0zjD40brtbXisgNNrlZcywF4TVIEvj+F0TvjsLKiqQ+Znu+VGv8K4A3GaxxfxT6ywziOoYsC25aPBg/81MAA7Zr2OZZCsJTrCTg/S6ICq5pjfmXJvXRE0FSvEvWrV6p1vg+gLdm2a9NLgWxoWaQ0++CAEj97tXL2zZ9h0mBba3QX2OArWPIULB1yeHx5EHb/Cx5FCQLvVlyHRDkwSj0j7dtvxzU36Cx3G+Sr8ATrdD/DZPYTjGra5tP8+DdapufJY+CZKHntiDQGKe1NvhWb6GWao1PA7jSHJ+8p9t/6ZPWGK7ld0r/8r1QkKTpWD7vwCsIALkxCkfPS9tiObj2SI0Pa3/O7M2mubanWaXqxCqItubjAr3dGwUxnXDKODcEaTelZ0dh5etp2ivXGjsUOClNznQl6FgrrKT6VYByrXGL9uLzX2k3OxNPQSzBJaW5I0g6SbJ+kDAKfeOf9ivXJjYqdF4/tEhBko50y+fdEmS6yc+I96orm8HZT3dqeaS6ZSgW/TigZ1ki+b80Bda0Qn9bt3VWX3Hjb3rPx5ug+v6stbLmU5CsBLvkOyhI+4x7H4B/guLeWKb+XeAdBejRAvmjNNcbhki3w8OtCu8hD1P3TR62+KD37OSpIvr7ULR//3K54TpzGtb3gsxp91ycBBIIUBAeIiQwCwEKwsODBCgIjwESsCPAVxA7bswqCAEKUpBBs007AhTEjhuzCkKAghRk0GzTjgAFsePGrIIQoCAFGTTbtCNAQey4MasgBChIQQbNNu0IUBA7bswqCAEKUpBBs007AhTEjhuzCkKAghRk0GzTjgAFsePGrIIQoCAFGTTbtCNAQey4MasgBChIQQbNNu0IWAliV4pZJLCwCBjfv2hhtc1uSMCMAAUx48SoghKgIAUdPNs2I0BBzDgxqqAEKEhBB8+2zQhQEDNOjCooAQpS0MGzbTMCFMSME6MKSoCCFHTwbNuMAAUx48SoghKgIAUdPNs2I0BBzDgxqqAEugoyXJtYL6rtXwHigwQWNAFRHWtuqDQ7NTmLIPP3u9ULehpsru8IWH3cfT5/2L3vCHJDC5qApSAT6wWa6veuFzRFNrdgCVCQBTtaNtYLApaC8BqkF/C5Rv8ToCD9PyPucB4JWArCa5B5nBlL50jAUhCeYuU4I5aaRwIUZB7hs3T/E6Ag/T8j7nAeCVgKwmuQeZwZS+dIgILkCJul3CNgKQgv0t0bNXdsQ4CC2FBjTmEIUJDCjJqN2hCwFIQX6TawmeMeAUtBeA3i3qi5YxsCFMSGGnMKQ8BSEJ5iFeYIKXijfS9Ie4Ouzkg92eng3u+HYA8UewHvEUE8pIohCFYAWNLDfp5q1xDBHoW3B4iPmq7RrgW8sYd1Mi1lKUh+1yCzbTBT53OcXF5XLzsmyE+g+FQ07l/XCU05uPE4jac2ATi9B+i2i7fo4mZw7kOd1ipVG38KwUYAR/SgVqYlKEgmfN2TnRJE5KvR2Ogfm6AoV+uXqMjVJrGdYkT10uZ45RqT/NL6iW1QPcckdq5iKMgckXVFEAVub4X+yWkwlKoTfw7Rz6fJmY5V+Xg0PvrXafKGa40dApyUJqeXsRSklzQPWcsVQcRb9DvdTnVmQ1OqNXYBeGcKfN+LQn91ivjp0JlTu/1p83oVT0F6RfJl67ggiEKCVjg6ZoOgVNvyXiD+B/Nc78woPO9m8/iXIufzNlMUxGZiBjlOCOLhD1uBn+Igf6nxclD/NY3lxwAGDHBMiqeDzaDypEHsL4UMB40zJca3bHKz5lCQrAS75LsgiHh6hO1B2267VKvvBeTtyQj17iistN8mtnrMyPgTq+SMSRQkI8Bu6Q4Icm8U+idmaX94feNqUVyStIYKrmmN+Zcmxc32fKnW2AfghCxr2ORSEBtqBjkOCPJoFPqvNWila0i5NvF3Cv1A0hoC+ftmOPrBpLgEQf4LwGuyrGGTS0FsqBnkOCAIYm/gTbuCNfcZtNMxpFRr/AeApQb5B6LQP8YgrmPI6mDrMi+e/IFtfpY8CpKF3iy5LgiiwPmt0L/BBkHagzaLjMO1xocFuN5mn1lzKEhWgl3y3RBE9rTC0ZU2CErVxlcgON84V3F9NO7/iXH8IYHDtYm7BNr+jFbuDwoyR8hdEKTdugLbWqG/Jg2GcrXuq0g9TU47VlQrzfFKI03ecK2xVQCjj8GkWdc0loKYkkoZ54og05LEekZrQ+UfTVosB9ceqfFh7f9/WD3Ee26wGVzwuEny8Lr6e8STb5vEzlUMBZkjsi4J8gsE8hXx4iubQeVANyTD1Ym1Imp1zXLomqry4db46OZudcpBfanG3l8CanVK1suRUpBe0jxkLfcEmd784wL5dgzs87w4AnAAkyjDw0pVORGCU3uGS3GbiO5DjLswgPZvAC6NY6/kAScq9AwAR/asVoaF+l6QDL0xlQQyE6AgmRFygYVMgIIs5Omyt8wEKEhmhFxgIROgIAt5uuwtMwEKkhkhF1jIBCjIQp4ue8tMgIJkRsgFFjIBCrKQp8veMhOgIJkRcoGFTMBKkJk73127kMGwNxJoE5gUef3usdGHO9GQbohGqluGYonvIkISWOAEHoxC//huPXYVZCjYuuTwePLgAofD9gpOQAVfbo35F6YWpJ0wX3eZKPjM2H6+BNZGod/1i2FdX0HaeyxXG59QwWfz3S+rkUBeBOSHA5OvGLr9ynMetXoFmX4VqTZ2QlDOa8usQwJ5ERDFJ5vj/udmqzfrK0g7cVkQLB6Mlz6X16ZZhwRyIvAvUei/JalWoiDtBUaqN7wllkU7+uUbYElN8XkSSCBwcxT6Z5pQMhLkxYXm8w7cJs0whgQSCHwfkGoUjm43JZVKkPaiw+sap3qC5SqyHND2S9Ry02KMI4GcCTwNwT2iui+G7lv83Avf3HHVBan+dfG/4n+AUPnsl1QAAAAASUVORK5CYII=" vertex="1" parent="1">
          <mxGeometry x="695" y="432" width="75" height="75" as="geometry" />
        </mxCell>
        <mxCell id="9ZquulYYG6s8crrChnac-12" value="" style="shape=image;verticalLabelPosition=bottom;verticalAlign=top;imageAspect=0;aspect=fixed;image=data:image/png,iVBORw0KGgoAAAANSUhEUgAAAMgAAADICAYAAACtWK6eAAAAAXNSR0IArs4c6QAAEa1JREFUeF7tnX+QJGV5x79P33qgqZwhYUuTgB4FKfQ0Jxi9vYvezqz8EonEqggqOdiek4QCDULUoOFmrrf3wCNqIFdqBOFm9rjTBMsqDZhDPOqm5zzgjsiRVATCkcqJVCUgQY4gCOz2E2ddwgVntt9+e7Z33u3vVO1f8zzv8z6fpz813bMzPYIMj5M33vTqyZ89u1qn4tMhsgLAa2b+FmdYlqkkYEvgeQCPTv+p7pVF3vaBw1+5a8enzj5ou6DYJparEx9V6F9AcLTtGswjgTknoPiRQP6qOT76BZtaqQVZXWuc5AGXATjFpiBzSGCeCHw3Bq7aFfq3p6mfSpBS0LgYMf4mTQHGkkBfEfDwsSjwN5nuyViQcjDxBxrrzaYLM44E+pWAePLeZjB6i8n+jARZHUys8GLdY7IgY0jABQKxJ0O7gtG9SXtNFGRZECwejJfeCeCtSYvxeRJwiMC94ulIM6g8OdueEwUpB41PaIzPOtQ4t0oCRgRUcE1rzL/UWpDVn9486L1i0T2AHmVUkUEk4BgB8fT0ZlC5tdu2Z30FKVUnLoLoFx3rmdslAWMCqvhca9z/pKUgjZ0QlI2rMZAE3CNwTxT6v5dakGXBTYsH42eec69f7pgE0hEQ76e/2gw+8nSnrK6nWMOXbz5aFnkPpyvFaBJwj4B68Ttawdo7UglSDra8TeP4bvfa5Y5JIB0B8fTCZlD5cjpB1tXL6snOdKUYTQLuEVDoWCusBBTEvdlxxzkQoCA5QGYJdwlQEHdnx53nQICC5ACZJdwlQEHcnR13ngOBvhdEYh1pbqg0c2DR0xJlN9/pu1k8uS5eNPBvv/LqIx5++oknjpV4chWAVaI4B4JX9gqSQr8j6rWAeFc0XtlVqk6sguhKQFYBelav6mRdh4JkJdgl3zFB/jsGLtgV+t/ohmOmn/Y3RpdnRTbbQddeu1RrfAjARgCvy1oraz4FyUrQcUEU2N0K/XeaYhiu1QOBrDeNf1ncfkA/EoWV75rkZ6xlUiIxhoIkIrILcOMVRB7/mbfo2D3BmqfSdDlcm7hVoKelyWnHimqlOV5ppMmzrZWmxmyxFKRXJF+2jguCKOSSVjia+kYbI+tuPH7Km9orwBJjfIod0bif+m43VrWMN5UcSEGSGVlFuCCIeHpMM6gcsGmwVK1/ESIXmed6Z0bheVY39khfy3xXSZEUJImQ5fN9L4iiGY37I5btYaTWOCMGjO7+AWBSPB1M+o53t72krGXbUsc8CtJTnC8t1veCCBrRmF/J0n6p2ngMgsHkNfTuKKy0bz9r/TCvZV2CgvQW3eyr9bsgSW+1mrAq1Rr/bPK2r8kNEJLqlWqN/QCOS4rr9fN8Bek10Zn1+l8Q+U4rHH13lvZL1cYzJv88VOAbrdB/v22tcrD1KI0nf2SbnyWPgmShN0tu/wuCp17wJo+5Mzj/CRsE7XeXYm/qAbNc+c8oHP0ts9hfjirV6mcBcpNtfpY8CpKFnsOCtLeuwJpW6G+zQVCqNS4E8CXTXPF0VTOo3GUaf2hcqdbYDCDT9ZJN3V8w6vMvTPGzWLajTc5TYFsr9NckR/7/iKFg65LD48n2wf5G41xB68dy4JT7gqD9Ox3Gj3K1/kEV+ZpxQo8DKUiPgb64XL+fYr24T5t/Fg7XGpcLsCEtOoFMNMNR3zRvVXD9ry+OByIAbzbN6XUcBek10Zn1XBFkZrtro9Cvm6D4+YV5+4eRrjKJ7Rgj2PSCeFfcEZz32GxrvOvy618/5Q1cB8Gp1rV6kEhBegCx0xKOCdL+pNTXp3Tq898bX9vxTv3loL5SVS6D4n09QPaAeHJFMxjd2mmtkdqW02LE7bt2HtuDWpmWcEKQTB3OY7KLd35RyB5P8U0Aj0DjR1RwFkTeBeANc4ByPxT7fv7BxztVvB9CcDJU3w6g/dcXj74XpC8ocROFJUBBCjt6Nm5CgIKYUGJMYQlQkMKOno2bEKAgJpQYU1gCFKSwo2fjJgQoiAklxhSWAAUp7OjZuAkBCmJCiTGFJUBBCjt6Nm5CgIKYUGJMYQlQkMKOno2bEKAgJpQYU1gCFKSwo2fjJgQoiAklxhSWAAUp7OjZuAkBCmJCiTGFJUBBCjt6Nm5CgIKYUGJMYQnYCyLWvzJUWNhs3D0CKhq1wkrQaefiXjvcMQnkR4CC5MealRwkQEEcHBq3nB8BCpIfa1ZykAAFcXBo3HJ+BChIfqxZyUECFMTBoXHL+RGgIPmxZiUHCVAQB4fGLedHgILkx5qVHCRAQRwcGrecHwEKkh9rVnKQAAVxcGjccn4EKEh+rFnJQQIUxMGhccv5EaAg+bFmJQcJdBVkuDaxXlTLDvbELZNAKgKiOtbcUGl2SppFkHog4DcKU5FmsJMEJNYRCuLk6LjpPAhYCjKxXqAdv6ebx6ZZgwTyIkBB8iLNOk4SsBSE1yBOTpubTk2AgqRGxoQiEbAUhNcgRTpIityrpSA8xSryQVOk3ilIkabNXlMToCCpkTGhSAQsBeE1SJEOkiL3aikIr0GKfNAUqXcKUqRps9fUBChIamRMKBIBClKkabPX1AQsBeFFemrSTHCSgKUgvEh3ctrcdGoCFCQ1MiYUiQAFKdK02WtqApaC5HcN0t5g6q76JEE92dknWzHehgK7RbBbBbsRYxCKE0SwEsDbjBcxCzwIkd2qeocX624VWQHIEKBDEPy22RJzH2UpSH7XILNtcO7x2Fcor6uXHRPkIUAujsLR7Z26Hq5NfADQcwU4w57KTKbiNlX9aGtDZX+ntcq1+kaFXJa5Tg8WoCA9gNhxyC4JImhEY37FBEWp1vgSgAtNYrvE/G0U+hcl5b9j/cTrBlRvAfC7SbFz+bylIPmeYnW7q8Rcgsm6tkOvIF+LQv+cNP2WavVNgPxZmpzpWMXWaNw/N03ecK1xUIAlaXJ6GUtBeknzkLUcEeTB5//nVSfcefXZz6bBUA7qr9VYdgE4LkXeY+JpqRlUHkiRg1Ktfgogt6XJ6WWspSC8BkkagguCeJD37QxHv5XUS8dTyGr9EhW52jhX8bFo3N9kHH9IYKnW+CqAD9nkZs2hIFkJdsl3QJBJ8XSwGVSetEGwOti6zIsnf2CaK54e0wwqB0zjD40brtbXisgNNrlZcywF4TVIEvj+F0TvjsLKiqQ+Znu+VGv8K4A3GaxxfxT6ywziOoYsC25aPBg/81MAA7Zr2OZZCsJTrCTg/S6ICq5pjfmXJvXRE0FSvEvWrV6p1vg+gLdm2a9NLgWxoWaQ0++CAEj97tXL2zZ9h0mBba3QX2OArWPIULB1yeHx5EHb/Cx5FCQLvVlyHRDkwSj0j7dtvxzU36Cx3G+Sr8ATrdD/DZPYTjGra5tP8+DdapufJY+CZKHntiDQGKe1NvhWb6GWao1PA7jSHJ+8p9t/6ZPWGK7ld0r/8r1QkKTpWD7vwCsIALkxCkfPS9tiObj2SI0Pa3/O7M2mubanWaXqxCqItubjAr3dGwUxnXDKODcEaTelZ0dh5etp2ivXGjsUOClNznQl6FgrrKT6VYByrXGL9uLzX2k3OxNPQSzBJaW5I0g6SbJ+kDAKfeOf9ivXJjYqdF4/tEhBko50y+fdEmS6yc+I96orm8HZT3dqeaS6ZSgW/TigZ1ki+b80Bda0Qn9bt3VWX3Hjb3rPx5ug+v6stbLmU5CsBLvkOyhI+4x7H4B/guLeWKb+XeAdBejRAvmjNNcbhki3w8OtCu8hD1P3TR62+KD37OSpIvr7ULR//3K54TpzGtb3gsxp91ycBBIIUBAeIiQwCwEKwsODBCgIjwESsCPAVxA7bswqCAEKUpBBs007AhTEjhuzCkKAghRk0GzTjgAFsePGrIIQoCAFGTTbtCNAQey4MasgBChIQQbNNu0IUBA7bswqCAEKUpBBs007AhTEjhuzCkKAghRk0GzTjgAFsePGrIIQoCAFGTTbtCNAQey4MasgBChIQQbNNu0IWAliV4pZJLCwCBjfv2hhtc1uSMCMAAUx48SoghKgIAUdPNs2I0BBzDgxqqAEKEhBB8+2zQhQEDNOjCooAQpS0MGzbTMCFMSME6MKSoCCFHTwbNuMAAUx48SoghKgIAUdPNs2I0BBzDgxqqAEugoyXJtYL6rtXwHigwQWNAFRHWtuqDQ7NTmLIPP3u9ULehpsru8IWH3cfT5/2L3vCHJDC5qApSAT6wWa6veuFzRFNrdgCVCQBTtaNtYLApaC8BqkF/C5Rv8ToCD9PyPucB4JWArCa5B5nBlL50jAUhCeYuU4I5aaRwIUZB7hs3T/E6Ag/T8j7nAeCVgKwmuQeZwZS+dIgILkCJul3CNgKQgv0t0bNXdsQ4CC2FBjTmEIUJDCjJqN2hCwFIQX6TawmeMeAUtBeA3i3qi5YxsCFMSGGnMKQ8BSEJ5iFeYIKXijfS9Ie4Ouzkg92eng3u+HYA8UewHvEUE8pIohCFYAWNLDfp5q1xDBHoW3B4iPmq7RrgW8sYd1Mi1lKUh+1yCzbTBT53OcXF5XLzsmyE+g+FQ07l/XCU05uPE4jac2ATi9B+i2i7fo4mZw7kOd1ipVG38KwUYAR/SgVqYlKEgmfN2TnRJE5KvR2Ogfm6AoV+uXqMjVJrGdYkT10uZ45RqT/NL6iW1QPcckdq5iKMgckXVFEAVub4X+yWkwlKoTfw7Rz6fJmY5V+Xg0PvrXafKGa40dApyUJqeXsRSklzQPWcsVQcRb9DvdTnVmQ1OqNXYBeGcKfN+LQn91ivjp0JlTu/1p83oVT0F6RfJl67ggiEKCVjg6ZoOgVNvyXiD+B/Nc78woPO9m8/iXIufzNlMUxGZiBjlOCOLhD1uBn+Igf6nxclD/NY3lxwAGDHBMiqeDzaDypEHsL4UMB40zJca3bHKz5lCQrAS75LsgiHh6hO1B2267VKvvBeTtyQj17iistN8mtnrMyPgTq+SMSRQkI8Bu6Q4Icm8U+idmaX94feNqUVyStIYKrmmN+Zcmxc32fKnW2AfghCxr2ORSEBtqBjkOCPJoFPqvNWila0i5NvF3Cv1A0hoC+ftmOPrBpLgEQf4LwGuyrGGTS0FsqBnkOCAIYm/gTbuCNfcZtNMxpFRr/AeApQb5B6LQP8YgrmPI6mDrMi+e/IFtfpY8CpKF3iy5LgiiwPmt0L/BBkHagzaLjMO1xocFuN5mn1lzKEhWgl3y3RBE9rTC0ZU2CErVxlcgON84V3F9NO7/iXH8IYHDtYm7BNr+jFbuDwoyR8hdEKTdugLbWqG/Jg2GcrXuq0g9TU47VlQrzfFKI03ecK2xVQCjj8GkWdc0loKYkkoZ54og05LEekZrQ+UfTVosB9ceqfFh7f9/WD3Ee26wGVzwuEny8Lr6e8STb5vEzlUMBZkjsi4J8gsE8hXx4iubQeVANyTD1Ym1Imp1zXLomqry4db46OZudcpBfanG3l8CanVK1suRUpBe0jxkLfcEmd784wL5dgzs87w4AnAAkyjDw0pVORGCU3uGS3GbiO5DjLswgPZvAC6NY6/kAScq9AwAR/asVoaF+l6QDL0xlQQyE6AgmRFygYVMgIIs5Omyt8wEKEhmhFxgIROgIAt5uuwtMwEKkhkhF1jIBCjIQp4ue8tMgIJkRsgFFjIBCrKQp8veMhOgIJkRcoGFTMBKkJk73127kMGwNxJoE5gUef3usdGHO9GQbohGqluGYonvIkISWOAEHoxC//huPXYVZCjYuuTwePLgAofD9gpOQAVfbo35F6YWpJ0wX3eZKPjM2H6+BNZGod/1i2FdX0HaeyxXG59QwWfz3S+rkUBeBOSHA5OvGLr9ynMetXoFmX4VqTZ2QlDOa8usQwJ5ERDFJ5vj/udmqzfrK0g7cVkQLB6Mlz6X16ZZhwRyIvAvUei/JalWoiDtBUaqN7wllkU7+uUbYElN8XkSSCBwcxT6Z5pQMhLkxYXm8w7cJs0whgQSCHwfkGoUjm43JZVKkPaiw+sap3qC5SqyHND2S9Ry02KMI4GcCTwNwT2iui+G7lv83Avf3HHVBan+dfG/4n+AUPnsl1QAAAAASUVORK5CYII=" vertex="1" parent="1">
          <mxGeometry x="695" y="537" width="75" height="75" as="geometry" />
        </mxCell>
        <mxCell id="9ZquulYYG6s8crrChnac-13" value="" style="shape=image;verticalLabelPosition=bottom;verticalAlign=top;imageAspect=0;aspect=fixed;image=data:image/png,iVBORw0KGgoAAAANSUhEUgAAAMgAAADICAYAAACtWK6eAAAAAXNSR0IArs4c6QAAEa1JREFUeF7tnX+QJGV5x79P33qgqZwhYUuTgB4FKfQ0Jxi9vYvezqz8EonEqggqOdiek4QCDULUoOFmrrf3wCNqIFdqBOFm9rjTBMsqDZhDPOqm5zzgjsiRVATCkcqJVCUgQY4gCOz2E2ddwgVntt9+e7Z33u3vVO1f8zzv8z6fpz813bMzPYIMj5M33vTqyZ89u1qn4tMhsgLAa2b+FmdYlqkkYEvgeQCPTv+p7pVF3vaBw1+5a8enzj5ou6DYJparEx9V6F9AcLTtGswjgTknoPiRQP6qOT76BZtaqQVZXWuc5AGXATjFpiBzSGCeCHw3Bq7aFfq3p6mfSpBS0LgYMf4mTQHGkkBfEfDwsSjwN5nuyViQcjDxBxrrzaYLM44E+pWAePLeZjB6i8n+jARZHUys8GLdY7IgY0jABQKxJ0O7gtG9SXtNFGRZECwejJfeCeCtSYvxeRJwiMC94ulIM6g8OdueEwUpB41PaIzPOtQ4t0oCRgRUcE1rzL/UWpDVn9486L1i0T2AHmVUkUEk4BgB8fT0ZlC5tdu2Z30FKVUnLoLoFx3rmdslAWMCqvhca9z/pKUgjZ0QlI2rMZAE3CNwTxT6v5dakGXBTYsH42eec69f7pgE0hEQ76e/2gw+8nSnrK6nWMOXbz5aFnkPpyvFaBJwj4B68Ttawdo7UglSDra8TeP4bvfa5Y5JIB0B8fTCZlD5cjpB1tXL6snOdKUYTQLuEVDoWCusBBTEvdlxxzkQoCA5QGYJdwlQEHdnx53nQICC5ACZJdwlQEHcnR13ngOBvhdEYh1pbqg0c2DR0xJlN9/pu1k8uS5eNPBvv/LqIx5++oknjpV4chWAVaI4B4JX9gqSQr8j6rWAeFc0XtlVqk6sguhKQFYBelav6mRdh4JkJdgl3zFB/jsGLtgV+t/ohmOmn/Y3RpdnRTbbQddeu1RrfAjARgCvy1oraz4FyUrQcUEU2N0K/XeaYhiu1QOBrDeNf1ncfkA/EoWV75rkZ6xlUiIxhoIkIrILcOMVRB7/mbfo2D3BmqfSdDlcm7hVoKelyWnHimqlOV5ppMmzrZWmxmyxFKRXJF+2jguCKOSSVjia+kYbI+tuPH7Km9orwBJjfIod0bif+m43VrWMN5UcSEGSGVlFuCCIeHpMM6gcsGmwVK1/ESIXmed6Z0bheVY39khfy3xXSZEUJImQ5fN9L4iiGY37I5btYaTWOCMGjO7+AWBSPB1M+o53t72krGXbUsc8CtJTnC8t1veCCBrRmF/J0n6p2ngMgsHkNfTuKKy0bz9r/TCvZV2CgvQW3eyr9bsgSW+1mrAq1Rr/bPK2r8kNEJLqlWqN/QCOS4rr9fN8Bek10Zn1+l8Q+U4rHH13lvZL1cYzJv88VOAbrdB/v22tcrD1KI0nf2SbnyWPgmShN0tu/wuCp17wJo+5Mzj/CRsE7XeXYm/qAbNc+c8oHP0ts9hfjirV6mcBcpNtfpY8CpKFnsOCtLeuwJpW6G+zQVCqNS4E8CXTXPF0VTOo3GUaf2hcqdbYDCDT9ZJN3V8w6vMvTPGzWLajTc5TYFsr9NckR/7/iKFg65LD48n2wf5G41xB68dy4JT7gqD9Ox3Gj3K1/kEV+ZpxQo8DKUiPgb64XL+fYr24T5t/Fg7XGpcLsCEtOoFMNMNR3zRvVXD9ry+OByIAbzbN6XUcBek10Zn1XBFkZrtro9Cvm6D4+YV5+4eRrjKJ7Rgj2PSCeFfcEZz32GxrvOvy618/5Q1cB8Gp1rV6kEhBegCx0xKOCdL+pNTXp3Tq898bX9vxTv3loL5SVS6D4n09QPaAeHJFMxjd2mmtkdqW02LE7bt2HtuDWpmWcEKQTB3OY7KLd35RyB5P8U0Aj0DjR1RwFkTeBeANc4ByPxT7fv7BxztVvB9CcDJU3w6g/dcXj74XpC8ocROFJUBBCjt6Nm5CgIKYUGJMYQlQkMKOno2bEKAgJpQYU1gCFKSwo2fjJgQoiAklxhSWAAUp7OjZuAkBCmJCiTGFJUBBCjt6Nm5CgIKYUGJMYQlQkMKOno2bEKAgJpQYU1gCFKSwo2fjJgQoiAklxhSWAAUp7OjZuAkBCmJCiTGFJUBBCjt6Nm5CgIKYUGJMYQnYCyLWvzJUWNhs3D0CKhq1wkrQaefiXjvcMQnkR4CC5MealRwkQEEcHBq3nB8BCpIfa1ZykAAFcXBo3HJ+BChIfqxZyUECFMTBoXHL+RGgIPmxZiUHCVAQB4fGLedHgILkx5qVHCRAQRwcGrecHwEKkh9rVnKQAAVxcGjccn4EKEh+rFnJQQIUxMGhccv5EaAg+bFmJQcJdBVkuDaxXlTLDvbELZNAKgKiOtbcUGl2SppFkHog4DcKU5FmsJMEJNYRCuLk6LjpPAhYCjKxXqAdv6ebx6ZZgwTyIkBB8iLNOk4SsBSE1yBOTpubTk2AgqRGxoQiEbAUhNcgRTpIityrpSA8xSryQVOk3ilIkabNXlMToCCpkTGhSAQsBeE1SJEOkiL3aikIr0GKfNAUqXcKUqRps9fUBChIamRMKBIBClKkabPX1AQsBeFFemrSTHCSgKUgvEh3ctrcdGoCFCQ1MiYUiQAFKdK02WtqApaC5HcN0t5g6q76JEE92dknWzHehgK7RbBbBbsRYxCKE0SwEsDbjBcxCzwIkd2qeocX624VWQHIEKBDEPy22RJzH2UpSH7XILNtcO7x2Fcor6uXHRPkIUAujsLR7Z26Hq5NfADQcwU4w57KTKbiNlX9aGtDZX+ntcq1+kaFXJa5Tg8WoCA9gNhxyC4JImhEY37FBEWp1vgSgAtNYrvE/G0U+hcl5b9j/cTrBlRvAfC7SbFz+bylIPmeYnW7q8Rcgsm6tkOvIF+LQv+cNP2WavVNgPxZmpzpWMXWaNw/N03ecK1xUIAlaXJ6GUtBeknzkLUcEeTB5//nVSfcefXZz6bBUA7qr9VYdgE4LkXeY+JpqRlUHkiRg1Ktfgogt6XJ6WWspSC8BkkagguCeJD37QxHv5XUS8dTyGr9EhW52jhX8bFo3N9kHH9IYKnW+CqAD9nkZs2hIFkJdsl3QJBJ8XSwGVSetEGwOti6zIsnf2CaK54e0wwqB0zjD40brtbXisgNNrlZcywF4TVIEvj+F0TvjsLKiqQ+Znu+VGv8K4A3GaxxfxT6ywziOoYsC25aPBg/81MAA7Zr2OZZCsJTrCTg/S6ICq5pjfmXJvXRE0FSvEvWrV6p1vg+gLdm2a9NLgWxoWaQ0++CAEj97tXL2zZ9h0mBba3QX2OArWPIULB1yeHx5EHb/Cx5FCQLvVlyHRDkwSj0j7dtvxzU36Cx3G+Sr8ATrdD/DZPYTjGra5tP8+DdapufJY+CZKHntiDQGKe1NvhWb6GWao1PA7jSHJ+8p9t/6ZPWGK7ld0r/8r1QkKTpWD7vwCsIALkxCkfPS9tiObj2SI0Pa3/O7M2mubanWaXqxCqItubjAr3dGwUxnXDKODcEaTelZ0dh5etp2ivXGjsUOClNznQl6FgrrKT6VYByrXGL9uLzX2k3OxNPQSzBJaW5I0g6SbJ+kDAKfeOf9ivXJjYqdF4/tEhBko50y+fdEmS6yc+I96orm8HZT3dqeaS6ZSgW/TigZ1ki+b80Bda0Qn9bt3VWX3Hjb3rPx5ug+v6stbLmU5CsBLvkOyhI+4x7H4B/guLeWKb+XeAdBejRAvmjNNcbhki3w8OtCu8hD1P3TR62+KD37OSpIvr7ULR//3K54TpzGtb3gsxp91ycBBIIUBAeIiQwCwEKwsODBCgIjwESsCPAVxA7bswqCAEKUpBBs007AhTEjhuzCkKAghRk0GzTjgAFsePGrIIQoCAFGTTbtCNAQey4MasgBChIQQbNNu0IUBA7bswqCAEKUpBBs007AhTEjhuzCkKAghRk0GzTjgAFsePGrIIQoCAFGTTbtCNAQey4MasgBChIQQbNNu0IWAliV4pZJLCwCBjfv2hhtc1uSMCMAAUx48SoghKgIAUdPNs2I0BBzDgxqqAEKEhBB8+2zQhQEDNOjCooAQpS0MGzbTMCFMSME6MKSoCCFHTwbNuMAAUx48SoghKgIAUdPNs2I0BBzDgxqqAEugoyXJtYL6rtXwHigwQWNAFRHWtuqDQ7NTmLIPP3u9ULehpsru8IWH3cfT5/2L3vCHJDC5qApSAT6wWa6veuFzRFNrdgCVCQBTtaNtYLApaC8BqkF/C5Rv8ToCD9PyPucB4JWArCa5B5nBlL50jAUhCeYuU4I5aaRwIUZB7hs3T/E6Ag/T8j7nAeCVgKwmuQeZwZS+dIgILkCJul3CNgKQgv0t0bNXdsQ4CC2FBjTmEIUJDCjJqN2hCwFIQX6TawmeMeAUtBeA3i3qi5YxsCFMSGGnMKQ8BSEJ5iFeYIKXijfS9Ie4Ouzkg92eng3u+HYA8UewHvEUE8pIohCFYAWNLDfp5q1xDBHoW3B4iPmq7RrgW8sYd1Mi1lKUh+1yCzbTBT53OcXF5XLzsmyE+g+FQ07l/XCU05uPE4jac2ATi9B+i2i7fo4mZw7kOd1ipVG38KwUYAR/SgVqYlKEgmfN2TnRJE5KvR2Ogfm6AoV+uXqMjVJrGdYkT10uZ45RqT/NL6iW1QPcckdq5iKMgckXVFEAVub4X+yWkwlKoTfw7Rz6fJmY5V+Xg0PvrXafKGa40dApyUJqeXsRSklzQPWcsVQcRb9DvdTnVmQ1OqNXYBeGcKfN+LQn91ivjp0JlTu/1p83oVT0F6RfJl67ggiEKCVjg6ZoOgVNvyXiD+B/Nc78woPO9m8/iXIufzNlMUxGZiBjlOCOLhD1uBn+Igf6nxclD/NY3lxwAGDHBMiqeDzaDypEHsL4UMB40zJca3bHKz5lCQrAS75LsgiHh6hO1B2267VKvvBeTtyQj17iistN8mtnrMyPgTq+SMSRQkI8Bu6Q4Icm8U+idmaX94feNqUVyStIYKrmmN+Zcmxc32fKnW2AfghCxr2ORSEBtqBjkOCPJoFPqvNWila0i5NvF3Cv1A0hoC+ftmOPrBpLgEQf4LwGuyrGGTS0FsqBnkOCAIYm/gTbuCNfcZtNMxpFRr/AeApQb5B6LQP8YgrmPI6mDrMi+e/IFtfpY8CpKF3iy5LgiiwPmt0L/BBkHagzaLjMO1xocFuN5mn1lzKEhWgl3y3RBE9rTC0ZU2CErVxlcgON84V3F9NO7/iXH8IYHDtYm7BNr+jFbuDwoyR8hdEKTdugLbWqG/Jg2GcrXuq0g9TU47VlQrzfFKI03ecK2xVQCjj8GkWdc0loKYkkoZ54og05LEekZrQ+UfTVosB9ceqfFh7f9/WD3Ee26wGVzwuEny8Lr6e8STb5vEzlUMBZkjsi4J8gsE8hXx4iubQeVANyTD1Ym1Imp1zXLomqry4db46OZudcpBfanG3l8CanVK1suRUpBe0jxkLfcEmd784wL5dgzs87w4AnAAkyjDw0pVORGCU3uGS3GbiO5DjLswgPZvAC6NY6/kAScq9AwAR/asVoaF+l6QDL0xlQQyE6AgmRFygYVMgIIs5Omyt8wEKEhmhFxgIROgIAt5uuwtMwEKkhkhF1jIBCjIQp4ue8tMgIJkRsgFFjIBCrKQp8veMhOgIJkRcoGFTMBKkJk73127kMGwNxJoE5gUef3usdGHO9GQbohGqluGYonvIkISWOAEHoxC//huPXYVZCjYuuTwePLgAofD9gpOQAVfbo35F6YWpJ0wX3eZKPjM2H6+BNZGod/1i2FdX0HaeyxXG59QwWfz3S+rkUBeBOSHA5OvGLr9ynMetXoFmX4VqTZ2QlDOa8usQwJ5ERDFJ5vj/udmqzfrK0g7cVkQLB6Mlz6X16ZZhwRyIvAvUei/JalWoiDtBUaqN7wllkU7+uUbYElN8XkSSCBwcxT6Z5pQMhLkxYXm8w7cJs0whgQSCHwfkGoUjm43JZVKkPaiw+sap3qC5SqyHND2S9Ry02KMI4GcCTwNwT2iui+G7lv83Avf3HHVBan+dfG/4n+AUPnsl1QAAAAASUVORK5CYII=" vertex="1" parent="1">
          <mxGeometry x="695" y="647" width="75" height="75" as="geometry" />
        </mxCell>
        <mxCell id="9ZquulYYG6s8crrChnac-16" value="" style="shape=image;verticalLabelPosition=bottom;verticalAlign=top;imageAspect=0;aspect=fixed;image=data:image/png,iVBORw0KGgoAAAANSUhEUgAAAMgAAADICAYAAACtWK6eAAAAAXNSR0IArs4c6QAAGB1JREFUeF7tXX2UHFWVv7d6JoGA8mUUVliDB1jBI7go30l3R8BD+Dp8nIQVJN2d4IGjgDKwRki6p6Y7oKDT7AYBEZiuDuwCQXb9BEXJdHWAiKwHxGUXFnSDCq5kF9EIgcx03fX19MQQZjL1qt6t7uq5fQ5/APf+7r2/W79571W9eoUgP2FAGJiUARRuhAFhYHIGWAUy78qh2YkEfjCqBjQa9PS6Ly7ZGFW8ieKk7eEeGN0wN6ocPEi8UF+5+L+jirejOMkVq/e3oPG+SHLpgVdrdu5J7ljGBZIqVE5EgLMJ8CgA+DB3ARPgP4lAjxHAfW4x98Oo4icLFdsC/CgBnAgAM6KK24qzAYgeRbCGa6XMbVHGTuarSxC84wHxWACYE2VsAHgVCOqE9ES9mLM5YhsVSKrglAHgMo5EA2Je7xazfQF9fbnNLzjHewBfA4ADfDlwGxHURndtnP7IsqWbuEOl8s63AOF07jg+8Z+3AC4aLmYf8mnvy8yYQFL9zr8CwRm+okZphPBNdyB7JkfIdL6SJcQKB3ZYzEQD9117debFsDiT+acKDnFhh8FFolytlHPCYGzra0QgyRWVs9DC+0wlZRqHPDq7vjL3LyZx0/YdB5DXeM4kpmGsJ91i9m8NYzbh1HQSAfs5sE1gopU4sGaf/7wRrLAg866qHmr1kAsAu4fFYvR/1RvF1LprMk+ZipEqOPcDwAJTeCw4BNe5pewyk9jJgnMeAtxpEpMB6wG3mD3ZBG7oESRVcNSaQ609Ov3X5xaz15tIMgajR6tMetYt5j5gouZxjFShugaAFprE5MAyNYoYEEg8CAPAe91iZpGJZqQK1QUApEaQjv9t2TRr1vrrF202lWiq4PwaAPY1hceHgye7xcwDYfENCCQuhMFv3GJ2v7CEKf9UoXoJAK0ygcWN4Y3iYaamlvEZORWreKlbzNwQll8TAunIuxkTEeMWs6HrVbidvkjdtnb0aH5tZa4W9kJR/ukVlTRZOGwCixuDgAZMPBsJfcF06u0+EcgYAyKQcFIUgQTgT0aQAKRF7CIjSADCZYoVgLRtXGSKFYA/3SmWUrblQeg5sWdBWvdhVTsFoqY6Aeh9m4vuGqDdUyxjdSP2A0LaL4exHUFMJR5kmtNOgZiIHeQveCcIxMRNglTeGRaB+P3zEPBOkomLNOhdLBOxRSAygviWiIwg/qiSEcQfT5NZRX4Xq51TLKDwa5+tRGrMh5VPu0YQozU37xv7/ytu8jazTLE0hR5kBNEMYdS8bQIxWoU+mKkRTASiyb0IRJOwNpmLQDRfnGnrFKtNF0lbp1htrFmmWM2Ne3pvlolAgl+xQe5iBY9mxlNGEBGIrytJ1iC+aJrUSNYgmvzJGkSTsDaZywgiI4ivS09GEF80yQgia5DgF4qsQfw/gzF1nU2vB4XBr83QnjKChKNQ1iCa/MkaRJOwNpnLGkTWIL4uPRlBfNEkaxBTc8PmCEKYCkd7dN5uKRv6fZDmGkS9FxGjHxINyHZ3jYaZEohGSDHtAgZkDdIFTZQS+BgQgfBxK8hdwIAIpAuaKCXwMSAC4eNWkLuAARFIFzRRSuBjQATCx60gdwEDIpAuaKKUwMeACISPW0HuAgZEIF3QRCmBjwERCB+3gtwFDIhAuqCJUgIfAyIQPm4FuQsYEIF0QROlBD4GRCB83ApyFzAgAumCJkoJfAyIQPi4FeQuYEAE0gVNlBL4GBCB8HEryF3AgAikC5ooJfAxIALh41aQu4ABEUgXNFFK4GNABMLHrSB3AQMikC5oopTAx4AIhI9bQe4CBkQgXdBEKYGPgWkjED4KBVkY+AsDpk7wjPzzB9JEYSAKBkQgUbAsMWLLgAgktq2TxKNgQAQSBcsSI7YMiEBi2zpJPAoGRCBRsCwxYsuACCS2rZPEo2BABBIFyxIjtgyIQGLbOkk8CgZEIFGwLDFiy4AIJLatk8SjYCC+AiGoRUGQxOgyBhDSOhXFViCmEtchS2zjz0Cq4JBOFaaus8g3K5pKXIcssY0/AyKQ+PdQKmBkQATCSK5Ax58BEUj8eygVMDIgAmEkV6Djz4AIJP49lAoYGRCBMJIr0PFnQAQS/x5KBYwMiEAYyRXo+DMgAol/D6UCRgZEIIzkCnT8GRCBxL+HUgEjAyIQRnIFOv4MiEDi30OpgJEBEQgjuQIdfwZEIPHvoVTAyIAIhJHcToT++BWrd9mya2M2NWA2JRKzrUbj3YQwW+WKBBu9ROJlbDQ2YgI2zvhTYuODX1n8WifWEVVOIpComG5jnFS+cgShdTICLQSAD2qm8jQB3ovk3e+Wco9r+sbeXAQS+xZOXEDarpzkeXgCApwUQBSTsfI0AXzfsuhHNTv3/S6l7i1liUC6rMupfPUYsOhSIPg71tIQ7gYPV7mlzHrWOG0GF4G0uQGmwidL/3QgjI5eikQXm8L0g0OIX4WenlX1/HnP+bGPm40IJG4dmyDfZKFiI+AlALBnm8p5hYBuqBdzdpvis4UVgbBRGw1wulC9m4DOiSbajqMg4D21YoZ3ahdxoSKQiAk3Fe6EZbfsNjJzZh0ADjWFaQjnqd4330z+6NoL/2AIr60wIpC20h8seDJf+RAC/hQQeoMhMHsRjBDQR+ql3M+ZI7HDi0DYKTYbYK5dPSjh0bNmUXnQGhb+zcN25r940KNBFYFEw7ORKMd9/vZ39OyU+KMRsIhARt9ovPOR65Zuiiic8TAiEOOU8gGm8s4waB6mzJeNT2SCmlvKzvdp3XFmIpCOa8nECaULzlcJ4DMxSfctaSLAjbViNtLnM6Z4EoGYYpIRJ1mo9iOQqWcMTwHB95HogYZnvdKL8H+bX9/5FZX+zrM27zlCsFfC8vYkxAWAzW0qRu6SxfXwcBEI44VtAlo9IceRkR+HfgiI4DQ872sPl5Y8ppPX3PzQUQnLuggIsjp+E9i+Qr29R8ftibsIJGTXud2T/dUbwm0foe+gZa2q2Zkfhck1bVdPIM+7FABPC4qjtqXUBzLqiX9sfiKQDm5Vc+Mh0qPBU8R73WJmUXD/t3umCtU1MLZtPtiP8Ng4bXAUgQRrcyReqX7nrqC7cgng9noxewFHosmCcxsCLA2EjXC3O5D9RCDfNjiJQNpAup+Q6n0O8vABP7bb20SxIG5tkOwPkh8AnuwWM4FqCxYvuJcIJDh3rJ6pglMGgMu0gxBc55ayy7T9Ajik8s61gPB5fVe6wS3mLtX3i95DBBI9574ipgrOv+u/CUjfcYu5030FMGSUKlS+HWDh/rxbzB5oKAVWGBEIK73BwOfZdxxueY2f6nqjhSeGvVulG3Ps7hb9UNcPiJJuKbdO2y9iBxFIxIT7CZcqVPIAWPRju9UGwXEHsjktH0PGqX6novuchAi+Ui9l/95QCmwwIhA2aoMDpwqOes/7aB0EtOiYmp1TDxQj/6XtytHkoea76fisW8x8IPJkNQOKQDQJ4zY/xLZnzPbmvKkZ5xm3mD1Y08eoearg/CcAaF3wM1+3du30c7dEIEYvk/BgafvWfcnr/bUWEtFNbinX1o2MqXzlRkD8tE7eaNH+NTu3QccnalsRSNSMTxFvnj10uOVZWgt09Gh+bWWu1s5S0isqabJwWCsHoiM7/TA6EYhWR/mNgzwg9EbxsHXXZJ7iz27yCPOuqh5q9dDPdHIgyzqlbi++X8cnalsRSNSMTxEvaTuL0YOqTlqJBu679urMizo+pm0/trz63kaCfqODi0S5Winn6PhEbSsCiZrxKeKlbecK8uDLOmlt2TRr1vrrF23W8TFte8xla3ae8Y7XX9fDpc+7xZxWrXr44a1FIOE5NIoQZI+TW8yi0SQCgrXrYgqYri+3dtUUuqHtStwXqyGMRCAhyGNwbdd1JgKZpJkiEIarPASkCCQEeRyuIhAOVoNjikCCc8fiKQJhoTUwqAgkMHU8jiIQHl6DoopAgjLH5CcCYSI2IKwIJCBxXG4iEC5mg+GKQILxxuYlAmGjNhCwCCQQbXxOIhA+boMgi0CCsMboIwJhJDcAtAgkAGmcLiIQTnb1sUUg+pyxeohAWOnVBheBaFPG6yAC4eVXF10EossYs70IhJlgTXgRiCZh3OYiEG6G9fBFIHp8sVuLQNgp1gogAtGii99YBMLPsU4EEYgOWxHYikAiIFkjhAhEg6woTEUgUbDsP4YIxD9XkViKQCKh2XeQGAukugmAdvVdKeI17kBmuW/7NhlyCCTQoW4R1B/Fh37ClLHgklUzX9/jnW/oYBDgF+rFzLU6PhPZGngnvfoIAB3rNxEEuL3G9Ekyvzn4sROB+GEpGpu59tD7E571C51oaOHCmp35ho4Pi0CSeedmRLjIdyKI97sDmVN827fJUATSJuInCJvur84lIq1vmKBlHVGzF/9b2CpCjyDpfPViQrpBI5Et5I18uL7yU+oU8o79iUA6pzWpfucfgUDrU3EzLes9D9qLXw5bRWiBpAqVEwHwQa1EYrAOEYFodZTNOLl8aD+0rJ8Bwh4aQf7XLWZna9hPahpaIMmVQ/vhFutXesngFgDvVLeY0/9kmF6gwNYikMDUGXVM5Z0qICzWBH3cLWaP1PSZ0Dy0QBRqquDUAWCeXkL4G7eY2U/PJzprEUh0XE8WKcD0vQlFiF+qD2SuNFGBEYGk85XPEeL1ARJ6xvIaZwyvXPpsAF9WFxEIK71TgqcKlYUAuGZKwwkMiOjQein38yC+2/sYEcjHlt/2vtFEz38gwKwgSan78I1dvMFHli3dFMSfw0cEwsHq1Jjz7KFDLM+6AgCCfQgV8Z/dgcx5U0fyZ2FEIM1pVr9zBxB80l/YCa3U98jLbjFbCYFhzFUEYoxKX0Afv2L1Lm/Ooj4g73JA3M2X0wRGFsCpw8Xs94L6s4wgCjS5onIWWnhf2MQQ4Hue5ZXr9pK1YbHC+ItAwrCn59v6WNHlAHConufbrB92i1nNtfCOIxobQZqjSMFRF/X8kEWOuSPelGhQee3KrNYTVCOxleALFRsB+3Xwpvo+iGw1eSubLT76AOA0HZ4nsyXAbL2Y0foq2FRxjQqk9cRTiaR3qsA+///LBFS2rDmDNXv+qE8fI2ZcAvEsSBtJsAli0RiWt00f1X/b9t+3jbb9//uLf72Ys83ltWOk5IrV+0PC60OCi43FRLjNHch+yhheC8ioQBRmOl/5AiF+0XCijyNRuVbK3W0Yd1K4pkAIUzrx3FLWzOipEzROtrZtpRtz+ghBTaf2Npg62/fpjQtEFZ0sON9FAPP7rRC+AR6W3VJmvUFyBSoCBpJ5ZxEg9SHgUabDUW/vQfX8ec+ZxlV4LAJRwKmC8yoABL4bsaNiEWBwxGqUH7GXvsRBimCaY2B+fugoz7L6gGCROdS3IC3hvPPJJpCmSPqdB4DgJB5i8AUgKrul7CoefEENw0DaruxNntVH4F2OgFYYrMl8CeGc+kA20MNEv/mwCqS5JrErWfKQ89lG3QOvvK645Ft+ixY7XgbSBeczBM11xv5MkZ6j3t5TuKZV2+bMLpDmmsQeOhY96x8A4AgmwtRs8Q60vHLNzj3JF0OQd8RAqlA5DQj7AE3eqdsuIuLQrL1mf/qBS09+M4puRCIQVcjx11T3arxB1xLAUrbCCDYjQnl0597Bh6887/dscQT4LQzMs6uHJjyvjwAzbNQQbCKkcpS3o1UtkQlknLhUoboAiNRfmRPYyAR4BoDKbjF3K2OMaQ99wrJbdhvZaWYfeHA5IOzCSEgFLatcsxer7UiR/iIXyHh16UL1QgJS89QDuSpGwB946q/OQFbvhS6uhLoIN1lwliKAegp+CFtZhGtV/9YZ3Fulm2vbBKISTdu3vIu8mX1qQYcAM3ST922P8HWrkSgPrzy/47bV+66hQwzTK4ZOIHXbFmABY0q/GLtDmbuJMYYv6LYKZDzD+XnnI56FfUB0rq+sgxm9QgBly6LBmp3TOkImWLju8kquqBwICVTbQ/wf0KFPwSgCDm6xsPyogffJ9cO/3aMjBLLN+uRMNe1CgONMFDcJxhNIWK6VMncyxuga6IX2mhkbG5v7CJvT4XexFYZwN3jNUeNxthgBgDtKIFvXJ2NvKKqG7BugJn8uCN9sNUTrOBl/4N1hlcxXzkVENZ36CGNF69HDcm1l+DOsOHLsSIGoQtVpFtBjqSH9cxyFb8UkWDVq4eAjAxnNgydYs2or+Py8c1xrynsWYyIvqSlvvZgdZIwRGrpjBbJ1NFl++1xKJNRfsTNDVzs5wIutRWGZMUbHQ6ftO/clb1RxfRlrsgirEqOj5bVXX/ACaxwD4B0vkPEak/bqc9FrXA6AhxuoexIIfNSD5m3F0G9G8uXIg5wuVD/buu3OdtIMAn7Ls6hct7PqFJxY/GIjEMVm6xBjtTNUPZjai5Hhu1oPpkIfXcmYoxHoVKF6JgCpUWOuEcCJQZ5sPbi9gzEGC3SsBDLOwFy7elDP2NaGC1lYUaAEI4hUbuxEg+uuWrKRLU6bgOfZQ4cnmrttwdgJIG8rheD3hDA4svus8vq+RZvbVGqosLEUyHjFzWNPxzbHMW2pb0Z6vnXays2hmO4Q5+OvrO41OgP6wGueHjKTLy28tbV59Bm+GPzIsRbIOD3pgrO0tb36YC7KEOChsflz7n6uGNy4ycLQhQjNp+AHscUieNDD5usHP2CLESFwVwhE8ZW2K7urF3Ra82m+jXOIQ5ZH5eFS9ukI+xQqVHpF5SRSOxUATgwFtENnehZIvQ6d/TpfjOiRu0Yg49TNz99+mGcl1EJe98BjHfb/OHbayi6DNXvRn3Qco7RNrlh9MCY8xcUFjHHfUK9Av2mNltfbF7zCGKct0F0nkL+sT1afRtBQr3tqnUyi2YWft05bcTT9WM1Ps2+Ztakxc/z0kN3ZgiHcSR6W66XME2wx2gzctQLZuj4Z+8CP2rYyh41rxO8CqWNTM8NsMXwCJ/POYkR12xYP8+kSxGwdelSurcx9M4hznHy6XiCqGfOuumMf7G2obStqHs5ygECz6UQ3NRI0+LC95JdRXwTz80Op1ukhpzPG/hVYMOja0+egjGkhkK2jyfLK0ZRoLuQXMl5Ev1Ojybs/NGvw3kWLGoxxmtBpuzKndXPiEtZYiOXEKJTXXp15kTVOh4FPK4GMc5/sdxahehoPYOQrRJP09CcEWK4XM/ew9JwI04XK5YTN27b7sMQYeyf7vtZh4o9yxehk3GkpENWQhQvXJF4+ePP4bWGTx2Bu12+8t/XA7MemLoTWx2WUMI42hTkBjtpmoz5HcRdjjI6HnrYCGe+M+gZ3z9iWi8+wdevPXwhSp600ZiYG1y0//7dB48yzq0cmPOgjoHOCYkzpR7CREAdfe+8b5Z9eeOHIlPZdbjDtBbJ1fWJX0tRAtQnyVMaeb2ht2tP5bDYcf9Wt7xnt7R0/PSTBmN/NaCXKNft8tb1Gfu049qfTWU8XqpnWtu8PceWKgG5r2/e3dxRD7V5+bY93XtA6PeT9XPkA4f2t00MeYosRU2AZQSZoXNq+cVdq7KI2Qap5PssB3M2wBDVSD9tGvSeA4Nd7z9z1Dxvhtb+ihrUPgPdJQEttRWdbgP95Kaa2ywxyHv4cU11sTVsEsoMOzs87H/Qs9d08XBL3Rm+X/5/U6SGbrUT5MfuTf+yy2oyWIwLxQac6DbJ12srxPsw72wTBIY/Kpj6T3NnFhs9OBKLBYTpfuah12soBGm6dYjqMnleurVzy3U5JKA55iEA0uzTvyqHZOCPRh+p8Yc7TIDXz2oH5L8HCQdfOtP2UQnMlRYckAgnIdfM0yLFv7X0iIASvG0FD7ZvqGRkpP3TNp37HG6x70UUgIXubtFef1Tpt5diQUMbcEeiehmWV19mZnxgDnaZAIhBDjU8VnMsA1Ft7xHca5NS5/rj1IPLeqU3Fwg8DIhA/LPm0Oa6/+te91Dxt5bM+XcyYEfxWnR5SL2bKANj6droZ6OmOIgJhuALS/dW55JHatnIGA/x2kHhDazPkBv5Y0y+CCISx5+mCcx4BqNHE/LcZCb7d/HhpaYnLWMK0hxaBRHAJqIW85XnnEsDZYcIR0EsIeI9F1j3DpcWPhcESX38MiED88WTEKm2v/ih5nvpIkPrnPRqgw0oYo1t61jz8Jfk4qQZvoU1FIKEp1AdI25WdmodIjMIcQJjjWdb7EEgdKrE7AWywPFKnnm+ABKh1xYaanfsf/SjiYYIBEYgJFgWjaxkQgXRta6UwEwyIQEywKBhdy8D/A5kROarCghS4AAAAAElFTkSuQmCC" vertex="1" parent="1">
          <mxGeometry x="470" y="536.5" width="70" height="70" as="geometry" />
        </mxCell>
        <mxCell id="9ZquulYYG6s8crrChnac-17" value="" style="shape=image;verticalLabelPosition=bottom;verticalAlign=top;imageAspect=0;aspect=fixed;image=data:image/png,iVBORw0KGgoAAAANSUhEUgAAAMgAAADICAYAAACtWK6eAAAAAXNSR0IArs4c6QAAF0NJREFUeF7tnQuUHFWZx/9f9SRgAiwcJKCAZgX3ARxwCXsihHRPQsxDEeXhyK6bmerwkF15uBLlkUxPTXUCIqAQcd0cIVMT0DVGZA/KKySkq4eHj4DIAu5ZhQ0rL+EgIg/NMF3fbk0eG2aqu6tu35ru6vr6nJzDoe/3+n31n+6+detegryEgBCoSoCEjRAQAtUJiEDk6hACNQiIQOTyEAIiELkGhIAaAfkEUeMmVikhIAJJSaOlTDUCIhA1bmKVEgIikJQ0WspUIyACUeMmVikhIAJJSaOlTDUCIhA1bmKVEgIikJQ0WspUIyACUeMmVikhIAJJSaOlTDUCIhA1bmKVEgIikJQ0WspUIyACUeMmVikhIAJJSaOlTDUCIhA1bmKVEgIikJQ0WspUIyACUeMmVikhIAJJSaOlTDUCIhA1bmKVEgIikJQ0WspUIyACUeMmVikhIAJJSaOlTDUCIhA1bmKVEgIikJQ0WspUIyACUeMmVikhIAJJSaOlTDUCIhA1bmKVEgIikJQ0WspUIyACUeMmVikhkFiBzPrSTXtPmmzMYIPew8B7Ad47JT2TMncRoNcJeJ48fgEdb20pWZ97QzecxAkkaznd5OE8AMfrhiH+kk6AHmSDV5ctc62uShIjkNnWLUcYlZFrQVioq3jx06YEGHeTQStL/T33N1phIgQyKg5v5KcApjZasNinhsA28nhhaUW+1EjFLS+QHeJ4opEixTa9BMh4+9CSdc6zqgRaWiCd1sCe7NEWAEeqFih2qSdw78vG1pOftKxhFRItLZBswbmGgIurF0Z+0S8B/BIYf1ABIDYJJkDYC8CBO/5NrlYJA9eWbXOpSqUtK5DZBeckA9hYvWju5z06Vg8tW/yCSuFi0z4E5i53DqsYuBrAqdWq8oB5Q7a5KWrVLSuQXK8zCEJ3cEHc5dr59VGLlfHtTSBXGFwE8J1BVTJ4XdnOnxmVQEsK5AjLmnyAN/01AHuOK4iwwe03F0QtVMang0Cuz1kNxrkB1W6bZkzZZ73VFem3SEsKJLvcmU8G7gn8S2B4s8rWkgfT0W6pMiqBOb3OLI8QeP+DPSworzA3RPHZkgLJFQYWAxR4N5SMN/eOY0lBFGgytnUJ+EuQOvbMVJmw4W7Xzt8cJfuWFEhnr7OUafRH19jXE65tHhWlQBmbPgK5wsB/AvSXYysnxhdLRfOaKERaUiDZwoBFoL5xhTBKbtGcU6/AXN/ASrDxMYAPBsNfxPgsCM8D/HVdP+7bJUY9lkl8P9frbAahc2zuDO4v23krSk1tJ5BswbmfgFnVIDDo0rLdc1UUSGPHtkuMRhi0sq0IpEp3cgXHv+s+o17zPIOOGbJ6Hqs3Luj9domhUntSbEQgAZ3K9TrngrA6VBMVp4rbJUYoRgkeJAIJEkifMwCGGbavKp8iuTaJEZZRUseJQIIEUnAej7aoMfqUX65NYiT1wg+btwgkWCCvAtg3LEQGlpZt89qw4/1xuYLTFjGi1JzEsSKQ4K9Yt4HxybANJY/nRH2YJtfntEWMsIySOk4EEtC5qvdOgrv81MifKn/zwFfOej3KRdAuMaLUnMSxIpDq07zPYXSHk3ovOs21e26rNyro/VzBaYsYKrUnxUYEUqVTJ/aumZkh48c1G8nY6BbNj6g2u11iqNafBDsRSI0unWCtnTaJvW+BcUrAsCtd27y80Sa3S4xGObSqvQgkRGdmW4NHG553DEDvJo9/XqnwE0NXLnk5hGnoIe0SI3TBCRkoAklIoyTN5hAQgTSHu0RNCAERSEIaJWk2h4AIpDncJWpCCIhAEtIoSbM5BFItEGLubw52iZoUAkzUl84nCpPSIcmzJQm0/yO3LYldkkoKARFIUjoleTaFgAikKdglaFIIiECS0inJsykERCBNwS5Bk0Kg/QUScuO4pDRM8oyHQKrvg4TZWTEe7OI1KQREIEnplOTZFAIikKZgl6BJISACSUqnJM+mEBCBNAW7BE0KARFIUjoleTaFgAikKdglaFIIiECS0inJsykERCBNwS5Bk0JABJKUTkmeTSEgAmkKdgmaFAIiEA2d8jeijnqgo4awE+7CPxZ50pSOmex5+4FpPybaz0+CmF8F8atkGK9OnkoPbfhi95sTnlxMAUUgGsD6AjFgHFSye87T4K6lXMy2bj6WvMoiYswLejY7MFmiO8njzZVM5r4ha/EjLVVQxGREIBGBBQ3fdZQB43a3aH5Cg8umu5i73DlsJIPziel8gDvUEqIRJr6ho4Ib7lthPqXmo7lWIhAN/Mec9fGzab+ccvz69V0VDa6b4mK0Hl8YhP21JMB4xRdKEr+GikA0XAEBh+H8xhvJzBy6YvELGtxPqItsn/M1Ynw+pqA/dG0zaKf8mMI17lYE0jhDBJ8WRSMGjxy3uXjWLzSEmBAXuYLzSwB/FXOw513bPDjmGNrci0A0oKx1nBoTFpT7zQ0awsTqIldw/hvA9AhBngew8xPyPeFO49rl/WHXNo+LEKtpQ0UgGtDXO2+QQGbJ7hnUECoWFyHPbH+cGINg3lLtwNJc7+DxIP4wgCUAjqqVLDFfVirmvxxLQRqdikA0wKwnED9Eq14Qnb0DJhMN1MTAtGyPP9L1G64Jd39j/tK1U7e9iy8C8cpafpn5M+Vi/jsaWhCbCxGIBrRhBDIahrHKLZoXaQipxUWnNbAne/QTAEdXc+gZNHPI6vmpSsBcYeBTAH2vhu1jZPDMkpX/k4r/ibARgWigHFogox8l+J7bb35aQ9iGXXT2OkuZcHU1R65tUsNBAOQKDlfzQ4wvlormNTrixOFDBKKBaiSBbI83NPz6lAUPfa3rjxrCK7k46fLvHDjS8fZPAH5/kAMGfb5s91yv5HyMUa4wuAjgO4N90TMdI5Nmbrri73+rI5ZuHyIQDUQVBOJH/XWmMjLvvpVnP6MhhcgucoXBCwBeFWzIX3ft/IWRndYwyBUGVgF0QbAYsbRsm9fqjKfLlwhEA8kaAtkGYI+qIRhvAjzHLeZ/piGNSC5yBcefeg464/3XZPDskpV/MZLDOoM7rYGD2KMhAIePG0r0oNvfM0tnPF2+RCAaSFYVCKMEgv8V5s9rhfGAk4ds8w4NqYRy0WndfDh7lV8FDSbg/JJtfiOUo4iDsoXBiwh8XZCZZ3QcOWT9w5MRXcY+XASiAXEtgfi7N+b6BofAfGKdUEtc26w93aohV99Fra+EmQodct/Knuc0hXqHm05rYDp75N+QHPdS2es2jhzH+hSBaKBcTyB+iFyvsw6ErlrhGHxp2c5fpSGlmi46C4PXMXj8dPME7Fdc7YIj0PUluyeuNWDKSEUgyuj+3zCMQEZFUnC+CuCfa4Yk/qrbn79YQ1pVXeT6nEEwuscOIPC6kp0/M87YnYWB7zJo/DQ3Ya3bb/bEGVvFtwhEhdoYm7AC8c3q3XsYdc24xS2aizWkFugiV3BuB/DxcW8SVrn98d7IzPU514MRNEPWkit9myqQHc8d5OK6EHb5JXQGfOktaY1bJUbQDvK5gvN3AOotsbh30rZtn9p41Wdf05rn9q9794IwL8Dvla5tXq473u7+cgXnCgCXBfRjo1s0g2bV4kynru/mCwTUVzfLpA6o8Z0+Vxj4CEB1VvnS4+x5p5VX5ANnnFSxdBYGv8vgoK85jttv5lX9hrGrtjCSQOtKdk+sX+/C5Dd2jAhEhVpYmzo/emdba441vMxGgEc3P6jyesVjfGKoaD4QNmy9cbmC8y8A/jHgr/gGt2guqGffyPu5XuceEOYH+Pima5v/1IjvOGxFIHFQ3ekzxKzQvL7B973No8swjqydCp3m2j236Ui3s+CsYGDZWF8MDE999Q/73PX1C/0bnNpf2xdHGq8BPHmscwJWlmxzufagDToUgTQIsKZ5CIH49vOvXjt12xveD8CBf1l3hWB455XtJasbTfnE3jUzM2T8OMgPgc4s2T3rGo0RZJ+1nG7yEPhcDHk8p9pzJnHkEtanCCQsKZVxIQWy03WuMLgW4DqzV1xw7XxRJZ3dbXIF5z+CHmpiYFPZNoN+wDcaEtmCs5GAkwIc/cq1zb9oOEAMDlpTIIwSE7sx1Bvg0mDA27Gse/f/3jk06P/579Ubu/39qDt5hNk0gRk3lItm4MK/sMyyhcE+AltB4xn6Fw9mC87FBAQuayfwVSU7f2nY3CdyXMsKJM0HbHYWnGUMrKjz9e17blH9uRJ/QzjD8/zl7gF7XtEw4J3s2vl7dVyMs61bjjC8yhaA3zXeH414hjGzVTeYE4HouAJi8NFpDZzHHn2z3m8cb8TrGrpyycsqKdT+tKJnXbvnUBW/Y21yBefxapMQTLiu3G/WXl2gIwlFHyIQRXATYRbikVU/jSc8o6NLZSWsv3tihfCTqhvEMUpTfv+HhaqzWqPPpk/xP6WqzNAxXskwZrbyrosikIm40hVihPkEYZA7YlDXg1b3SwohRk1CPOx1Pxm8smTl744So9MaWMge+b85qk5ft+oK3t3rFIFE6foEjQ3zG4SBW8vG1i5YltdoWtUugnf4ZazljLe6bC15sFa80a1/wOeBxi+GfIcd0Rq3v+esRnOP275lBULM/XEXPxH+o87th5rFIvxrud8cfydcsaBO6xt7sTf19XDm9Ia/NxYRHmbgYd+GgBnMmAHCDAB7h/Ez5d3T9rzrwo/GckMyTPywY1pTIGGzb/VxMdwHYcKKcr/Zq7v0rLXmBPIMbctZauVnMI7bXDRHxdXqLxFInB0KKZDwd9L17TQSVHan9a1D2Jv8I4CPiQnL/3hGxyKVCYWY8qnrVgRSF1EDA0IIJOxaLDaMz5St7npL5BtIdrvp6NctnjoAxhkNO3ung9uGjZGzH7LO/p1mv7G6E4HEiVfPat4RJnxsojfA3jHFfL4/0dUgojLAN7h2fn2DfppiLgKJE3ujz4MwnvMy3ilD1pKmHWPWaQ2ezR6fAtC84DvhgQDfIuAuGHR3yeq5MU7EcfsWgcRJuIpAwj1RyI/wZP5kefmS38SZYljf/lJ1wJgHzzuRYXwA4A8A8P/5r6cBeprgPe0vdpzy7gPLSZihClN7UwUSJsFGx0R5Xlw1VtWFfwECCfVMOnDX8OtTTm/m1qSqLNrNTgSioaNhRRhqVxOG4xbjfex195L9G3tM3oKoq44bxTZ6MrCR+VHJ6t7SqK847UUgGuiGEUiYfbEAutq1e76kIaWqLuYuu/H9lUxmPpj8Y53nADhgx+DfsmF8Ie6Zslzv4BcAXg7CzseMX2TgDgI2ZSpUjmvTOlWmIhBVcrvZ1RNIqJ0VGZe4RfMrGtIZ56LTWnuU51XOIKI54DqzUkQbqeJ9o7Qi/+86c8kWBj9N4KUAah+9RnQfszdkGJnvl6xufxVwU18iEA34G92bl5nPKhfzazSkssvFogtW7fHm/vueTp7n3884VcH3I8y4z2C+I+pymZ2x/Ed7DaJFgLGQwDMVcriNDeP7U1/5/a2qK4oVYr7DRATSKMHRFbFVn86rvbv7aGzjFNfu/qGGNEZdjO6UwsanwTgdwGF6/NKzYO92gvFzsPdrg41fjf0qNHfZ4MEeeR8EGYd74GOIcHLEQ0FrpfoUCLd65K2b6ClvEYiGKyjEkvFxURjsERsnusWehzSkAH+ZiFeZdBERXRi0a4iOGO/wwfgjCNv362J8EISApwV1R6VhZl5lZN6+vmSd86xu70H+RCAaKEcWCOMFZs7p2BDuCMuaPA3TL2SPLgL4EA3lJMAFPUsGX/8Stq560rKG40xYBKKBbq0NEALcP0oGzylZ+d83Gjrb53QR4xIAx0b3xc+AcQcx1jPRJSAsjO5D3YKAB+Dxcs4YHwf7d+oDDtap7/4RJlxV7jdrHRRa30uNESKQhvBtNw77CcLge8p2vuELMbt87V9Txrs0aIf2WuUQ8DATNlGF7xr7wzu7fM1cMgx/7ZXKD/rwFBl3G4QbN9vmrbsbNfSDnrCWK8aXyyu6fxk+kXAjRSDhONUcFUogjLVusfHt/Xfs6ftvAPYPmfpz/g9cJtxatsxyPZuGLtRqzv2TtjL0Q65gc7nY8/N6OWQtJ0v+JMP2iYaD643f8f4r5PEZqjNu1WKIQELSrzWsvkD4atfON3wDMLtizaE0bGwONTvFfKf/WO7k4eFbVXeIn2Xd9N5JFSPrGcYxBP4QGB8CcFAdZC+C8CiDHjU87xeZysjmTVeco3SC7bxLVv/Z8OTJpxNwOog+GqJV//V/Nxvn6rzZKAIJQb3ekFoC0bkJW67g/KDeVyAGfkfMvW4x729Qrf3VaQ3sOzp9O4LpIEwfDcDYig5sBbBVx2+roKSzhcHPAnw5Ae+rWRTTD9xij//Jo+UlAtGAsZpAiL3FpeKSWzSEwEzrln328EZeJmDcxs87/TPw7Q4Pfa28jU4jLE66bHD/tyd5Kwn02ep+aJgM70BdQhWBNNKxHbbBAuH5unYm9MPMLqxZYMAI3HrH/9QAcGHZNr+toZyWd5HrHZgNIn9ZzoeDkiWPT9W1VEYEouFyGCsQb4SOGbqi5zENrne5qLWcZTgzcnrSHmXVwUbnxVstH50xdmwAraN0fT7qLSTUEWlXDObfUgYfKln5F3X43d3HRNShO+e4/em8eEUgYwmE2FAhbIN3XLynTjtqyrHru7oqYe2ijBOBjKclAolyBVUZOxEXlh8j7geOatXRLpvsRW03E/Uh4PBUnVua6hRhar9iRW2syvj691pUvLanjQgkQl8n4hMkQjrKQ0Ug4dGJQMKzqr5OSuNvkAjpKA8VgYRHJwIJz0oEEoFVuwwVgUTopHzFigCrTYaKQCI0UgQSAVabDBWBRGhkuwgkQskyVCMBmebVCFNctR8BEUj79VQq0khABKIRprhqPwIikPbrqVSkkYAIRCNMcdV+BNpeILmCcxmAKwJat8W1zb9tv5ZKRToJ5AqOf9ho0LZKl7u2eWWUWC25WLGzd8BkooGAQoanGVP2Xm91xbrxWBSAMra1CPj7G7+17z6vgzBpbGbEnC8V806UjFtSINk+Zz4x7gkshOkEXVt/RgElY5NBIGvdfAJ5lcCjsZmwIOq5kS0pEH9rzgO86a8B2HNcWwgb3H5zQTLaJVlONIFcn7MajHMD4m6bZkzZJ+q3j5YUiF9crtcZBKE7GDB3JfUE1om+YNIUL1cYXATwnUE1M3hd2c6fGZVHywpkdsE5yQA2VivIX7vDe3SsHlq2+IWoRcv49iIwd7lzWMXA1bX2H/OAeUO2uSlq5S0rEL+QbMG5hoCLaxT1JoAnGXgM4AnZWj8qYBkfIwGmA4noaABHA7xX9T+muLZsm/5JWZFfLS0Q/xhj9sg/MPLIyJWJgRDYTuDel42tJ6seudDSAvGrm23dcoThjTwh3RYCKgTIePvQRg7uaXmB7CaSnwKYqgJJbFJJYBt5vLDRneMTIZBdIqmMXDvRh8ak8tJKetGMu8mglaX+nvsbLSUxAtlZaNZyusnDeQCOb7R4sW83AvQgG7y6bJlrdVWWOIHsLHzWl27ae9JkY4Zn0AwCZoDxHl1QxE9CCBBeYOBhw+OH0fHWlpL1uTd0Z55YgegGIf6EQBABEYhcF0KgBgERiFweQkAEIteAEFAjIJ8gatzEKiUERCApabSUqUZABKLGTaxSQkAEkpJGS5lqBEQgatzEKiUERCApabSUqUZABKLGTaxSQkAEkpJGS5lqBEQgatzEKiUERCApabSUqUZABKLGTaxSQkAEkpJGS5lqBEQgatzEKiUERCApabSUqUZABKLGTaxSQkAEkpJGS5lqBEQgatzEKiUERCApabSUqUZABKLGTaxSQkAEkpJGS5lqBEQgatzEKiUERCApabSUqUZABKLGTaxSQkAEkpJGS5lqBEQgatzEKiUERCApabSUqUZABKLGTaxSQkAEkpJGS5lqBEQgatzEKiUERCApabSUqUbgfwGwoBKMm3ierAAAAABJRU5ErkJggg==" vertex="1" parent="1">
          <mxGeometry x="30" y="596" width="88.8" height="88.8" as="geometry" />
        </mxCell>
        <mxCell id="9ZquulYYG6s8crrChnac-18" value="" style="shape=image;verticalLabelPosition=bottom;verticalAlign=top;imageAspect=0;aspect=fixed;image=data:image/png,iVBORw0KGgoAAAANSUhEUgAAAMgAAADICAYAAACtWK6eAAAAAXNSR0IArs4c6QAAB39JREFUeF7t21FuVVcMheFcJlaYSZlHK4TKPMpMSCfGrYoqoT7Qs9jXchz562vWtuN/nb885fbkPwQQ+CGBGzYIIPBjAgTxdSDwPwQI4vNAgCC+AQTOCPgX5IybV0sIEGRJ0c48I0CQM25eLSFAkCVFO/OMAEHOuHm1hABBlhTtzDMCBDnj5tUSAgRZUrQzzwgQ5IybV0sIEGRJ0c48I0CQM25eLSFAkCVFO/OMAEHOuHm1hABBlhTtzDMCBDnj5tUSAgRZUrQzzwgQ5IybV0sIEGRJ0c48I0CQM25eLSFAkCVFO/OMAEHOuHm1hABBlhTtzDMCBDnj5tUSAgRZUrQzzwgQ5IybV0sIEGRJ0c48I0CQM25eLSFAkCVFO/OMAEHOuB29evvbn2/vt9uHo8f/Prrd7x+fP71/fmSGtzkBguSsHk5+E+TN7csjg25f7+8I8gjBn3tLkJ/j9VCaIA/he5HHBGnETpBG2EWrCFIEMhlDkITSrAxBGvsgSCPsolUEKQKZjCFIQmlWhiCNfRCkEXbRKoIUgUzGECShNCtDkMY+CNIIu2gVQYpAJmMIklCalSFIYx8EaYRdtIogRSCTMQRJKM3KEKSxD4I0wi5aRZAikMkYgiSUZmUI0tgHQRphF60iSBHIZAxBEkqzMgRp7IMgjbCLVhGkCGQyhiAJpVkZgjT2QZBG2EWrCFIEMhlDkITSrAxBGvsgSCPsolUEKQKZjCFIQmlWhiCNfRCkEXbRKoIUgUzGECShNCtDkMY+CNIIu2gVQYpAJmMIklCalSFIYx8EaYRdtIogRSCTMQRJKM3KEKSxD4I0wi5aRZAikMkYgiSUZmUI0tgHQRphF60iSBHIZAxBEkqzMgRp7IMgjbCLVhGkCGQyhiAJpVkZgjT2QZBG2EWrCFIEMhlDkITSrAxBGvsgSCPsolUEKQKZjCFIQmlWhiCNfRCkEXbRKoIUgUzGECShNCtDkMY+CNIIu2gVQYpAJmMIklCalSFIYx8EaYRdtIogRSCTMQRJKM3KEKSxD4I0wi5aRZAikMkYgiSUZmUI0tgHQRphF60iSBHIZAxBEkqzMgRp7IMgjbCLVhGkCGQyhiAJpVkZgjT2QZBG2EWrCFIEMhlDkITSrAxBGvsgSCPsolUEKQKZjCFIQmlWhiCNfRCkEXbRKoIUgUzGECShNCtDkMY+CNIIu2jVCEH++XCK7hk/5v7m9uWRX/L29f7ukfev6e3zp/fPL/37jhDkl98/f3m6Pa2R5KVLfxX770/Pf/3x64v/z4Agr+JrWfhLEuR76f4FWSjA1ckEIcjVN7L65wQhyGoBro4nCEGuvpHVPycIQVYLcHU8QQhy9Y2s/jlBCLJagKvjCUKQq29k9c8JQpDVAlwdTxCCXH0jq39OEIKsFuDqeIIQ5OobWf1zghBktQBXxxOEIFffyOqfE+R7/f5gKlfBH0zlrCqSI/4epOKQ1zDDn9y+hpb++zsSpLEzgjTCLlpFkCKQyRiCJJRmZQjS2AdBGmEXrSJIEchkDEESSrMyBGnsgyCNsItWEaQIZDKGIAmlWRmCNPZBkEbYRasIUgQyGUOQhNKsDEEa+yBII+yiVQQpApmMIUhCaVaGII19EKQRdtEqghSBTMYQJKE0K0OQxj4I0gi7aBVBikAmYwiSUJqVIUhjHwRphF20iiBFIJMxBEkozcoQpLEPgjTCLlpFkCKQyRiCJJRmZQjS2AdBGmEXrSJIEchkDEESSrMyBGnsgyCNsItWEaQIZDKGIAmlWRmCNPZBkEbYRasIUgQyGUOQhNKsDEEa+yBII+yiVQQpApmMIUhCaVaGII19EKQRdtEqghSBTMYQJKE0K0OQxj4I0gi7aBVBikAmYwiSUJqVIUhjHwRphF20iiBFIJMxBEkozcoQpLEPgjTCLlpFkCKQyRiCJJRmZQjS2AdBGmEXrSJIEchkDEESSrMyBGnsgyCNsItWEaQIZDKGIAmlWRmCNPZBkEbYRasIUgQyGUOQhNKsDEEa+yBII+yiVQQpApmMIUhCaVaGII19EKQRdtEqghSBTMYQJKE0K0OQxj4I0gi7aBVBikAmYwiSUJqVIUhjHwRphF20iiBFIJMxBEkozcoQpLEPgjTCLlpFkCKQyRiCJJRmZQjS2AdBGmEXrSJIEchkDEESSrMyBGnsgyCNsItWEaQIZDKGIAmlWRmCNPZBkEbYRasIUgQyGUOQhNKsDEEa+/gmyO324ZGVt/v94/On98+PzPA2J0CQnJXkQgIEWVi6k3MCBMlZSS4kQJCFpTs5J0CQnJXkQgIEWVi6k3MCBMlZSS4kQJCFpTs5J0CQnJXkQgIEWVi6k3MCBMlZSS4kQJCFpTs5J0CQnJXkQgIEWVi6k3MCBMlZSS4kQJCFpTs5J0CQnJXkQgIEWVi6k3MCBMlZSS4kQJCFpTs5J0CQnJXkQgIEWVi6k3MCBMlZSS4kQJCFpTs5J0CQnJXkQgIEWVi6k3MCBMlZSS4kQJCFpTs5J0CQnJXkQgIEWVi6k3MCBMlZSS4kQJCFpTs5J0CQnJXkQgJ/A7ffEQUPbVG9AAAAAElFTkSuQmCC" vertex="1" parent="1">
          <mxGeometry x="53.3" y="545" width="51" height="51" as="geometry" />
        </mxCell>
        <mxCell id="9ZquulYYG6s8crrChnac-19" value="" style="shape=curlyBracket;whiteSpace=wrap;html=1;rounded=1;flipH=1;labelPosition=right;verticalLabelPosition=middle;align=left;verticalAlign=middle;fillColor=#3f7ea0;strokeColor=#3f7ea0;" vertex="1" parent="1">
          <mxGeometry x="133" y="459" width="20" height="225" as="geometry" />
        </mxCell>
        <mxCell id="9ZquulYYG6s8crrChnac-22" value="" style="html=1;shadow=0;dashed=0;align=center;verticalAlign=middle;shape=mxgraph.arrows2.arrow;dy=0.6;dx=40;notch=0;" vertex="1" parent="1">
          <mxGeometry x="550" y="548.5" width="90" height="45" as="geometry" />
        </mxCell>
        <mxCell id="9ZquulYYG6s8crrChnac-23" value="" style="html=1;shadow=0;dashed=0;align=center;verticalAlign=middle;shape=mxgraph.arrows2.arrow;dy=0.6;dx=40;notch=0;" vertex="1" parent="1">
          <mxGeometry x="200" y="83" width="90" height="45" as="geometry" />
        </mxCell>
        <mxCell id="9ZquulYYG6s8crrChnac-24" value="" style="shape=curlyBracket;whiteSpace=wrap;html=1;rounded=1;labelPosition=left;verticalLabelPosition=middle;align=right;verticalAlign=middle;strokeColor=#3f7ea0;" vertex="1" parent="1">
          <mxGeometry x="655" y="432" width="20" height="290" as="geometry" />
        </mxCell>
        <mxCell id="9ZquulYYG6s8crrChnac-25" value="" style="html=1;shadow=0;dashed=0;align=center;verticalAlign=middle;shape=mxgraph.arrows2.arrow;dy=0.6;dx=40;notch=0;" vertex="1" parent="1">
          <mxGeometry x="370" y="548.5" width="90" height="45" as="geometry" />
        </mxCell>
        <mxCell id="9ZquulYYG6s8crrChnac-28" value="" style="html=1;shadow=0;dashed=0;align=center;verticalAlign=middle;shape=mxgraph.arrows2.arrow;dy=0.6;dx=40;notch=0;" vertex="1" parent="1">
          <mxGeometry x="170" y="551" width="90" height="45" as="geometry" />
        </mxCell>
        <mxCell id="9ZquulYYG6s8crrChnac-29" value="" style="html=1;shadow=0;dashed=0;align=center;verticalAlign=middle;shape=mxgraph.arrows2.arrow;dy=0.6;dx=40;notch=0;" vertex="1" parent="1">
          <mxGeometry x="380" y="83" width="90" height="45" as="geometry" />
        </mxCell>
        <mxCell id="9ZquulYYG6s8crrChnac-30" value="" style="shape=curlyBracket;whiteSpace=wrap;html=1;rounded=1;labelPosition=left;verticalLabelPosition=middle;align=right;verticalAlign=middle;strokeColor=#3f7ea0;" vertex="1" parent="1">
          <mxGeometry x="647" y="-35" width="20" height="290" as="geometry" />
        </mxCell>
        <mxCell id="9ZquulYYG6s8crrChnac-31" value="" style="html=1;shadow=0;dashed=0;align=center;verticalAlign=middle;shape=mxgraph.arrows2.arrow;dy=0.6;dx=40;notch=0;" vertex="1" parent="1">
          <mxGeometry x="550" y="85.5" width="90" height="45" as="geometry" />
        </mxCell>
        <mxCell id="9ZquulYYG6s8crrChnac-32" value="" style="rounded=1;whiteSpace=wrap;html=1;fillColor=none;dashed=1;" vertex="1" parent="1">
          <mxGeometry x="470" y="412" width="330" height="330" as="geometry" />
        </mxCell>
        <mxCell id="9ZquulYYG6s8crrChnac-33" value="内部网络" style="text;strokeColor=none;fillColor=none;html=1;fontSize=24;fontStyle=1;verticalAlign=middle;align=center;" vertex="1" parent="1">
          <mxGeometry x="585" y="-87" width="100" height="40" as="geometry" />
        </mxCell>
        <mxCell id="9ZquulYYG6s8crrChnac-34" value="内部网络" style="text;strokeColor=none;fillColor=none;html=1;fontSize=24;fontStyle=1;verticalAlign=middle;align=center;" vertex="1" parent="1">
          <mxGeometry x="595" y="372" width="100" height="40" as="geometry" />
        </mxCell>
        <mxCell id="9ZquulYYG6s8crrChnac-36" value="" style="shape=curlyBracket;whiteSpace=wrap;html=1;rounded=1;flipH=1;labelPosition=right;verticalLabelPosition=middle;align=left;verticalAlign=middle;rotation=-90;strokeColor=#3f7ea0;" vertex="1" parent="1">
          <mxGeometry x="200" y="242.5" width="20" height="351" as="geometry" />
        </mxCell>
        <mxCell id="9ZquulYYG6s8crrChnac-37" value="边界准入" style="text;strokeColor=none;fillColor=none;html=1;fontSize=24;fontStyle=1;verticalAlign=middle;align=center;" vertex="1" parent="1">
          <mxGeometry x="160" y="372" width="100" height="40" as="geometry" />
        </mxCell>
        <mxCell id="9ZquulYYG6s8crrChnac-39" value="" style="shape=image;verticalLabelPosition=bottom;verticalAlign=top;imageAspect=0;aspect=fixed;image=data:image/png,iVBORw0KGgoAAAANSUhEUgAAAMgAAADICAYAAACtWK6eAAAAAXNSR0IArs4c6QAAB11JREFUeF7t21FulUcQRGGzHy8CVoZYGV7EXVAUiSgoEqjuuFUe0l+ea7rdp/6D8+JPL/5DAIFfEviEDQII/JoAQXwdCPyGAEF8HggQxDeAwBkBv0HOuHm1hABBlhTtzDMCBDnj5tUSAgRZUrQzzwgQ5IybV0sIEGRJ0c48I0CQM25eLSFAkCVFO/OMAEHOuHm1hABBlhTtzDMCBDnj5tUSAgRZUrQzzwgQ5IybV0sIEGRJ0c48I0CQM25eLSFAkCVFO/OMAEHOuHm1hABBlhTtzDMCBDnj5tUSAgRZUrQzzwgQ5IybV0sIEGRJ0c48I0CQM25eLSFAkCVFO/OMAEHOuHm1hABBlhTtzDMCBDnj5tUSAgRZUrQzzwgQ5Izb0avX19fPLy8vX48e//vo2+PxeHvnDM9DAgQJQU3Efgjy/Z2zvhDknQSfeE6QJ2C9N0qQ9xLsvydIkTlBirCHVhFkCGQyhiAJpbsyBCn2QZAi7KFVBBkCmYwhSELprgxBin0QpAh7aBVBhkAmYwiSULorQ5BiHwQpwh5aRZAhkMkYgiSU7soQpNgHQYqwh1YRZAhkMoYgCaW7MgQp9kGQIuyhVQQZApmMIUhC6a4MQYp9EKQIe2gVQYZAJmMIklC6K0OQYh8EKcIeWkWQIZDJGIIklO7KEKTYB0GKsIdWEWQIZDKGIAmluzIEKfZBkCLsoVUEGQKZjCFIQumuDEGKfRCkCHtoFUGGQCZjCJJQuitDkGIfBCnCHlpFkCGQyRiCJJTuyhCk2AdBirCHVhFkCGQyhiAJpbsyBCn2QZAi7KFVBBkCmYwhSELprgxBin0QpAh7aBVBhkAmYwiSULorQ5BiHwQpwh5aRZAhkMkYgiSU7soQpNgHQYqwh1YRZAhkMoYgCaW7MgQp9kGQIuyhVQQZApmMIUhC6a4MQYp9EKQIe2gVQYZAJmMIklC6K0OQYh8EKcIeWkWQIZDJGIIklO7KEKTYB0GKsIdWEWQIZDKGIAmluzIEKfZBkCLsoVUEGQKZjCFIQumuDEGKfRCkCHtoFUGGQCZjCJJQuitDkGIfBCnCHlpFkCGQyRiCJJTuyhCk2AdBirCHVhFkCGQyhiAJpbsyBCn2QZAi7KFVBBkCmYwhSELprgxBin0QpAh7aBVBhkAmYwiSULorQ5BiHwQpwh5adYUgPz6coZOuH/P9nT/hl3e+/2OePx6Pt4/+YW8R5O+P5vNHw7D/KgJvj8fjw/8xIMhV34Qf5icCBPkHxuvrq98g3PgvAYIQhBW/IUAQghCEIME34H+xAkj7In6D+A2y76t/4mKCEOSJz2VflCAE2ffVP3ExQQjyxOeyL0oQguz76p+4mCAEeeJz2RclCEH2ffVPXEwQgjzxueyLEoQg+776Jy4mCEGe+Fz2RQnykyCb/hbEH0yFsvuDqRDU/yXmT27/vCav+IOpPw/b2U9MkDNuH/mKIEX6BCnCHlpFkCGQyRiCJJTuyhCk2AdBirCHVhFkCGQyhiAJpbsyBCn2QZAi7KFVBBkCmYwhSELprgxBin0QpAh7aBVBhkAmYwiSULorQ5BiHwQpwh5aRZAhkMkYgiSU7soQpNgHQYqwh1YRZAhkMoYgCaW7MgQp9kGQIuyhVQQZApmMIUhC6a4MQYp9EKQIe2gVQYZAJmMIklC6K0OQYh8EKcIeWkWQIZDJGIIklO7KEKTYB0GKsIdWEWQIZDKGIAmluzIEKfZBkCLsoVUEGQKZjCFIQumuDEGKfRCkCHtoFUGGQCZjCJJQuitDkGIfBCnCHlpFkCGQyRiCJJTuyhCk2AdBirCHVhFkCGQyhiAJpbsyBCn2QZAi7KFVBBkCmYwhSELprgxBin0QpAh7aBVBhkAmYwiSULorQ5BiHwQpwh5aRZAhkMkYgiSU7soQpNgHQYqwh1YRZAhkMoYgCaW7MgQp9kGQIuyhVQQZApmMIUhC6a4MQYp9EKQIe2gVQYZAJmMIklC6K0OQYh8EKcIeWkWQIZDJGIIklO7KEKTYB0GKsIdWEWQIZDKGIAmluzIEKfZBkCLsoVUEGQKZjCFIQumuDEGKfRCkCHtoFUGGQCZjCJJQuitDkGIfBCnCHlpFkCGQyRiCJJTuyhCk2AdBirCHVhFkCGQyhiAJpbsyBCn2QZAi7KFVBBkCmYwhSELprgxBin0QpAh7aBVBhkAmY34I8jXJ/ibz7fF4vL1zhuchAYKEoMR2EiDIzt5dHRIgSAhKbCcBguzs3dUhAYKEoMR2EiDIzt5dHRIgSAhKbCcBguzs3dUhAYKEoMR2EiDIzt5dHRIgSAhKbCcBguzs3dUhAYKEoMR2EiDIzt5dHRIgSAhKbCcBguzs3dUhAYKEoMR2EiDIzt5dHRIgSAhKbCcBguzs3dUhAYKEoMR2EiDIzt5dHRIgSAhKbCcBguzs3dUhAYKEoMR2EiDIzt5dHRIgSAhKbCcBguzs3dUhAYKEoMR2EiDIzt5dHRIgSAhKbCcBguzs3dUhAYKEoMR2EvgLjj2e58XsU+UAAAAASUVORK5CYII=" vertex="1" parent="1">
          <mxGeometry x="400" y="372" width="50" height="50" as="geometry" />
        </mxCell>
      </root>
    </mxGraphModel>
  </diagram>
</mxfile>
